%TF.GenerationSoftware,KiCad,Pcbnew,(6.0.0)*%
%TF.CreationDate,2022-01-02T16:00:33+01:00*%
%TF.ProjectId,S-Mix-Replacement,532d4d69-782d-4526-9570-6c6163656d65,rev?*%
%TF.SameCoordinates,Original*%
%TF.FileFunction,Copper,L1,Top*%
%TF.FilePolarity,Positive*%
%FSLAX46Y46*%
G04 Gerber Fmt 4.6, Leading zero omitted, Abs format (unit mm)*
G04 Created by KiCad (PCBNEW (6.0.0)) date 2022-01-02 16:00:33*
%MOMM*%
%LPD*%
G01*
G04 APERTURE LIST*
G04 Aperture macros list*
%AMRoundRect*
0 Rectangle with rounded corners*
0 $1 Rounding radius*
0 $2 $3 $4 $5 $6 $7 $8 $9 X,Y pos of 4 corners*
0 Add a 4 corners polygon primitive as box body*
4,1,4,$2,$3,$4,$5,$6,$7,$8,$9,$2,$3,0*
0 Add four circle primitives for the rounded corners*
1,1,$1+$1,$2,$3*
1,1,$1+$1,$4,$5*
1,1,$1+$1,$6,$7*
1,1,$1+$1,$8,$9*
0 Add four rect primitives between the rounded corners*
20,1,$1+$1,$2,$3,$4,$5,0*
20,1,$1+$1,$4,$5,$6,$7,0*
20,1,$1+$1,$6,$7,$8,$9,0*
20,1,$1+$1,$8,$9,$2,$3,0*%
G04 Aperture macros list end*
%TA.AperFunction,SMDPad,CuDef*%
%ADD10RoundRect,0.249999X0.450001X-0.325001X0.450001X0.325001X-0.450001X0.325001X-0.450001X-0.325001X0*%
%TD*%
%TA.AperFunction,SMDPad,CuDef*%
%ADD11RoundRect,0.150000X-0.825000X-0.150000X0.825000X-0.150000X0.825000X0.150000X-0.825000X0.150000X0*%
%TD*%
%TA.AperFunction,SMDPad,CuDef*%
%ADD12RoundRect,0.237500X-0.250000X-0.237500X0.250000X-0.237500X0.250000X0.237500X-0.250000X0.237500X0*%
%TD*%
%TA.AperFunction,SMDPad,CuDef*%
%ADD13RoundRect,0.237500X0.250000X0.237500X-0.250000X0.237500X-0.250000X-0.237500X0.250000X-0.237500X0*%
%TD*%
%TA.AperFunction,SMDPad,CuDef*%
%ADD14R,0.800000X0.900000*%
%TD*%
%TA.AperFunction,SMDPad,CuDef*%
%ADD15RoundRect,0.237500X0.237500X-0.250000X0.237500X0.250000X-0.237500X0.250000X-0.237500X-0.250000X0*%
%TD*%
%TA.AperFunction,ComponentPad*%
%ADD16C,1.000000*%
%TD*%
%TA.AperFunction,SMDPad,CuDef*%
%ADD17R,0.900000X0.800000*%
%TD*%
%TA.AperFunction,SMDPad,CuDef*%
%ADD18RoundRect,0.237500X-0.237500X0.250000X-0.237500X-0.250000X0.237500X-0.250000X0.237500X0.250000X0*%
%TD*%
%TA.AperFunction,Conductor*%
%ADD19C,0.203200*%
%TD*%
G04 APERTURE END LIST*
D10*
%TO.P,C1,1*%
%TO.N,/VREF*%
X147320000Y-102625000D03*
%TO.P,C1,2*%
%TO.N,GND*%
X147320000Y-100575000D03*
%TD*%
D11*
%TO.P,IC1,1*%
%TO.N,Net-(IC1-Pad1)*%
X144718000Y-109093000D03*
%TO.P,IC1,2*%
%TO.N,Net-(IC1-Pad2)*%
X144718000Y-110363000D03*
%TO.P,IC1,3*%
%TO.N,/VREF*%
X144718000Y-111633000D03*
%TO.P,IC1,4*%
%TO.N,GND*%
X144718000Y-112903000D03*
%TO.P,IC1,5*%
%TO.N,/VREF*%
X149668000Y-112903000D03*
%TO.P,IC1,6*%
%TO.N,Net-(IC1-Pad6)*%
X149668000Y-111633000D03*
%TO.P,IC1,7*%
%TO.N,Net-(IC1-Pad7)*%
X149668000Y-110363000D03*
%TO.P,IC1,8*%
%TO.N,+12V*%
X149668000Y-109093000D03*
%TD*%
D12*
%TO.P,R6,1*%
%TO.N,/C_AUDIO_L*%
X151972000Y-100965000D03*
%TO.P,R6,2*%
%TO.N,Net-(IC1-Pad6)*%
X153797000Y-100965000D03*
%TD*%
D13*
%TO.P,R13,1*%
%TO.N,GND*%
X145946500Y-107315000D03*
%TO.P,R13,2*%
%TO.N,Net-(IC1-Pad1)*%
X144121500Y-107315000D03*
%TD*%
%TO.P,R4,1*%
%TO.N,/E_AUDIO_R*%
X142367000Y-98425000D03*
%TO.P,R4,2*%
%TO.N,Net-(IC1-Pad2)*%
X140542000Y-98425000D03*
%TD*%
D14*
%TO.P,T1,1*%
%TO.N,Net-(R9-Pad1)*%
X140528000Y-111236000D03*
%TO.P,T1,2*%
%TO.N,Net-(IC1-Pad2)*%
X142428000Y-111236000D03*
%TO.P,T1,3*%
%TO.N,Net-(IC1-Pad1)*%
X141478000Y-109236000D03*
%TD*%
D12*
%TO.P,R16,1*%
%TO.N,GND*%
X148439500Y-104140000D03*
%TO.P,R16,2*%
%TO.N,/L_CHAN*%
X150264500Y-104140000D03*
%TD*%
D14*
%TO.P,T2,1*%
%TO.N,Net-(R10-Pad1)*%
X151958000Y-111236000D03*
%TO.P,T2,2*%
%TO.N,Net-(IC1-Pad6)*%
X153858000Y-111236000D03*
%TO.P,T2,3*%
%TO.N,Net-(IC1-Pad7)*%
X152908000Y-109236000D03*
%TD*%
D13*
%TO.P,R12,1*%
%TO.N,Net-(IC1-Pad6)*%
X153820500Y-107442000D03*
%TO.P,R12,2*%
%TO.N,Net-(IC1-Pad7)*%
X151995500Y-107442000D03*
%TD*%
D12*
%TO.P,R7,1*%
%TO.N,/E_AUDIO_L*%
X151972000Y-98425000D03*
%TO.P,R7,2*%
%TO.N,Net-(IC1-Pad6)*%
X153797000Y-98425000D03*
%TD*%
%TO.P,R8,1*%
%TO.N,/AUDIO_IN_L*%
X151972000Y-95885000D03*
%TO.P,R8,2*%
%TO.N,Net-(IC1-Pad6)*%
X153797000Y-95885000D03*
%TD*%
D15*
%TO.P,R1,1*%
%TO.N,/VREF*%
X147193000Y-95527500D03*
%TO.P,R1,2*%
%TO.N,+12V*%
X147193000Y-93702500D03*
%TD*%
D16*
%TO.P,J4,1*%
%TO.N,/C_AUDIO_R*%
X143510000Y-99695000D03*
%TD*%
%TO.P,J2,1*%
%TO.N,GND*%
X145034000Y-100965000D03*
%TD*%
%TO.P,J3,1*%
%TO.N,Net-(J3-Pad1)*%
X145034000Y-95885000D03*
%TD*%
%TO.P,J5,1*%
%TO.N,Net-(J5-Pad1)*%
X150876000Y-94615000D03*
%TD*%
%TO.P,J7,1*%
%TO.N,/E_AUDIO_R*%
X145034000Y-98425000D03*
%TD*%
%TO.P,J8,1*%
%TO.N,/AUDIO_IN_R*%
X143510000Y-97155000D03*
%TD*%
%TO.P,J9,1*%
%TO.N,/C_AUDIO_L*%
X150876000Y-99695000D03*
%TD*%
%TO.P,J10,1*%
%TO.N,/E_AUDIO_L*%
X149352000Y-98425000D03*
%TD*%
%TO.P,J11,1*%
%TO.N,/AUDIO_IN_L*%
X150876000Y-97155000D03*
%TD*%
%TO.P,J12,1*%
%TO.N,/MUTE*%
X149352000Y-95885000D03*
%TD*%
%TO.P,J15,1*%
%TO.N,GND*%
X149364700Y-100952300D03*
%TD*%
%TO.P,J14,1*%
%TO.N,/L_CHAN*%
X150876000Y-102235000D03*
%TD*%
%TO.P,J1,1*%
%TO.N,+12V*%
X143510000Y-94615000D03*
%TD*%
D13*
%TO.P,R3,1*%
%TO.N,/C_AUDIO_R*%
X142367000Y-100965000D03*
%TO.P,R3,2*%
%TO.N,Net-(IC1-Pad2)*%
X140542000Y-100965000D03*
%TD*%
%TO.P,R15,1*%
%TO.N,GND*%
X145946500Y-104140000D03*
%TO.P,R15,2*%
%TO.N,/R_CHAN*%
X144121500Y-104140000D03*
%TD*%
%TO.P,R10,1*%
%TO.N,Net-(R10-Pad1)*%
X150264500Y-105664000D03*
%TO.P,R10,2*%
%TO.N,/MUTE*%
X148439500Y-105664000D03*
%TD*%
D12*
%TO.P,R9,1*%
%TO.N,Net-(R9-Pad1)*%
X144098000Y-105664000D03*
%TO.P,R9,2*%
%TO.N,/MUTE*%
X145923000Y-105664000D03*
%TD*%
D13*
%TO.P,R5,1*%
%TO.N,/AUDIO_IN_R*%
X142367000Y-95885000D03*
%TO.P,R5,2*%
%TO.N,Net-(IC1-Pad2)*%
X140542000Y-95885000D03*
%TD*%
D17*
%TO.P,T3,1*%
%TO.N,Net-(IC1-Pad1)*%
X142544000Y-105852000D03*
%TO.P,T3,2*%
%TO.N,/R_CHAN*%
X142544000Y-103952000D03*
%TO.P,T3,3*%
%TO.N,+12V*%
X140544000Y-104902000D03*
%TD*%
D16*
%TO.P,J13,1*%
%TO.N,/R_CHAN*%
X143510000Y-102235000D03*
%TD*%
D12*
%TO.P,R14,1*%
%TO.N,GND*%
X148439500Y-107315000D03*
%TO.P,R14,2*%
%TO.N,Net-(IC1-Pad7)*%
X150264500Y-107315000D03*
%TD*%
D17*
%TO.P,T4,1*%
%TO.N,Net-(IC1-Pad7)*%
X151908000Y-103881498D03*
%TO.P,T4,2*%
%TO.N,/L_CHAN*%
X151908000Y-105781498D03*
%TO.P,T4,3*%
%TO.N,+12V*%
X153908000Y-104831498D03*
%TD*%
D18*
%TO.P,R2,1*%
%TO.N,/VREF*%
X147193000Y-97131500D03*
%TO.P,R2,2*%
%TO.N,GND*%
X147193000Y-98956500D03*
%TD*%
D12*
%TO.P,R11,1*%
%TO.N,Net-(IC1-Pad2)*%
X140565500Y-107554773D03*
%TO.P,R11,2*%
%TO.N,Net-(IC1-Pad1)*%
X142390500Y-107554773D03*
%TD*%
D19*
%TO.N,GND*%
X147978770Y-103454010D02*
X147497990Y-103454010D01*
X147421610Y-104140000D02*
X148439500Y-104140000D01*
X148864701Y-101452299D02*
X148864701Y-102568079D01*
X148717000Y-102715780D02*
X147978770Y-103454010D01*
X149364700Y-100952300D02*
X148864701Y-101452299D01*
X148717000Y-101600000D02*
X148717000Y-102715780D01*
X149364700Y-100952300D02*
X148717000Y-101600000D01*
X147421610Y-103530390D02*
X147421610Y-104140000D01*
X147497990Y-103454010D02*
X147421610Y-103530390D01*
%TO.N,+12V*%
X139748410Y-104599590D02*
X139748410Y-95298410D01*
X147828000Y-109474000D02*
X147828000Y-112014000D01*
X143787500Y-93702500D02*
X154662500Y-93702500D01*
X154662500Y-93702500D02*
X154891590Y-93931590D01*
X154629678Y-104775000D02*
X154891590Y-105036912D01*
X154891590Y-105615590D02*
X154891590Y-105869590D01*
X149668000Y-108966000D02*
X149541000Y-109093000D01*
X148082000Y-112268000D02*
X150876000Y-112268000D01*
X151384000Y-112776000D02*
X154432000Y-112776000D01*
X154891590Y-106093410D02*
X154891590Y-105869590D01*
X153964498Y-104775000D02*
X154813000Y-104775000D01*
X154675682Y-104775000D02*
X154891590Y-104559092D01*
X140050820Y-104902000D02*
X139748410Y-104599590D01*
X149541000Y-109093000D02*
X148209000Y-109093000D01*
X154599498Y-104775000D02*
X154675682Y-104775000D01*
X154891590Y-93931590D02*
X154891590Y-105615590D01*
X140544000Y-104902000D02*
X140050820Y-104902000D01*
X143510000Y-94615000D02*
X143510000Y-93980000D01*
X143510000Y-94615000D02*
X140129410Y-94615000D01*
X143510000Y-93980000D02*
X143787500Y-93702500D01*
X154853498Y-105831498D02*
X154891590Y-105869590D01*
X139748410Y-95298410D02*
X139748410Y-94996000D01*
X153908000Y-104831498D02*
X153964498Y-104775000D01*
X147828000Y-112014000D02*
X148082000Y-112268000D01*
X148209000Y-109093000D02*
X147828000Y-109474000D01*
X154891590Y-112316410D02*
X154891590Y-106093410D01*
X150876000Y-112268000D02*
X151384000Y-112776000D01*
X140129410Y-94615000D02*
X139748410Y-94996000D01*
X154432000Y-112776000D02*
X154891590Y-112316410D01*
%TO.N,Net-(IC1-Pad2)*%
X140542000Y-95885000D02*
X140542000Y-98425000D01*
X140542000Y-98425000D02*
X140542000Y-100965000D01*
X142428000Y-110556000D02*
X142621000Y-110363000D01*
X140542000Y-100965000D02*
X140542000Y-103204000D01*
X140605500Y-107806500D02*
X139748410Y-108663590D01*
X142428000Y-111826000D02*
X142428000Y-110556000D01*
X141271401Y-105870599D02*
X140605500Y-106536500D01*
X140542000Y-103204000D02*
X141271401Y-103933401D01*
X140050820Y-112268000D02*
X141986000Y-112268000D01*
X141986000Y-112268000D02*
X142428000Y-111826000D01*
X141271401Y-103933401D02*
X141271401Y-105870599D01*
X142621000Y-110363000D02*
X144718000Y-110363000D01*
X139748410Y-111965590D02*
X140050820Y-112268000D01*
X139748410Y-108663590D02*
X139748410Y-111965590D01*
X140605500Y-106536500D02*
X140605500Y-107806500D01*
%TO.N,/C_AUDIO_R*%
X143510000Y-99695000D02*
X142875000Y-99695000D01*
X142367000Y-100203000D02*
X142367000Y-100965000D01*
X142875000Y-99695000D02*
X142367000Y-100203000D01*
%TO.N,/E_AUDIO_R*%
X145034000Y-98425000D02*
X142367000Y-98425000D01*
%TO.N,/AUDIO_IN_R*%
X142875000Y-97155000D02*
X142367000Y-96647000D01*
X143510000Y-97155000D02*
X142875000Y-97155000D01*
X142367000Y-96647000D02*
X142367000Y-95885000D01*
%TO.N,Net-(IC1-Pad6)*%
X153162000Y-105410000D02*
X153162000Y-102616000D01*
X153858000Y-111826000D02*
X153858000Y-111236000D01*
X153820500Y-106068500D02*
X153162000Y-105410000D01*
X153416000Y-112268000D02*
X153858000Y-111826000D01*
X153797000Y-98425000D02*
X153797000Y-100965000D01*
X153858000Y-111236000D02*
X153858000Y-107479500D01*
X151638000Y-112268000D02*
X153416000Y-112268000D01*
X150876000Y-111506000D02*
X151638000Y-112268000D01*
X153797000Y-95885000D02*
X153797000Y-98425000D01*
X149668000Y-111506000D02*
X150876000Y-111506000D01*
X153162000Y-102616000D02*
X153797000Y-101981000D01*
X153797000Y-101981000D02*
X153797000Y-100965000D01*
X153820500Y-107442000D02*
X153820500Y-106068500D01*
X153858000Y-107479500D02*
X153820500Y-107442000D01*
%TO.N,/C_AUDIO_L*%
X151972000Y-100156000D02*
X151972000Y-100965000D01*
X151511000Y-99695000D02*
X151972000Y-100156000D01*
X150876000Y-99695000D02*
X151511000Y-99695000D01*
%TO.N,/E_AUDIO_L*%
X149352000Y-98425000D02*
X151972000Y-98425000D01*
%TO.N,/AUDIO_IN_L*%
X150876000Y-97155000D02*
X151511000Y-97155000D01*
X151511000Y-97155000D02*
X151972000Y-96694000D01*
X151972000Y-96694000D02*
X151972000Y-95885000D01*
%TO.N,/VREF*%
X147066000Y-103171000D02*
X147066000Y-111379000D01*
X146304000Y-97536000D02*
X146567000Y-97273000D01*
X146685000Y-111633000D02*
X146939000Y-111633000D01*
X147066000Y-111760000D02*
X147066000Y-111887000D01*
X146304000Y-102616000D02*
X146304000Y-97536000D01*
X147066000Y-111379000D02*
X147066000Y-111506000D01*
X147193000Y-103044000D02*
X147066000Y-103171000D01*
X147066000Y-111506000D02*
X147066000Y-111760000D01*
X146685000Y-111633000D02*
X146812000Y-111633000D01*
X146812000Y-111633000D02*
X147066000Y-111887000D01*
X146939000Y-111633000D02*
X147066000Y-111506000D01*
X144718000Y-111633000D02*
X146685000Y-111633000D01*
X147193000Y-102766500D02*
X146454500Y-102766500D01*
X146812000Y-111633000D02*
X147066000Y-111379000D01*
X146454500Y-102766500D02*
X146304000Y-102616000D01*
X146567000Y-97273000D02*
X147193000Y-97273000D01*
X149668000Y-112903000D02*
X149668000Y-112776000D01*
X147574000Y-112903000D02*
X149668000Y-112903000D01*
X146939000Y-111633000D02*
X147066000Y-111760000D01*
X147066000Y-111887000D02*
X147066000Y-112395000D01*
X147193000Y-95864225D02*
X147193000Y-97527000D01*
X147066000Y-112395000D02*
X147574000Y-112903000D01*
%TO.N,Net-(IC1-Pad1)*%
X142176500Y-108648500D02*
X142303500Y-108521500D01*
X142430500Y-107251500D02*
X144058000Y-107251500D01*
X142176500Y-108648500D02*
X142430500Y-108394500D01*
X142430500Y-108394500D02*
X142430500Y-107251500D01*
X142621000Y-108585000D02*
X142430500Y-108394500D01*
X141478000Y-108982000D02*
X141843000Y-108982000D01*
X142557500Y-108521500D02*
X142621000Y-108585000D01*
X142303500Y-108521500D02*
X142557500Y-108521500D01*
X143129000Y-109093000D02*
X142621000Y-108585000D01*
X141843000Y-108982000D02*
X142176500Y-108648500D01*
X142544000Y-107138000D02*
X142430500Y-107251500D01*
X144718000Y-109093000D02*
X143129000Y-109093000D01*
X142544000Y-105852000D02*
X142544000Y-107138000D01*
X144058000Y-107251500D02*
X144121500Y-107188000D01*
%TO.N,Net-(IC1-Pad7)*%
X152908000Y-108458000D02*
X151995500Y-107545500D01*
X152781000Y-106299000D02*
X152781000Y-105156000D01*
X152309500Y-106553000D02*
X152527000Y-106553000D01*
X151995500Y-107545500D02*
X151995500Y-107442000D01*
X149668000Y-110236000D02*
X151130000Y-110236000D01*
X152130000Y-109236000D02*
X152908000Y-109236000D01*
X152781000Y-105156000D02*
X152527000Y-104902000D01*
X151741500Y-107188000D02*
X151995500Y-107442000D01*
X151995500Y-107442000D02*
X151995500Y-106867000D01*
X152908000Y-109236000D02*
X152908000Y-108458000D01*
X151908000Y-104537000D02*
X151908000Y-103881498D01*
X151995500Y-106867000D02*
X152309500Y-106553000D01*
X152527000Y-104902000D02*
X152273000Y-104902000D01*
X152273000Y-104902000D02*
X151908000Y-104537000D01*
X152527000Y-106553000D02*
X152781000Y-106299000D01*
X151130000Y-110236000D02*
X152130000Y-109236000D01*
X150264500Y-107188000D02*
X151741500Y-107188000D01*
X151894500Y-107190500D02*
X151955500Y-107251500D01*
%TO.N,Net-(R9-Pad1)*%
X141678293Y-106788013D02*
X141478000Y-106988306D01*
X143510000Y-104902000D02*
X142144678Y-104902000D01*
X144098000Y-105490000D02*
X143510000Y-104902000D01*
X142144678Y-104902000D02*
X141678293Y-105368385D01*
X141678293Y-105368385D02*
X141678293Y-106788013D01*
X140528000Y-108900000D02*
X140528000Y-110982000D01*
X141478000Y-106988306D02*
X141478000Y-107950000D01*
X141478000Y-107950000D02*
X140528000Y-108900000D01*
%TO.N,Net-(R10-Pad1)*%
X149352000Y-107704051D02*
X149352000Y-106920981D01*
X149522990Y-106749991D02*
X149522990Y-106746908D01*
X148601466Y-110997994D02*
X148336000Y-110732528D01*
X149851949Y-108204000D02*
X149352000Y-107704051D01*
X149522990Y-106746908D02*
X149810908Y-106458990D01*
X150728487Y-109749663D02*
X151046222Y-109431928D01*
X150264500Y-106008481D02*
X150264500Y-105664000D01*
X149810908Y-106458990D02*
X149813991Y-106458990D01*
X149352000Y-106920981D02*
X149522990Y-106749991D01*
X148336000Y-110732528D02*
X148336000Y-110021642D01*
X151384000Y-111236000D02*
X151145994Y-110997994D01*
X151958000Y-111236000D02*
X151384000Y-111236000D01*
X150622000Y-108204000D02*
X149851949Y-108204000D01*
X151145994Y-110997994D02*
X148601466Y-110997994D01*
X151046222Y-109431928D02*
X151046222Y-108628222D01*
X148607979Y-109749663D02*
X150728487Y-109749663D01*
X151046222Y-108628222D02*
X150622000Y-108204000D01*
X149813991Y-106458990D02*
X150264500Y-106008481D01*
X148336000Y-110021642D02*
X148607979Y-109749663D01*
%TO.N,/MUTE*%
X145948390Y-95250010D02*
X145948390Y-102768390D01*
X149176404Y-99773404D02*
X149527596Y-99773404D01*
X150495000Y-101248892D02*
X149352000Y-102391892D01*
X146688010Y-104898990D02*
X145923000Y-105664000D01*
X149352000Y-102391892D02*
X149352000Y-104751500D01*
X148590000Y-96647000D02*
X148590000Y-99187000D01*
X148844000Y-94742000D02*
X146456400Y-94742000D01*
X149352000Y-95885000D02*
X149352000Y-95250000D01*
X148590000Y-99187000D02*
X149176404Y-99773404D01*
X149527596Y-99773404D02*
X150495000Y-100740809D01*
X146456400Y-94742000D02*
X145948390Y-95250010D01*
X149352000Y-95250000D02*
X148844000Y-94742000D01*
X150495000Y-100740809D02*
X150495000Y-101248892D01*
X149352000Y-95885000D02*
X148590000Y-96647000D01*
X145948390Y-102768390D02*
X146688010Y-103508010D01*
X146688010Y-103508010D02*
X146688010Y-104898990D01*
X149352000Y-104751500D02*
X148439500Y-105664000D01*
%TO.N,/R_CHAN*%
X144272000Y-102997000D02*
X144272000Y-104497500D01*
X143510000Y-102235000D02*
X144272000Y-102997000D01*
X143933500Y-103952000D02*
X144121500Y-104140000D01*
X142544000Y-103952000D02*
X143933500Y-103952000D01*
%TO.N,/L_CHAN*%
X150876000Y-102235000D02*
X150249543Y-102861457D01*
X151050000Y-102409000D02*
X150876000Y-102235000D01*
X150249543Y-102861457D02*
X150249543Y-104125043D01*
X150264500Y-104140000D02*
X151905998Y-105781498D01*
X150602912Y-103801588D02*
X150264500Y-104140000D01*
X150249543Y-104125043D02*
X150264500Y-104140000D01*
X151905998Y-105781498D02*
X151908000Y-105781498D01*
%TD*%
%TA.AperFunction,Conductor*%
%TO.N,GND*%
G36*
X146551760Y-93975306D02*
G01*
X146569296Y-94009722D01*
X146578809Y-94069780D01*
X146578810Y-94069784D01*
X146579580Y-94074644D01*
X146581814Y-94079028D01*
X146581814Y-94079029D01*
X146633291Y-94180058D01*
X146635723Y-94184832D01*
X146723168Y-94272277D01*
X146727549Y-94274509D01*
X146727550Y-94274510D01*
X146818210Y-94320703D01*
X146833356Y-94328420D01*
X146838213Y-94329189D01*
X146838215Y-94329190D01*
X146922351Y-94342516D01*
X146922356Y-94342516D01*
X146924778Y-94342900D01*
X147461222Y-94342900D01*
X147463644Y-94342516D01*
X147463649Y-94342516D01*
X147547785Y-94329190D01*
X147547787Y-94329189D01*
X147552644Y-94328420D01*
X147567790Y-94320703D01*
X147658450Y-94274510D01*
X147658451Y-94274509D01*
X147662832Y-94272277D01*
X147750277Y-94184832D01*
X147752710Y-94180058D01*
X147804186Y-94079029D01*
X147804186Y-94079028D01*
X147806420Y-94074644D01*
X147807190Y-94069784D01*
X147807191Y-94069780D01*
X147816704Y-94009722D01*
X147841698Y-93968936D01*
X147878434Y-93957000D01*
X150471761Y-93957000D01*
X150515955Y-93975306D01*
X150534261Y-94019500D01*
X150515955Y-94063694D01*
X150508351Y-94069985D01*
X150506321Y-94071033D01*
X150503483Y-94073508D01*
X150503481Y-94073510D01*
X150390075Y-94172440D01*
X150387237Y-94174916D01*
X150385071Y-94177998D01*
X150385070Y-94177999D01*
X150329449Y-94257140D01*
X150296371Y-94304206D01*
X150274423Y-94360500D01*
X150240445Y-94447650D01*
X150238968Y-94451438D01*
X150238476Y-94455175D01*
X150221500Y-94584120D01*
X150218341Y-94608113D01*
X150235682Y-94765185D01*
X150236976Y-94768722D01*
X150236977Y-94768725D01*
X150255611Y-94819645D01*
X150289989Y-94913587D01*
X150304315Y-94934906D01*
X150358006Y-95014806D01*
X150378128Y-95044751D01*
X150495010Y-95151105D01*
X150498319Y-95152902D01*
X150498321Y-95152903D01*
X150596687Y-95206312D01*
X150633886Y-95226509D01*
X150637533Y-95227466D01*
X150637536Y-95227467D01*
X150775645Y-95263699D01*
X150786741Y-95266610D01*
X150871123Y-95267935D01*
X150940979Y-95269033D01*
X150940981Y-95269033D01*
X150944748Y-95269092D01*
X151098786Y-95233813D01*
X151239963Y-95162808D01*
X151247059Y-95156748D01*
X151357262Y-95062625D01*
X151360127Y-95060178D01*
X151452343Y-94931847D01*
X151458426Y-94916716D01*
X151509881Y-94788718D01*
X151509882Y-94788714D01*
X151511285Y-94785224D01*
X151533551Y-94628774D01*
X151533695Y-94615000D01*
X151514710Y-94458118D01*
X151484696Y-94378686D01*
X151460184Y-94313818D01*
X151458852Y-94310293D01*
X151369344Y-94180058D01*
X151251355Y-94074934D01*
X151248026Y-94073171D01*
X151244932Y-94071021D01*
X151246292Y-94069064D01*
X151220491Y-94037888D01*
X151224985Y-93990264D01*
X151261837Y-93959766D01*
X151280225Y-93957000D01*
X154531194Y-93957000D01*
X154575388Y-93975306D01*
X154618784Y-94018702D01*
X154637090Y-94062896D01*
X154637090Y-104427786D01*
X154618784Y-104471980D01*
X154617593Y-104473171D01*
X154573399Y-104491477D01*
X154529205Y-104473171D01*
X154510899Y-104428977D01*
X154510899Y-104416442D01*
X154509948Y-104411658D01*
X154503229Y-104377878D01*
X154502028Y-104371840D01*
X154468234Y-104321264D01*
X154417658Y-104287470D01*
X154373057Y-104278598D01*
X154300076Y-104278598D01*
X153479000Y-104278599D01*
X153434806Y-104260293D01*
X153416500Y-104216099D01*
X153416500Y-102747306D01*
X153434806Y-102703112D01*
X153954880Y-102183037D01*
X153964350Y-102175265D01*
X153975366Y-102167904D01*
X153975367Y-102167903D01*
X153980484Y-102164484D01*
X154036734Y-102080301D01*
X154051500Y-102006067D01*
X154056486Y-101981000D01*
X154052701Y-101961971D01*
X154051500Y-101949778D01*
X154051500Y-101650434D01*
X154069806Y-101606240D01*
X154104222Y-101588704D01*
X154164280Y-101579191D01*
X154164284Y-101579190D01*
X154169144Y-101578420D01*
X154173529Y-101576186D01*
X154274950Y-101524510D01*
X154274951Y-101524509D01*
X154279332Y-101522277D01*
X154366777Y-101434832D01*
X154378868Y-101411103D01*
X154420686Y-101329029D01*
X154420686Y-101329028D01*
X154422920Y-101324644D01*
X154425657Y-101307365D01*
X154437016Y-101235649D01*
X154437016Y-101235644D01*
X154437400Y-101233222D01*
X154437400Y-100696778D01*
X154422920Y-100605356D01*
X154414901Y-100589617D01*
X154369010Y-100499550D01*
X154369009Y-100499549D01*
X154366777Y-100495168D01*
X154279332Y-100407723D01*
X154274951Y-100405491D01*
X154274950Y-100405490D01*
X154173529Y-100353814D01*
X154173528Y-100353814D01*
X154169144Y-100351580D01*
X154164284Y-100350810D01*
X154164280Y-100350809D01*
X154104222Y-100341296D01*
X154063436Y-100316302D01*
X154051500Y-100279566D01*
X154051500Y-99110434D01*
X154069806Y-99066240D01*
X154104222Y-99048704D01*
X154164280Y-99039191D01*
X154164284Y-99039190D01*
X154169144Y-99038420D01*
X154173529Y-99036186D01*
X154274950Y-98984510D01*
X154274951Y-98984509D01*
X154279332Y-98982277D01*
X154366777Y-98894832D01*
X154380898Y-98867119D01*
X154420686Y-98789029D01*
X154420686Y-98789028D01*
X154422920Y-98784644D01*
X154423690Y-98779785D01*
X154437016Y-98695649D01*
X154437016Y-98695644D01*
X154437400Y-98693222D01*
X154437400Y-98156778D01*
X154433174Y-98130092D01*
X154423690Y-98070215D01*
X154423689Y-98070213D01*
X154422920Y-98065356D01*
X154420686Y-98060971D01*
X154369010Y-97959550D01*
X154369009Y-97959549D01*
X154366777Y-97955168D01*
X154279332Y-97867723D01*
X154274951Y-97865491D01*
X154274950Y-97865490D01*
X154173529Y-97813814D01*
X154173528Y-97813814D01*
X154169144Y-97811580D01*
X154164284Y-97810810D01*
X154164280Y-97810809D01*
X154104222Y-97801296D01*
X154063436Y-97776302D01*
X154051500Y-97739566D01*
X154051500Y-96570434D01*
X154069806Y-96526240D01*
X154104222Y-96508704D01*
X154164280Y-96499191D01*
X154164284Y-96499190D01*
X154169144Y-96498420D01*
X154173529Y-96496186D01*
X154274950Y-96444510D01*
X154274951Y-96444509D01*
X154279332Y-96442277D01*
X154366777Y-96354832D01*
X154380898Y-96327119D01*
X154420686Y-96249029D01*
X154420686Y-96249028D01*
X154422920Y-96244644D01*
X154425413Y-96228907D01*
X154437016Y-96155649D01*
X154437016Y-96155644D01*
X154437400Y-96153222D01*
X154437400Y-95616778D01*
X154431622Y-95580293D01*
X154423690Y-95530215D01*
X154423689Y-95530213D01*
X154422920Y-95525356D01*
X154420686Y-95520971D01*
X154369010Y-95419550D01*
X154369009Y-95419549D01*
X154366777Y-95415168D01*
X154279332Y-95327723D01*
X154274951Y-95325491D01*
X154274950Y-95325490D01*
X154173529Y-95273814D01*
X154173528Y-95273814D01*
X154169144Y-95271580D01*
X154164287Y-95270811D01*
X154164285Y-95270810D01*
X154080149Y-95257484D01*
X154080144Y-95257484D01*
X154077722Y-95257100D01*
X153516278Y-95257100D01*
X153513856Y-95257484D01*
X153513851Y-95257484D01*
X153429715Y-95270810D01*
X153429713Y-95270811D01*
X153424856Y-95271580D01*
X153420472Y-95273814D01*
X153420471Y-95273814D01*
X153319050Y-95325490D01*
X153319049Y-95325491D01*
X153314668Y-95327723D01*
X153227223Y-95415168D01*
X153224991Y-95419549D01*
X153224990Y-95419550D01*
X153173314Y-95520971D01*
X153171080Y-95525356D01*
X153170311Y-95530213D01*
X153170310Y-95530215D01*
X153162379Y-95580293D01*
X153156600Y-95616778D01*
X153156600Y-96153222D01*
X153156984Y-96155644D01*
X153156984Y-96155649D01*
X153168587Y-96228907D01*
X153171080Y-96244644D01*
X153173314Y-96249028D01*
X153173314Y-96249029D01*
X153213103Y-96327119D01*
X153227223Y-96354832D01*
X153314668Y-96442277D01*
X153319049Y-96444509D01*
X153319050Y-96444510D01*
X153420471Y-96496186D01*
X153424856Y-96498420D01*
X153429716Y-96499190D01*
X153429720Y-96499191D01*
X153489778Y-96508704D01*
X153530564Y-96533698D01*
X153542500Y-96570434D01*
X153542500Y-97739566D01*
X153524194Y-97783760D01*
X153489778Y-97801296D01*
X153429720Y-97810809D01*
X153429716Y-97810810D01*
X153424856Y-97811580D01*
X153420472Y-97813814D01*
X153420471Y-97813814D01*
X153319050Y-97865490D01*
X153319049Y-97865491D01*
X153314668Y-97867723D01*
X153227223Y-97955168D01*
X153224991Y-97959549D01*
X153224990Y-97959550D01*
X153173314Y-98060971D01*
X153171080Y-98065356D01*
X153170311Y-98070213D01*
X153170310Y-98070215D01*
X153160827Y-98130092D01*
X153156600Y-98156778D01*
X153156600Y-98693222D01*
X153156984Y-98695644D01*
X153156984Y-98695649D01*
X153170310Y-98779785D01*
X153171080Y-98784644D01*
X153173314Y-98789028D01*
X153173314Y-98789029D01*
X153213103Y-98867119D01*
X153227223Y-98894832D01*
X153314668Y-98982277D01*
X153319049Y-98984509D01*
X153319050Y-98984510D01*
X153420471Y-99036186D01*
X153424856Y-99038420D01*
X153429716Y-99039190D01*
X153429720Y-99039191D01*
X153489778Y-99048704D01*
X153530564Y-99073698D01*
X153542500Y-99110434D01*
X153542500Y-100279566D01*
X153524194Y-100323760D01*
X153489778Y-100341296D01*
X153429720Y-100350809D01*
X153429716Y-100350810D01*
X153424856Y-100351580D01*
X153420472Y-100353814D01*
X153420471Y-100353814D01*
X153319050Y-100405490D01*
X153319049Y-100405491D01*
X153314668Y-100407723D01*
X153227223Y-100495168D01*
X153224991Y-100499549D01*
X153224990Y-100499550D01*
X153179099Y-100589617D01*
X153171080Y-100605356D01*
X153156600Y-100696778D01*
X153156600Y-101233222D01*
X153156984Y-101235644D01*
X153156984Y-101235649D01*
X153168343Y-101307365D01*
X153171080Y-101324644D01*
X153173314Y-101329028D01*
X153173314Y-101329029D01*
X153215133Y-101411103D01*
X153227223Y-101434832D01*
X153314668Y-101522277D01*
X153319049Y-101524509D01*
X153319050Y-101524510D01*
X153420471Y-101576186D01*
X153424856Y-101578420D01*
X153429716Y-101579190D01*
X153429720Y-101579191D01*
X153489778Y-101588704D01*
X153530564Y-101613698D01*
X153542500Y-101650434D01*
X153542500Y-101849695D01*
X153524194Y-101893889D01*
X153004117Y-102413965D01*
X152994647Y-102421737D01*
X152983634Y-102429096D01*
X152978516Y-102432516D01*
X152964319Y-102453763D01*
X152964316Y-102453766D01*
X152950129Y-102474998D01*
X152925688Y-102511577D01*
X152925687Y-102511579D01*
X152925406Y-102512000D01*
X152922266Y-102516699D01*
X152921065Y-102522738D01*
X152921064Y-102522740D01*
X152910595Y-102575375D01*
X152910595Y-102575376D01*
X152902514Y-102616000D01*
X152903715Y-102622038D01*
X152906299Y-102635029D01*
X152907500Y-102647222D01*
X152907500Y-104771694D01*
X152889194Y-104815888D01*
X152845000Y-104834194D01*
X152800806Y-104815888D01*
X152729035Y-104744117D01*
X152721263Y-104734647D01*
X152713904Y-104723634D01*
X152713903Y-104723633D01*
X152710484Y-104718516D01*
X152701119Y-104712258D01*
X152689239Y-104704320D01*
X152689236Y-104704318D01*
X152689234Y-104704316D01*
X152626301Y-104662266D01*
X152606830Y-104658393D01*
X152552067Y-104647500D01*
X152527000Y-104642514D01*
X152520962Y-104643715D01*
X152507971Y-104646299D01*
X152495778Y-104647500D01*
X152404306Y-104647500D01*
X152360112Y-104629194D01*
X152272009Y-104541091D01*
X152253703Y-104496897D01*
X152272009Y-104452703D01*
X152316203Y-104434397D01*
X152373056Y-104434397D01*
X152376065Y-104433798D01*
X152376070Y-104433798D01*
X152411620Y-104426727D01*
X152417658Y-104425526D01*
X152468234Y-104391732D01*
X152502028Y-104341156D01*
X152510900Y-104296555D01*
X152510899Y-103466442D01*
X152509009Y-103456935D01*
X152503229Y-103427878D01*
X152503228Y-103427875D01*
X152502028Y-103421840D01*
X152468234Y-103371264D01*
X152417658Y-103337470D01*
X152373057Y-103328598D01*
X151908076Y-103328598D01*
X151442944Y-103328599D01*
X151439935Y-103329198D01*
X151439930Y-103329198D01*
X151404380Y-103336269D01*
X151398342Y-103337470D01*
X151347766Y-103371264D01*
X151313972Y-103421840D01*
X151305100Y-103466441D01*
X151305101Y-104296554D01*
X151305700Y-104299563D01*
X151305700Y-104299568D01*
X151311033Y-104326381D01*
X151313972Y-104341156D01*
X151347766Y-104391732D01*
X151398342Y-104425526D01*
X151442943Y-104434398D01*
X151591000Y-104434398D01*
X151635194Y-104452704D01*
X151653500Y-104496898D01*
X151653500Y-104505778D01*
X151652299Y-104517971D01*
X151648514Y-104537000D01*
X151668266Y-104636301D01*
X151710316Y-104699234D01*
X151710319Y-104699237D01*
X151724516Y-104720484D01*
X151729633Y-104723903D01*
X151729634Y-104723904D01*
X151740647Y-104731263D01*
X151750117Y-104739035D01*
X152070965Y-105059883D01*
X152078737Y-105069353D01*
X152086096Y-105080366D01*
X152089516Y-105085484D01*
X152094633Y-105088903D01*
X152110761Y-105099680D01*
X152110764Y-105099682D01*
X152110766Y-105099684D01*
X152126506Y-105110201D01*
X152132388Y-105114131D01*
X152158964Y-105153904D01*
X152149632Y-105200821D01*
X152109859Y-105227397D01*
X152097665Y-105228598D01*
X151769731Y-105228599D01*
X151738904Y-105228599D01*
X151694710Y-105210293D01*
X150923206Y-104438788D01*
X150904900Y-104394594D01*
X150904900Y-103871778D01*
X150903403Y-103862322D01*
X150891190Y-103785215D01*
X150891189Y-103785213D01*
X150890420Y-103780356D01*
X150848203Y-103697500D01*
X150836510Y-103674550D01*
X150836509Y-103674549D01*
X150834277Y-103670168D01*
X150799172Y-103635063D01*
X150791399Y-103625592D01*
X150786396Y-103618104D01*
X150778905Y-103613098D01*
X150769437Y-103605328D01*
X150746832Y-103582723D01*
X150742451Y-103580491D01*
X150742450Y-103580490D01*
X150641029Y-103528814D01*
X150641028Y-103528814D01*
X150636644Y-103526580D01*
X150631784Y-103525810D01*
X150631780Y-103525809D01*
X150556765Y-103513927D01*
X150515979Y-103488933D01*
X150504043Y-103452197D01*
X150504043Y-102992763D01*
X150522349Y-102948569D01*
X150601017Y-102869901D01*
X150645211Y-102851595D01*
X150661071Y-102853641D01*
X150734139Y-102872810D01*
X150786741Y-102886610D01*
X150871123Y-102887935D01*
X150940979Y-102889033D01*
X150940981Y-102889033D01*
X150944748Y-102889092D01*
X151098786Y-102853813D01*
X151239963Y-102782808D01*
X151253666Y-102771105D01*
X151357262Y-102682625D01*
X151360127Y-102680178D01*
X151452343Y-102551847D01*
X151458426Y-102536716D01*
X151509881Y-102408718D01*
X151509882Y-102408714D01*
X151511285Y-102405224D01*
X151533551Y-102248774D01*
X151533695Y-102235000D01*
X151514710Y-102078118D01*
X151507951Y-102060229D01*
X151460184Y-101933818D01*
X151458852Y-101930293D01*
X151369344Y-101800058D01*
X151251355Y-101694934D01*
X151111697Y-101620989D01*
X150958431Y-101582491D01*
X150954666Y-101582471D01*
X150954664Y-101582471D01*
X150876562Y-101582063D01*
X150800406Y-101581664D01*
X150796742Y-101582544D01*
X150796739Y-101582544D01*
X150743407Y-101595348D01*
X150649720Y-101617840D01*
X150602475Y-101610357D01*
X150574358Y-101571657D01*
X150581841Y-101524411D01*
X150590937Y-101512873D01*
X150652883Y-101450927D01*
X150662353Y-101443155D01*
X150673366Y-101435796D01*
X150673367Y-101435795D01*
X150678484Y-101432376D01*
X150686540Y-101420320D01*
X150692680Y-101411131D01*
X150692682Y-101411128D01*
X150692684Y-101411126D01*
X150734734Y-101348193D01*
X150739418Y-101324644D01*
X150749500Y-101273959D01*
X150749500Y-101273955D01*
X150754485Y-101248892D01*
X150750701Y-101229867D01*
X150749500Y-101217675D01*
X150749500Y-100772031D01*
X150750701Y-100759838D01*
X150753285Y-100746847D01*
X150754486Y-100740809D01*
X150747466Y-100705514D01*
X150734734Y-100641508D01*
X150678484Y-100557325D01*
X150673366Y-100553905D01*
X150662350Y-100546544D01*
X150652880Y-100538772D01*
X150472062Y-100357953D01*
X150453756Y-100313759D01*
X150472062Y-100269565D01*
X150516256Y-100251259D01*
X150546078Y-100258833D01*
X150633886Y-100306509D01*
X150637533Y-100307466D01*
X150637536Y-100307467D01*
X150741160Y-100334652D01*
X150786741Y-100346610D01*
X150871123Y-100347935D01*
X150940979Y-100349033D01*
X150940981Y-100349033D01*
X150944748Y-100349092D01*
X151098786Y-100313813D01*
X151239963Y-100242808D01*
X151247203Y-100236625D01*
X151357262Y-100142625D01*
X151360127Y-100140178D01*
X151379744Y-100112878D01*
X151415931Y-100062520D01*
X151456586Y-100037313D01*
X151503158Y-100048237D01*
X151510880Y-100054798D01*
X151692513Y-100236431D01*
X151710819Y-100280625D01*
X151692513Y-100324819D01*
X151658097Y-100342355D01*
X151631235Y-100346610D01*
X151604715Y-100350810D01*
X151604713Y-100350811D01*
X151599856Y-100351580D01*
X151595472Y-100353814D01*
X151595471Y-100353814D01*
X151494050Y-100405490D01*
X151494049Y-100405491D01*
X151489668Y-100407723D01*
X151402223Y-100495168D01*
X151399991Y-100499549D01*
X151399990Y-100499550D01*
X151354099Y-100589617D01*
X151346080Y-100605356D01*
X151331600Y-100696778D01*
X151331600Y-101233222D01*
X151331984Y-101235644D01*
X151331984Y-101235649D01*
X151343343Y-101307365D01*
X151346080Y-101324644D01*
X151348314Y-101329028D01*
X151348314Y-101329029D01*
X151390133Y-101411103D01*
X151402223Y-101434832D01*
X151489668Y-101522277D01*
X151494049Y-101524509D01*
X151494050Y-101524510D01*
X151595471Y-101576186D01*
X151599856Y-101578420D01*
X151604713Y-101579189D01*
X151604715Y-101579190D01*
X151688851Y-101592516D01*
X151688856Y-101592516D01*
X151691278Y-101592900D01*
X152252722Y-101592900D01*
X152255144Y-101592516D01*
X152255149Y-101592516D01*
X152339285Y-101579190D01*
X152339287Y-101579189D01*
X152344144Y-101578420D01*
X152348529Y-101576186D01*
X152449950Y-101524510D01*
X152449951Y-101524509D01*
X152454332Y-101522277D01*
X152541777Y-101434832D01*
X152553868Y-101411103D01*
X152595686Y-101329029D01*
X152595686Y-101329028D01*
X152597920Y-101324644D01*
X152600657Y-101307365D01*
X152612016Y-101235649D01*
X152612016Y-101235644D01*
X152612400Y-101233222D01*
X152612400Y-100696778D01*
X152597920Y-100605356D01*
X152589901Y-100589617D01*
X152544010Y-100499550D01*
X152544009Y-100499549D01*
X152541777Y-100495168D01*
X152454332Y-100407723D01*
X152449951Y-100405491D01*
X152449950Y-100405490D01*
X152348529Y-100353814D01*
X152348528Y-100353814D01*
X152344144Y-100351580D01*
X152339284Y-100350810D01*
X152339280Y-100350809D01*
X152279222Y-100341296D01*
X152238436Y-100316302D01*
X152226500Y-100279566D01*
X152226500Y-100187217D01*
X152227701Y-100175025D01*
X152230284Y-100162038D01*
X152231485Y-100156000D01*
X152226500Y-100130937D01*
X152226500Y-100130933D01*
X152211734Y-100056699D01*
X152204726Y-100046210D01*
X152158903Y-99977633D01*
X152155484Y-99972516D01*
X152150366Y-99969096D01*
X152139350Y-99961735D01*
X152129880Y-99953963D01*
X151713035Y-99537117D01*
X151705263Y-99527647D01*
X151697904Y-99516634D01*
X151697903Y-99516633D01*
X151694484Y-99511516D01*
X151685119Y-99505258D01*
X151673239Y-99497320D01*
X151673236Y-99497318D01*
X151673234Y-99497316D01*
X151610301Y-99455266D01*
X151511000Y-99435514D01*
X151511433Y-99433336D01*
X151475396Y-99418409D01*
X151461125Y-99396308D01*
X151460183Y-99393816D01*
X151458852Y-99390293D01*
X151369344Y-99260058D01*
X151251355Y-99154934D01*
X151111697Y-99080989D01*
X150958431Y-99042491D01*
X150954666Y-99042471D01*
X150954664Y-99042471D01*
X150876562Y-99042063D01*
X150800406Y-99041664D01*
X150796742Y-99042544D01*
X150796739Y-99042544D01*
X150743407Y-99055348D01*
X150646746Y-99078554D01*
X150643404Y-99080279D01*
X150643401Y-99080280D01*
X150638614Y-99082751D01*
X150506321Y-99151033D01*
X150472013Y-99180962D01*
X150392358Y-99250449D01*
X150387237Y-99254916D01*
X150385071Y-99257998D01*
X150385070Y-99257999D01*
X150365179Y-99286301D01*
X150296371Y-99384206D01*
X150267332Y-99458687D01*
X150240445Y-99527650D01*
X150238968Y-99531438D01*
X150238476Y-99535175D01*
X150220159Y-99674306D01*
X150218341Y-99688113D01*
X150235682Y-99845185D01*
X150236976Y-99848722D01*
X150236977Y-99848725D01*
X150268783Y-99935638D01*
X150289989Y-99993587D01*
X150300829Y-100009718D01*
X150304677Y-100015445D01*
X150314132Y-100062337D01*
X150287660Y-100102180D01*
X150240768Y-100111635D01*
X150208607Y-100094498D01*
X149729631Y-99615521D01*
X149721859Y-99606051D01*
X149714500Y-99595038D01*
X149714499Y-99595037D01*
X149711080Y-99589920D01*
X149701715Y-99583662D01*
X149689835Y-99575724D01*
X149689832Y-99575722D01*
X149689830Y-99575720D01*
X149626897Y-99533670D01*
X149527596Y-99513918D01*
X149521558Y-99515119D01*
X149508567Y-99517703D01*
X149496374Y-99518904D01*
X149307709Y-99518904D01*
X149263515Y-99500598D01*
X148862806Y-99099888D01*
X148844500Y-99055694D01*
X148844500Y-98987362D01*
X148862806Y-98943168D01*
X148907000Y-98924862D01*
X148949063Y-98941135D01*
X148971010Y-98961105D01*
X148974319Y-98962902D01*
X148974321Y-98962903D01*
X149014116Y-98984510D01*
X149109886Y-99036509D01*
X149113533Y-99037466D01*
X149113536Y-99037467D01*
X149223213Y-99066240D01*
X149262741Y-99076610D01*
X149347123Y-99077935D01*
X149416979Y-99079033D01*
X149416981Y-99079033D01*
X149420748Y-99079092D01*
X149574786Y-99043813D01*
X149715963Y-98972808D01*
X149729666Y-98961105D01*
X149833262Y-98872625D01*
X149836127Y-98870178D01*
X149928343Y-98741847D01*
X149937653Y-98718688D01*
X149971120Y-98684512D01*
X149995642Y-98679500D01*
X151276046Y-98679500D01*
X151320240Y-98697806D01*
X151337776Y-98732222D01*
X151345309Y-98779780D01*
X151345310Y-98779784D01*
X151346080Y-98784644D01*
X151348314Y-98789028D01*
X151348314Y-98789029D01*
X151388103Y-98867119D01*
X151402223Y-98894832D01*
X151489668Y-98982277D01*
X151494049Y-98984509D01*
X151494050Y-98984510D01*
X151595471Y-99036186D01*
X151599856Y-99038420D01*
X151604713Y-99039189D01*
X151604715Y-99039190D01*
X151688851Y-99052516D01*
X151688856Y-99052516D01*
X151691278Y-99052900D01*
X152252722Y-99052900D01*
X152255144Y-99052516D01*
X152255149Y-99052516D01*
X152339285Y-99039190D01*
X152339287Y-99039189D01*
X152344144Y-99038420D01*
X152348529Y-99036186D01*
X152449950Y-98984510D01*
X152449951Y-98984509D01*
X152454332Y-98982277D01*
X152541777Y-98894832D01*
X152555898Y-98867119D01*
X152595686Y-98789029D01*
X152595686Y-98789028D01*
X152597920Y-98784644D01*
X152598690Y-98779785D01*
X152612016Y-98695649D01*
X152612016Y-98695644D01*
X152612400Y-98693222D01*
X152612400Y-98156778D01*
X152608174Y-98130092D01*
X152598690Y-98070215D01*
X152598689Y-98070213D01*
X152597920Y-98065356D01*
X152595686Y-98060971D01*
X152544010Y-97959550D01*
X152544009Y-97959549D01*
X152541777Y-97955168D01*
X152454332Y-97867723D01*
X152449951Y-97865491D01*
X152449950Y-97865490D01*
X152348529Y-97813814D01*
X152348528Y-97813814D01*
X152344144Y-97811580D01*
X152339287Y-97810811D01*
X152339285Y-97810810D01*
X152255149Y-97797484D01*
X152255144Y-97797484D01*
X152252722Y-97797100D01*
X151691278Y-97797100D01*
X151688856Y-97797484D01*
X151688851Y-97797484D01*
X151604715Y-97810810D01*
X151604713Y-97810811D01*
X151599856Y-97811580D01*
X151595472Y-97813814D01*
X151595471Y-97813814D01*
X151494050Y-97865490D01*
X151494049Y-97865491D01*
X151489668Y-97867723D01*
X151402223Y-97955168D01*
X151399991Y-97959549D01*
X151399990Y-97959550D01*
X151348314Y-98060971D01*
X151346080Y-98065356D01*
X151345310Y-98070216D01*
X151345309Y-98070220D01*
X151337776Y-98117778D01*
X151312782Y-98158564D01*
X151276046Y-98170500D01*
X149997020Y-98170500D01*
X149952826Y-98152194D01*
X149938555Y-98130092D01*
X149936184Y-98123818D01*
X149934852Y-98120293D01*
X149845344Y-97990058D01*
X149727355Y-97884934D01*
X149587697Y-97810989D01*
X149434431Y-97772491D01*
X149430666Y-97772471D01*
X149430664Y-97772471D01*
X149352562Y-97772063D01*
X149276406Y-97771664D01*
X149272742Y-97772544D01*
X149272739Y-97772544D01*
X149214667Y-97786486D01*
X149122746Y-97808554D01*
X149119404Y-97810279D01*
X149119401Y-97810280D01*
X149094707Y-97823026D01*
X148982321Y-97881033D01*
X148979483Y-97883508D01*
X148979484Y-97883508D01*
X148948086Y-97910898D01*
X148902749Y-97926155D01*
X148859902Y-97904886D01*
X148844500Y-97863800D01*
X148844500Y-97148113D01*
X150218341Y-97148113D01*
X150235682Y-97305185D01*
X150236976Y-97308722D01*
X150236977Y-97308725D01*
X150273855Y-97409499D01*
X150289989Y-97453587D01*
X150378128Y-97584751D01*
X150495010Y-97691105D01*
X150498319Y-97692902D01*
X150498321Y-97692903D01*
X150584263Y-97739566D01*
X150633886Y-97766509D01*
X150637533Y-97767466D01*
X150637536Y-97767467D01*
X150766485Y-97801296D01*
X150786741Y-97806610D01*
X150871123Y-97807935D01*
X150940979Y-97809033D01*
X150940981Y-97809033D01*
X150944748Y-97809092D01*
X151098786Y-97773813D01*
X151239963Y-97702808D01*
X151253666Y-97691105D01*
X151357262Y-97602625D01*
X151360127Y-97600178D01*
X151452343Y-97471847D01*
X151460131Y-97452473D01*
X151493600Y-97418296D01*
X151511049Y-97414730D01*
X151511000Y-97414486D01*
X151610301Y-97394734D01*
X151673234Y-97352684D01*
X151673236Y-97352682D01*
X151673239Y-97352680D01*
X151689367Y-97341903D01*
X151694484Y-97338484D01*
X151701010Y-97328718D01*
X151705263Y-97322353D01*
X151713035Y-97312883D01*
X152129880Y-96896037D01*
X152139350Y-96888265D01*
X152150366Y-96880904D01*
X152150367Y-96880903D01*
X152155484Y-96877484D01*
X152174716Y-96848701D01*
X152208314Y-96798420D01*
X152208315Y-96798418D01*
X152211734Y-96793301D01*
X152226500Y-96719067D01*
X152226500Y-96719063D01*
X152231485Y-96694000D01*
X152227701Y-96674975D01*
X152226500Y-96662783D01*
X152226500Y-96570434D01*
X152244806Y-96526240D01*
X152279222Y-96508704D01*
X152339280Y-96499191D01*
X152339284Y-96499190D01*
X152344144Y-96498420D01*
X152348529Y-96496186D01*
X152449950Y-96444510D01*
X152449951Y-96444509D01*
X152454332Y-96442277D01*
X152541777Y-96354832D01*
X152555898Y-96327119D01*
X152595686Y-96249029D01*
X152595686Y-96249028D01*
X152597920Y-96244644D01*
X152600413Y-96228907D01*
X152612016Y-96155649D01*
X152612016Y-96155644D01*
X152612400Y-96153222D01*
X152612400Y-95616778D01*
X152606622Y-95580293D01*
X152598690Y-95530215D01*
X152598689Y-95530213D01*
X152597920Y-95525356D01*
X152595686Y-95520971D01*
X152544010Y-95419550D01*
X152544009Y-95419549D01*
X152541777Y-95415168D01*
X152454332Y-95327723D01*
X152449951Y-95325491D01*
X152449950Y-95325490D01*
X152348529Y-95273814D01*
X152348528Y-95273814D01*
X152344144Y-95271580D01*
X152339287Y-95270811D01*
X152339285Y-95270810D01*
X152255149Y-95257484D01*
X152255144Y-95257484D01*
X152252722Y-95257100D01*
X151691278Y-95257100D01*
X151688856Y-95257484D01*
X151688851Y-95257484D01*
X151604715Y-95270810D01*
X151604713Y-95270811D01*
X151599856Y-95271580D01*
X151595472Y-95273814D01*
X151595471Y-95273814D01*
X151494050Y-95325490D01*
X151494049Y-95325491D01*
X151489668Y-95327723D01*
X151402223Y-95415168D01*
X151399991Y-95419549D01*
X151399990Y-95419550D01*
X151348314Y-95520971D01*
X151346080Y-95525356D01*
X151345311Y-95530213D01*
X151345310Y-95530215D01*
X151337379Y-95580293D01*
X151331600Y-95616778D01*
X151331600Y-96153222D01*
X151331984Y-96155644D01*
X151331984Y-96155649D01*
X151343587Y-96228907D01*
X151346080Y-96244644D01*
X151348314Y-96249028D01*
X151348314Y-96249029D01*
X151388103Y-96327119D01*
X151402223Y-96354832D01*
X151489668Y-96442277D01*
X151494049Y-96444509D01*
X151494050Y-96444510D01*
X151595471Y-96496186D01*
X151599856Y-96498420D01*
X151604713Y-96499189D01*
X151604715Y-96499190D01*
X151630678Y-96503302D01*
X151658097Y-96507645D01*
X151698882Y-96532638D01*
X151710050Y-96579152D01*
X151692513Y-96613569D01*
X151510742Y-96795340D01*
X151466548Y-96813646D01*
X151422354Y-96795340D01*
X151415040Y-96786546D01*
X151371479Y-96723165D01*
X151369344Y-96720058D01*
X151251355Y-96614934D01*
X151111697Y-96540989D01*
X150958431Y-96502491D01*
X150954666Y-96502471D01*
X150954664Y-96502471D01*
X150876562Y-96502063D01*
X150800406Y-96501664D01*
X150796742Y-96502544D01*
X150796739Y-96502544D01*
X150743407Y-96515348D01*
X150646746Y-96538554D01*
X150643404Y-96540279D01*
X150643401Y-96540280D01*
X150584980Y-96570434D01*
X150506321Y-96611033D01*
X150472013Y-96640962D01*
X150411214Y-96694000D01*
X150387237Y-96714916D01*
X150385071Y-96717998D01*
X150385070Y-96717999D01*
X150365179Y-96746301D01*
X150296371Y-96844206D01*
X150238968Y-96991438D01*
X150238476Y-96995175D01*
X150226056Y-97089516D01*
X150218341Y-97148113D01*
X148844500Y-97148113D01*
X148844500Y-96778306D01*
X148862806Y-96734112D01*
X149077017Y-96519901D01*
X149121211Y-96501595D01*
X149137071Y-96503641D01*
X149194682Y-96518755D01*
X149262741Y-96536610D01*
X149347123Y-96537935D01*
X149416979Y-96539033D01*
X149416981Y-96539033D01*
X149420748Y-96539092D01*
X149574786Y-96503813D01*
X149715963Y-96432808D01*
X149729666Y-96421105D01*
X149833262Y-96332625D01*
X149836127Y-96330178D01*
X149928343Y-96201847D01*
X149934426Y-96186716D01*
X149985881Y-96058718D01*
X149985882Y-96058714D01*
X149987285Y-96055224D01*
X150009551Y-95898774D01*
X150009695Y-95885000D01*
X149990710Y-95728118D01*
X149948639Y-95616778D01*
X149936184Y-95583818D01*
X149934852Y-95580293D01*
X149845344Y-95450058D01*
X149727355Y-95344934D01*
X149719988Y-95341033D01*
X149643539Y-95300556D01*
X149613047Y-95263699D01*
X149611202Y-95251425D01*
X149611485Y-95250000D01*
X149606500Y-95224937D01*
X149606500Y-95224933D01*
X149591734Y-95150699D01*
X149571880Y-95120985D01*
X149538903Y-95071633D01*
X149535484Y-95066516D01*
X149521421Y-95057119D01*
X149519350Y-95055735D01*
X149509880Y-95047963D01*
X149046035Y-94584117D01*
X149038263Y-94574647D01*
X149030904Y-94563634D01*
X149030903Y-94563633D01*
X149027484Y-94558516D01*
X149018119Y-94552258D01*
X149006239Y-94544320D01*
X149006235Y-94544317D01*
X149006234Y-94544316D01*
X148943301Y-94502266D01*
X148844000Y-94482514D01*
X148837962Y-94483715D01*
X148824971Y-94486299D01*
X148812778Y-94487500D01*
X146487622Y-94487500D01*
X146475429Y-94486299D01*
X146462438Y-94483715D01*
X146456400Y-94482514D01*
X146357099Y-94502266D01*
X146351982Y-94505685D01*
X146351980Y-94505686D01*
X146351979Y-94505687D01*
X146294167Y-94544316D01*
X146294166Y-94544317D01*
X146272916Y-94558516D01*
X146269497Y-94563633D01*
X146269496Y-94563634D01*
X146262135Y-94574650D01*
X146254363Y-94584120D01*
X145790507Y-95047975D01*
X145781037Y-95055747D01*
X145780684Y-95055983D01*
X145764906Y-95066526D01*
X145761487Y-95071643D01*
X145750976Y-95087374D01*
X145750709Y-95087773D01*
X145750706Y-95087776D01*
X145750691Y-95087799D01*
X145728517Y-95120985D01*
X145712084Y-95145579D01*
X145708656Y-95150709D01*
X145694718Y-95220783D01*
X145688904Y-95250010D01*
X145690105Y-95256048D01*
X145692689Y-95269039D01*
X145693890Y-95281232D01*
X145693890Y-95491101D01*
X145675584Y-95535295D01*
X145631390Y-95553601D01*
X145587196Y-95535295D01*
X145579882Y-95526501D01*
X145529479Y-95453165D01*
X145527344Y-95450058D01*
X145409355Y-95344934D01*
X145277418Y-95275077D01*
X145273025Y-95272751D01*
X145273024Y-95272751D01*
X145269697Y-95270989D01*
X145116431Y-95232491D01*
X145112666Y-95232471D01*
X145112664Y-95232471D01*
X145034562Y-95232063D01*
X144958406Y-95231664D01*
X144954742Y-95232544D01*
X144954739Y-95232544D01*
X144885429Y-95249184D01*
X144804746Y-95268554D01*
X144801404Y-95270279D01*
X144801401Y-95270280D01*
X144742743Y-95300556D01*
X144664321Y-95341033D01*
X144545237Y-95444916D01*
X144543071Y-95447998D01*
X144543070Y-95447999D01*
X144512778Y-95491101D01*
X144454371Y-95574206D01*
X144396968Y-95721438D01*
X144376341Y-95878113D01*
X144393682Y-96035185D01*
X144394976Y-96038722D01*
X144394977Y-96038725D01*
X144416404Y-96097277D01*
X144447989Y-96183587D01*
X144536128Y-96314751D01*
X144653010Y-96421105D01*
X144656319Y-96422902D01*
X144656321Y-96422903D01*
X144711473Y-96452848D01*
X144791886Y-96496509D01*
X144795533Y-96497466D01*
X144795536Y-96497467D01*
X144933641Y-96533698D01*
X144944741Y-96536610D01*
X145029123Y-96537935D01*
X145098979Y-96539033D01*
X145098981Y-96539033D01*
X145102748Y-96539092D01*
X145256786Y-96503813D01*
X145397963Y-96432808D01*
X145411666Y-96421105D01*
X145515262Y-96332625D01*
X145518127Y-96330178D01*
X145554427Y-96279662D01*
X145580635Y-96243190D01*
X145621290Y-96217983D01*
X145667862Y-96228907D01*
X145693069Y-96269562D01*
X145693890Y-96279662D01*
X145693890Y-98031101D01*
X145675584Y-98075295D01*
X145631390Y-98093601D01*
X145587196Y-98075295D01*
X145579882Y-98066501D01*
X145529479Y-97993165D01*
X145527344Y-97990058D01*
X145409355Y-97884934D01*
X145269697Y-97810989D01*
X145116431Y-97772491D01*
X145112666Y-97772471D01*
X145112664Y-97772471D01*
X145034562Y-97772063D01*
X144958406Y-97771664D01*
X144954742Y-97772544D01*
X144954739Y-97772544D01*
X144896667Y-97786486D01*
X144804746Y-97808554D01*
X144801404Y-97810279D01*
X144801401Y-97810280D01*
X144776707Y-97823026D01*
X144664321Y-97881033D01*
X144545237Y-97984916D01*
X144543071Y-97987998D01*
X144543070Y-97987999D01*
X144526500Y-98011576D01*
X144454371Y-98114206D01*
X144453002Y-98117717D01*
X144453001Y-98117719D01*
X144447939Y-98130703D01*
X144414829Y-98165229D01*
X144389708Y-98170500D01*
X143062954Y-98170500D01*
X143018760Y-98152194D01*
X143001224Y-98117778D01*
X142993691Y-98070220D01*
X142993690Y-98070216D01*
X142992920Y-98065356D01*
X142990686Y-98060971D01*
X142939010Y-97959550D01*
X142939009Y-97959549D01*
X142936777Y-97955168D01*
X142849332Y-97867723D01*
X142844951Y-97865491D01*
X142844950Y-97865490D01*
X142743529Y-97813814D01*
X142743528Y-97813814D01*
X142739144Y-97811580D01*
X142734287Y-97810811D01*
X142734285Y-97810810D01*
X142650149Y-97797484D01*
X142650144Y-97797484D01*
X142647722Y-97797100D01*
X142086278Y-97797100D01*
X142083856Y-97797484D01*
X142083851Y-97797484D01*
X141999715Y-97810810D01*
X141999713Y-97810811D01*
X141994856Y-97811580D01*
X141990472Y-97813814D01*
X141990471Y-97813814D01*
X141889050Y-97865490D01*
X141889049Y-97865491D01*
X141884668Y-97867723D01*
X141797223Y-97955168D01*
X141794991Y-97959549D01*
X141794990Y-97959550D01*
X141743314Y-98060971D01*
X141741080Y-98065356D01*
X141740311Y-98070213D01*
X141740310Y-98070215D01*
X141730827Y-98130092D01*
X141726600Y-98156778D01*
X141726600Y-98693222D01*
X141726984Y-98695644D01*
X141726984Y-98695649D01*
X141740310Y-98779785D01*
X141741080Y-98784644D01*
X141743314Y-98789028D01*
X141743314Y-98789029D01*
X141783103Y-98867119D01*
X141797223Y-98894832D01*
X141884668Y-98982277D01*
X141889049Y-98984509D01*
X141889050Y-98984510D01*
X141990471Y-99036186D01*
X141994856Y-99038420D01*
X141999713Y-99039189D01*
X141999715Y-99039190D01*
X142083851Y-99052516D01*
X142083856Y-99052516D01*
X142086278Y-99052900D01*
X142647722Y-99052900D01*
X142650144Y-99052516D01*
X142650149Y-99052516D01*
X142734285Y-99039190D01*
X142734287Y-99039189D01*
X142739144Y-99038420D01*
X142743529Y-99036186D01*
X142844950Y-98984510D01*
X142844951Y-98984509D01*
X142849332Y-98982277D01*
X142936777Y-98894832D01*
X142950898Y-98867119D01*
X142990686Y-98789029D01*
X142990686Y-98789028D01*
X142992920Y-98784644D01*
X142993690Y-98779784D01*
X142993691Y-98779780D01*
X143001224Y-98732222D01*
X143026218Y-98691436D01*
X143062954Y-98679500D01*
X144388173Y-98679500D01*
X144432367Y-98697806D01*
X144444560Y-98716906D01*
X144444983Y-98716690D01*
X144446694Y-98720049D01*
X144447989Y-98723587D01*
X144450089Y-98726712D01*
X144450091Y-98726716D01*
X144505762Y-98809562D01*
X144536128Y-98854751D01*
X144653010Y-98961105D01*
X144656319Y-98962902D01*
X144656321Y-98962903D01*
X144696116Y-98984510D01*
X144791886Y-99036509D01*
X144795533Y-99037466D01*
X144795536Y-99037467D01*
X144905213Y-99066240D01*
X144944741Y-99076610D01*
X145029123Y-99077935D01*
X145098979Y-99079033D01*
X145098981Y-99079033D01*
X145102748Y-99079092D01*
X145256786Y-99043813D01*
X145397963Y-98972808D01*
X145411666Y-98961105D01*
X145515262Y-98872625D01*
X145518127Y-98870178D01*
X145554427Y-98819662D01*
X145580635Y-98783190D01*
X145621290Y-98757983D01*
X145667862Y-98768907D01*
X145693069Y-98809562D01*
X145693890Y-98819662D01*
X145693890Y-100494182D01*
X145675584Y-100538376D01*
X145257750Y-100956210D01*
X145254109Y-100965000D01*
X145257750Y-100973790D01*
X145675584Y-101391624D01*
X145693890Y-101435818D01*
X145693890Y-102737168D01*
X145692689Y-102749361D01*
X145688904Y-102768390D01*
X145708656Y-102867691D01*
X145750706Y-102930624D01*
X145750709Y-102930627D01*
X145764906Y-102951874D01*
X145770023Y-102955293D01*
X145770024Y-102955294D01*
X145781037Y-102962653D01*
X145790507Y-102970425D01*
X146096800Y-103276718D01*
X146115106Y-103320911D01*
X146110348Y-103344829D01*
X146098500Y-103373432D01*
X146098500Y-104229500D01*
X146080194Y-104273694D01*
X146036000Y-104292000D01*
X145167432Y-104292000D01*
X145158642Y-104295641D01*
X145155001Y-104304431D01*
X145155001Y-104417677D01*
X145155229Y-104421449D01*
X145165205Y-104503893D01*
X145167165Y-104511614D01*
X145218732Y-104641859D01*
X145222879Y-104649219D01*
X145307428Y-104760607D01*
X145313393Y-104766572D01*
X145424781Y-104851121D01*
X145432141Y-104855268D01*
X145562385Y-104906834D01*
X145570109Y-104908796D01*
X145622354Y-104915118D01*
X145664029Y-104938600D01*
X145676893Y-104984673D01*
X145653411Y-105026348D01*
X145624624Y-105038895D01*
X145555720Y-105049809D01*
X145555716Y-105049810D01*
X145550856Y-105050580D01*
X145546472Y-105052814D01*
X145546471Y-105052814D01*
X145445050Y-105104490D01*
X145445049Y-105104491D01*
X145440668Y-105106723D01*
X145353223Y-105194168D01*
X145350991Y-105198549D01*
X145350990Y-105198550D01*
X145299453Y-105299699D01*
X145297080Y-105304356D01*
X145296311Y-105309213D01*
X145296310Y-105309215D01*
X145283955Y-105387224D01*
X145282600Y-105395778D01*
X145282600Y-105932222D01*
X145282984Y-105934644D01*
X145282984Y-105934649D01*
X145296310Y-106018785D01*
X145297080Y-106023644D01*
X145299314Y-106028028D01*
X145299314Y-106028029D01*
X145350990Y-106129449D01*
X145353223Y-106133832D01*
X145440668Y-106221277D01*
X145445049Y-106223509D01*
X145445050Y-106223510D01*
X145540389Y-106272087D01*
X145550856Y-106277420D01*
X145555713Y-106278189D01*
X145555715Y-106278190D01*
X145639851Y-106291516D01*
X145639856Y-106291516D01*
X145642278Y-106291900D01*
X146203722Y-106291900D01*
X146206144Y-106291516D01*
X146206149Y-106291516D01*
X146290285Y-106278190D01*
X146290287Y-106278189D01*
X146295144Y-106277420D01*
X146305611Y-106272087D01*
X146400950Y-106223510D01*
X146400951Y-106223509D01*
X146405332Y-106221277D01*
X146492777Y-106133832D01*
X146495011Y-106129449D01*
X146546686Y-106028029D01*
X146546686Y-106028028D01*
X146548920Y-106023644D01*
X146549690Y-106018785D01*
X146563016Y-105934649D01*
X146563016Y-105934644D01*
X146563400Y-105932222D01*
X146563400Y-105409406D01*
X146581706Y-105365212D01*
X146704807Y-105242111D01*
X146749000Y-105223805D01*
X146793194Y-105242111D01*
X146811500Y-105286305D01*
X146811500Y-106832115D01*
X146793194Y-106876309D01*
X146749000Y-106894615D01*
X146704806Y-106876309D01*
X146690889Y-106855122D01*
X146674268Y-106813141D01*
X146670121Y-106805781D01*
X146585572Y-106694393D01*
X146579607Y-106688428D01*
X146468219Y-106603879D01*
X146460859Y-106599732D01*
X146330615Y-106548166D01*
X146322892Y-106546204D01*
X146240449Y-106536227D01*
X146236678Y-106536000D01*
X146110931Y-106536000D01*
X146102141Y-106539641D01*
X146098500Y-106548431D01*
X146098500Y-108081568D01*
X146102141Y-108090358D01*
X146110931Y-108093999D01*
X146236677Y-108093999D01*
X146240449Y-108093771D01*
X146322893Y-108083795D01*
X146330614Y-108081835D01*
X146460859Y-108030268D01*
X146468219Y-108026121D01*
X146579607Y-107941572D01*
X146585572Y-107935607D01*
X146670121Y-107824219D01*
X146674268Y-107816859D01*
X146690889Y-107774878D01*
X146724178Y-107740525D01*
X146772007Y-107739774D01*
X146806360Y-107773063D01*
X146811500Y-107797885D01*
X146811500Y-111247694D01*
X146793194Y-111291888D01*
X146724888Y-111360194D01*
X146680694Y-111378500D01*
X145868688Y-111378500D01*
X145824494Y-111360194D01*
X145811569Y-111341372D01*
X145796952Y-111308464D01*
X145717093Y-111228744D01*
X145613889Y-111183118D01*
X145609217Y-111182573D01*
X145609216Y-111182573D01*
X145599823Y-111181478D01*
X145588004Y-111180100D01*
X143847996Y-111180100D01*
X143846167Y-111180318D01*
X143846160Y-111180318D01*
X143836414Y-111181478D01*
X143821588Y-111183242D01*
X143817304Y-111185145D01*
X143817300Y-111185146D01*
X143743851Y-111217772D01*
X143718464Y-111229048D01*
X143638744Y-111308907D01*
X143593118Y-111412111D01*
X143590100Y-111437996D01*
X143590100Y-111828004D01*
X143590318Y-111829833D01*
X143590318Y-111829840D01*
X143591325Y-111838300D01*
X143593242Y-111854412D01*
X143595145Y-111858696D01*
X143595146Y-111858700D01*
X143627772Y-111932149D01*
X143639048Y-111957536D01*
X143718907Y-112037256D01*
X143822111Y-112082882D01*
X143826783Y-112083427D01*
X143826784Y-112083427D01*
X143834114Y-112084281D01*
X143847996Y-112085900D01*
X145588004Y-112085900D01*
X145589833Y-112085682D01*
X145589840Y-112085682D01*
X145599830Y-112084493D01*
X145614412Y-112082758D01*
X145618696Y-112080855D01*
X145618700Y-112080854D01*
X145712263Y-112039294D01*
X145717536Y-112036952D01*
X145726207Y-112028266D01*
X145793181Y-111961176D01*
X145793183Y-111961173D01*
X145797256Y-111957093D01*
X145810610Y-111926888D01*
X145811565Y-111924728D01*
X145846178Y-111891710D01*
X145868728Y-111887500D01*
X146680694Y-111887500D01*
X146724888Y-111905806D01*
X146793194Y-111974112D01*
X146811500Y-112018306D01*
X146811500Y-112363778D01*
X146810299Y-112375971D01*
X146806514Y-112395000D01*
X146826266Y-112494301D01*
X146868316Y-112557234D01*
X146868319Y-112557237D01*
X146882516Y-112578484D01*
X146887633Y-112581903D01*
X146887634Y-112581904D01*
X146898647Y-112589263D01*
X146908117Y-112597035D01*
X147371963Y-113060880D01*
X147379735Y-113070350D01*
X147390516Y-113086484D01*
X147395633Y-113089903D01*
X147469580Y-113139314D01*
X147469582Y-113139315D01*
X147474699Y-113142734D01*
X147505718Y-113148904D01*
X147548926Y-113157499D01*
X147548931Y-113157500D01*
X147548934Y-113157500D01*
X147548942Y-113157501D01*
X147574000Y-113162485D01*
X147580038Y-113161284D01*
X147593025Y-113158701D01*
X147605217Y-113157500D01*
X148517312Y-113157500D01*
X148561506Y-113175806D01*
X148574430Y-113194627D01*
X148589048Y-113227536D01*
X148668907Y-113307256D01*
X148772111Y-113352882D01*
X148776783Y-113353427D01*
X148776784Y-113353427D01*
X148784114Y-113354281D01*
X148797996Y-113355900D01*
X150538004Y-113355900D01*
X150539833Y-113355682D01*
X150539840Y-113355682D01*
X150549830Y-113354493D01*
X150564412Y-113352758D01*
X150568696Y-113350855D01*
X150568700Y-113350854D01*
X150662263Y-113309294D01*
X150667536Y-113306952D01*
X150747256Y-113227093D01*
X150792882Y-113123889D01*
X150795900Y-113098004D01*
X150795900Y-112707996D01*
X150795584Y-112705343D01*
X150795625Y-112705200D01*
X150795572Y-112704313D01*
X150795879Y-112704295D01*
X150808533Y-112659295D01*
X150850252Y-112635890D01*
X150896301Y-112648839D01*
X150901839Y-112653757D01*
X151181963Y-112933880D01*
X151189735Y-112943350D01*
X151200516Y-112959484D01*
X151205633Y-112962903D01*
X151221766Y-112973683D01*
X151264595Y-113002301D01*
X151279580Y-113012314D01*
X151279582Y-113012315D01*
X151284699Y-113015734D01*
X151315718Y-113021904D01*
X151358926Y-113030499D01*
X151358931Y-113030500D01*
X151358934Y-113030500D01*
X151358942Y-113030501D01*
X151384000Y-113035485D01*
X151390038Y-113034284D01*
X151403025Y-113031701D01*
X151415217Y-113030500D01*
X154400778Y-113030500D01*
X154412971Y-113031701D01*
X154432000Y-113035486D01*
X154531301Y-113015734D01*
X154594234Y-112973684D01*
X154594236Y-112973682D01*
X154594239Y-112973680D01*
X154610367Y-112962903D01*
X154615484Y-112959484D01*
X154626265Y-112943350D01*
X154634035Y-112933883D01*
X155049470Y-112518447D01*
X155058940Y-112510675D01*
X155071776Y-112502098D01*
X155118692Y-112492765D01*
X155158466Y-112519340D01*
X155169000Y-112554064D01*
X155169000Y-113704500D01*
X155150694Y-113748694D01*
X155106500Y-113767000D01*
X139533500Y-113767000D01*
X139489306Y-113748694D01*
X139471000Y-113704500D01*
X139471000Y-113105772D01*
X143439001Y-113105772D01*
X143439140Y-113108720D01*
X143441645Y-113135238D01*
X143443266Y-113142626D01*
X143485693Y-113263440D01*
X143490009Y-113271591D01*
X143565575Y-113373900D01*
X143572100Y-113380425D01*
X143674409Y-113455991D01*
X143682560Y-113460307D01*
X143803379Y-113502736D01*
X143810756Y-113504354D01*
X143837283Y-113506861D01*
X143840225Y-113507000D01*
X144553569Y-113507000D01*
X144562359Y-113503359D01*
X144566000Y-113494569D01*
X144566000Y-113494568D01*
X144870000Y-113494568D01*
X144873641Y-113503358D01*
X144882431Y-113506999D01*
X145595772Y-113506999D01*
X145598720Y-113506860D01*
X145625238Y-113504355D01*
X145632626Y-113502734D01*
X145753440Y-113460307D01*
X145761591Y-113455991D01*
X145863900Y-113380425D01*
X145870425Y-113373900D01*
X145945991Y-113271591D01*
X145950307Y-113263440D01*
X145992736Y-113142621D01*
X145994354Y-113135244D01*
X145996861Y-113108717D01*
X145997000Y-113105775D01*
X145997000Y-113067431D01*
X145993359Y-113058641D01*
X145984569Y-113055000D01*
X144882431Y-113055000D01*
X144873641Y-113058641D01*
X144870000Y-113067431D01*
X144870000Y-113494568D01*
X144566000Y-113494568D01*
X144566000Y-113067431D01*
X144562359Y-113058641D01*
X144553569Y-113055000D01*
X143451432Y-113055000D01*
X143442642Y-113058641D01*
X143439001Y-113067431D01*
X143439001Y-113105772D01*
X139471000Y-113105772D01*
X139471000Y-112738569D01*
X143439000Y-112738569D01*
X143442641Y-112747359D01*
X143451431Y-112751000D01*
X144553569Y-112751000D01*
X144562359Y-112747359D01*
X144566000Y-112738569D01*
X144870000Y-112738569D01*
X144873641Y-112747359D01*
X144882431Y-112751000D01*
X145984568Y-112751000D01*
X145993358Y-112747359D01*
X145996999Y-112738569D01*
X145996999Y-112700228D01*
X145996860Y-112697280D01*
X145994355Y-112670762D01*
X145992734Y-112663374D01*
X145950307Y-112542560D01*
X145945991Y-112534409D01*
X145870425Y-112432100D01*
X145863900Y-112425575D01*
X145761591Y-112350009D01*
X145753440Y-112345693D01*
X145632621Y-112303264D01*
X145625244Y-112301646D01*
X145598717Y-112299139D01*
X145595775Y-112299000D01*
X144882431Y-112299000D01*
X144873641Y-112302641D01*
X144870000Y-112311431D01*
X144870000Y-112738569D01*
X144566000Y-112738569D01*
X144566000Y-112311432D01*
X144562359Y-112302642D01*
X144553569Y-112299001D01*
X143840228Y-112299001D01*
X143837280Y-112299140D01*
X143810762Y-112301645D01*
X143803374Y-112303266D01*
X143682560Y-112345693D01*
X143674409Y-112350009D01*
X143572100Y-112425575D01*
X143565575Y-112432100D01*
X143490009Y-112534409D01*
X143485693Y-112542560D01*
X143443264Y-112663379D01*
X143441646Y-112670756D01*
X143439139Y-112697283D01*
X143439000Y-112700225D01*
X143439000Y-112738569D01*
X139471000Y-112738569D01*
X139471000Y-112203244D01*
X139489306Y-112159050D01*
X139533500Y-112140744D01*
X139568224Y-112151278D01*
X139581057Y-112159853D01*
X139590527Y-112167625D01*
X139848783Y-112425880D01*
X139856555Y-112435350D01*
X139867336Y-112451484D01*
X139872453Y-112454903D01*
X139888586Y-112465683D01*
X139907983Y-112478644D01*
X139946400Y-112504314D01*
X139946402Y-112504315D01*
X139951519Y-112507734D01*
X139982538Y-112513904D01*
X140025746Y-112522499D01*
X140025751Y-112522500D01*
X140025754Y-112522500D01*
X140025762Y-112522501D01*
X140050820Y-112527485D01*
X140056858Y-112526284D01*
X140069845Y-112523701D01*
X140082037Y-112522500D01*
X141954778Y-112522500D01*
X141966971Y-112523701D01*
X141986000Y-112527486D01*
X142085301Y-112507734D01*
X142148234Y-112465684D01*
X142148236Y-112465682D01*
X142148239Y-112465680D01*
X142164367Y-112454903D01*
X142169484Y-112451484D01*
X142180265Y-112435350D01*
X142188035Y-112425883D01*
X142585880Y-112028037D01*
X142595350Y-112020265D01*
X142606366Y-112012904D01*
X142606367Y-112012903D01*
X142611484Y-112009484D01*
X142635562Y-111973449D01*
X142664314Y-111930420D01*
X142664315Y-111930418D01*
X142667734Y-111925301D01*
X142672488Y-111901400D01*
X142674914Y-111889205D01*
X142701490Y-111849432D01*
X142736213Y-111838899D01*
X142843056Y-111838899D01*
X142846065Y-111838300D01*
X142846070Y-111838300D01*
X142881620Y-111831229D01*
X142887658Y-111830028D01*
X142938234Y-111796234D01*
X142972028Y-111745658D01*
X142980900Y-111701057D01*
X142980899Y-110770944D01*
X142980166Y-110767256D01*
X142973229Y-110732380D01*
X142973228Y-110732377D01*
X142972028Y-110726342D01*
X142964265Y-110714724D01*
X142954932Y-110667808D01*
X142981507Y-110628034D01*
X143016231Y-110617500D01*
X143567312Y-110617500D01*
X143611506Y-110635806D01*
X143624430Y-110654627D01*
X143639048Y-110687536D01*
X143718907Y-110767256D01*
X143822111Y-110812882D01*
X143826783Y-110813427D01*
X143826784Y-110813427D01*
X143834114Y-110814281D01*
X143847996Y-110815900D01*
X145588004Y-110815900D01*
X145589833Y-110815682D01*
X145589840Y-110815682D01*
X145599830Y-110814493D01*
X145614412Y-110812758D01*
X145618696Y-110810855D01*
X145618700Y-110810854D01*
X145701639Y-110774013D01*
X145717536Y-110766952D01*
X145721859Y-110762622D01*
X145793179Y-110691177D01*
X145797256Y-110687093D01*
X145842882Y-110583889D01*
X145845900Y-110558004D01*
X145845900Y-110167996D01*
X145845582Y-110165319D01*
X145843312Y-110146248D01*
X145842758Y-110141588D01*
X145840855Y-110137304D01*
X145840854Y-110137300D01*
X145799294Y-110043737D01*
X145796952Y-110038464D01*
X145717093Y-109958744D01*
X145613889Y-109913118D01*
X145609217Y-109912573D01*
X145609216Y-109912573D01*
X145601886Y-109911719D01*
X145588004Y-109910100D01*
X143847996Y-109910100D01*
X143846167Y-109910318D01*
X143846160Y-109910318D01*
X143836170Y-109911507D01*
X143821588Y-109913242D01*
X143817304Y-109915145D01*
X143817300Y-109915146D01*
X143776775Y-109933147D01*
X143718464Y-109959048D01*
X143714388Y-109963131D01*
X143642819Y-110034824D01*
X143642817Y-110034827D01*
X143638744Y-110038907D01*
X143636411Y-110044184D01*
X143624435Y-110071272D01*
X143589822Y-110104290D01*
X143567272Y-110108500D01*
X142652217Y-110108500D01*
X142640025Y-110107299D01*
X142627038Y-110104716D01*
X142621000Y-110103515D01*
X142614962Y-110104716D01*
X142595942Y-110108499D01*
X142595934Y-110108500D01*
X142595931Y-110108500D01*
X142595926Y-110108501D01*
X142533378Y-110120943D01*
X142521699Y-110123266D01*
X142458766Y-110165316D01*
X142458764Y-110165318D01*
X142458761Y-110165320D01*
X142451992Y-110169843D01*
X142437516Y-110179516D01*
X142434097Y-110184633D01*
X142434096Y-110184634D01*
X142426737Y-110195647D01*
X142418965Y-110205117D01*
X142270117Y-110353965D01*
X142260647Y-110361737D01*
X142249634Y-110369096D01*
X142244516Y-110372516D01*
X142230319Y-110393763D01*
X142230316Y-110393766D01*
X142188266Y-110456699D01*
X142168514Y-110556000D01*
X142169715Y-110562038D01*
X142169715Y-110568193D01*
X142167047Y-110568193D01*
X142159661Y-110605324D01*
X142119888Y-110631900D01*
X142107694Y-110633101D01*
X142012944Y-110633101D01*
X142009935Y-110633700D01*
X142009930Y-110633700D01*
X141977603Y-110640130D01*
X141968342Y-110641972D01*
X141917766Y-110675766D01*
X141883972Y-110726342D01*
X141875100Y-110770943D01*
X141875101Y-111701056D01*
X141875700Y-111704065D01*
X141875700Y-111704070D01*
X141881840Y-111734937D01*
X141883972Y-111745658D01*
X141917766Y-111796234D01*
X141922883Y-111799653D01*
X141962396Y-111826055D01*
X141988972Y-111865829D01*
X141979640Y-111912745D01*
X141971869Y-111922213D01*
X141898888Y-111995194D01*
X141854694Y-112013500D01*
X140182125Y-112013500D01*
X140137931Y-111995194D01*
X140088331Y-111945594D01*
X140070025Y-111901400D01*
X140088331Y-111857206D01*
X140132525Y-111838900D01*
X140830520Y-111838899D01*
X140943056Y-111838899D01*
X140946065Y-111838300D01*
X140946070Y-111838300D01*
X140981620Y-111831229D01*
X140987658Y-111830028D01*
X141038234Y-111796234D01*
X141072028Y-111745658D01*
X141080900Y-111701057D01*
X141080899Y-110770944D01*
X141080166Y-110767256D01*
X141073229Y-110732380D01*
X141073228Y-110732377D01*
X141072028Y-110726342D01*
X141038234Y-110675766D01*
X140987658Y-110641972D01*
X140943057Y-110633100D01*
X140845000Y-110633100D01*
X140800806Y-110614794D01*
X140782500Y-110570600D01*
X140782500Y-109031306D01*
X140800806Y-108987112D01*
X140818406Y-108969512D01*
X140862600Y-108951206D01*
X140906794Y-108969512D01*
X140925100Y-109013706D01*
X140925101Y-109365806D01*
X140925101Y-109701056D01*
X140933972Y-109745658D01*
X140967766Y-109796234D01*
X141018342Y-109830028D01*
X141062943Y-109838900D01*
X141477932Y-109838900D01*
X141893056Y-109838899D01*
X141896065Y-109838300D01*
X141896070Y-109838300D01*
X141931620Y-109831229D01*
X141937658Y-109830028D01*
X141988234Y-109796234D01*
X142022028Y-109745658D01*
X142030900Y-109701057D01*
X142030899Y-109179907D01*
X142049205Y-109135713D01*
X142386306Y-108798612D01*
X142430500Y-108780306D01*
X142474694Y-108798612D01*
X142926963Y-109250880D01*
X142934735Y-109260350D01*
X142945516Y-109276484D01*
X142950633Y-109279903D01*
X142966766Y-109290683D01*
X142998319Y-109311766D01*
X143024580Y-109329314D01*
X143024582Y-109329315D01*
X143029699Y-109332734D01*
X143060718Y-109338904D01*
X143103926Y-109347499D01*
X143103931Y-109347500D01*
X143103934Y-109347500D01*
X143103942Y-109347501D01*
X143129000Y-109352485D01*
X143135038Y-109351284D01*
X143148025Y-109348701D01*
X143160217Y-109347500D01*
X143567312Y-109347500D01*
X143611506Y-109365806D01*
X143624430Y-109384627D01*
X143639048Y-109417536D01*
X143643131Y-109421612D01*
X143653464Y-109431927D01*
X143718907Y-109497256D01*
X143822111Y-109542882D01*
X143826783Y-109543427D01*
X143826784Y-109543427D01*
X143834114Y-109544281D01*
X143847996Y-109545900D01*
X145588004Y-109545900D01*
X145589833Y-109545682D01*
X145589840Y-109545682D01*
X145599830Y-109544493D01*
X145614412Y-109542758D01*
X145618696Y-109540855D01*
X145618700Y-109540854D01*
X145692149Y-109508228D01*
X145717536Y-109496952D01*
X145797256Y-109417093D01*
X145842882Y-109313889D01*
X145845900Y-109288004D01*
X145845900Y-108897996D01*
X145842758Y-108871588D01*
X145840855Y-108867304D01*
X145840854Y-108867300D01*
X145799493Y-108774184D01*
X145796952Y-108768464D01*
X145766201Y-108737766D01*
X145721177Y-108692821D01*
X145717093Y-108688744D01*
X145613889Y-108643118D01*
X145609217Y-108642573D01*
X145609216Y-108642573D01*
X145601886Y-108641719D01*
X145588004Y-108640100D01*
X143847996Y-108640100D01*
X143846167Y-108640318D01*
X143846160Y-108640318D01*
X143836170Y-108641507D01*
X143821588Y-108643242D01*
X143817304Y-108645145D01*
X143817300Y-108645146D01*
X143756063Y-108672347D01*
X143718464Y-108689048D01*
X143714388Y-108693131D01*
X143642819Y-108764824D01*
X143642817Y-108764827D01*
X143638744Y-108768907D01*
X143636411Y-108774184D01*
X143624435Y-108801272D01*
X143589822Y-108834290D01*
X143567272Y-108838500D01*
X143260305Y-108838500D01*
X143216111Y-108820194D01*
X142783234Y-108387316D01*
X142783229Y-108387312D01*
X142759534Y-108363616D01*
X142751763Y-108354147D01*
X142744404Y-108343134D01*
X142740984Y-108338016D01*
X142724854Y-108327238D01*
X142715384Y-108319466D01*
X142703306Y-108307388D01*
X142685000Y-108263194D01*
X142685000Y-108233870D01*
X142703306Y-108189676D01*
X142737720Y-108172141D01*
X142762644Y-108168193D01*
X142830765Y-108133484D01*
X142868450Y-108114283D01*
X142868451Y-108114282D01*
X142872832Y-108112050D01*
X142960277Y-108024605D01*
X142964103Y-108017097D01*
X143014186Y-107918802D01*
X143014186Y-107918801D01*
X143016420Y-107914417D01*
X143017190Y-107909558D01*
X143030516Y-107825422D01*
X143030516Y-107825417D01*
X143030900Y-107822995D01*
X143030900Y-107568500D01*
X143049206Y-107524306D01*
X143093400Y-107506000D01*
X143418600Y-107506000D01*
X143462794Y-107524306D01*
X143481100Y-107568500D01*
X143481100Y-107583222D01*
X143481484Y-107585644D01*
X143481484Y-107585649D01*
X143494810Y-107669785D01*
X143495580Y-107674644D01*
X143497814Y-107679028D01*
X143497814Y-107679029D01*
X143548600Y-107778702D01*
X143551723Y-107784832D01*
X143639168Y-107872277D01*
X143643549Y-107874509D01*
X143643550Y-107874510D01*
X143730479Y-107918802D01*
X143749356Y-107928420D01*
X143754213Y-107929189D01*
X143754215Y-107929190D01*
X143838351Y-107942516D01*
X143838356Y-107942516D01*
X143840778Y-107942900D01*
X144402222Y-107942900D01*
X144404644Y-107942516D01*
X144404649Y-107942516D01*
X144488785Y-107929190D01*
X144488787Y-107929189D01*
X144493644Y-107928420D01*
X144512521Y-107918802D01*
X144599450Y-107874510D01*
X144599451Y-107874509D01*
X144603832Y-107872277D01*
X144691277Y-107784832D01*
X144694401Y-107778702D01*
X144745186Y-107679029D01*
X144745186Y-107679028D01*
X144747420Y-107674644D01*
X144748190Y-107669785D01*
X144760403Y-107592677D01*
X145155001Y-107592677D01*
X145155229Y-107596449D01*
X145165205Y-107678893D01*
X145167165Y-107686614D01*
X145218732Y-107816859D01*
X145222879Y-107824219D01*
X145307428Y-107935607D01*
X145313393Y-107941572D01*
X145424781Y-108026121D01*
X145432141Y-108030268D01*
X145562385Y-108081834D01*
X145570108Y-108083796D01*
X145652551Y-108093773D01*
X145656322Y-108094000D01*
X145782069Y-108094000D01*
X145790859Y-108090359D01*
X145794500Y-108081569D01*
X145794500Y-107479431D01*
X145790859Y-107470641D01*
X145782069Y-107467000D01*
X145167432Y-107467000D01*
X145158642Y-107470641D01*
X145155001Y-107479431D01*
X145155001Y-107592677D01*
X144760403Y-107592677D01*
X144761516Y-107585649D01*
X144761516Y-107585644D01*
X144761900Y-107583222D01*
X144761900Y-107150569D01*
X145155000Y-107150569D01*
X145158641Y-107159359D01*
X145167431Y-107163000D01*
X145782069Y-107163000D01*
X145790859Y-107159359D01*
X145794500Y-107150569D01*
X145794500Y-106548432D01*
X145790859Y-106539642D01*
X145782069Y-106536001D01*
X145656323Y-106536001D01*
X145652551Y-106536229D01*
X145570107Y-106546205D01*
X145562386Y-106548165D01*
X145432141Y-106599732D01*
X145424781Y-106603879D01*
X145313393Y-106688428D01*
X145307428Y-106694393D01*
X145222879Y-106805781D01*
X145218732Y-106813141D01*
X145167166Y-106943385D01*
X145165204Y-106951108D01*
X145155227Y-107033551D01*
X145155000Y-107037322D01*
X145155000Y-107150569D01*
X144761900Y-107150569D01*
X144761900Y-107046778D01*
X144760403Y-107037322D01*
X144748190Y-106960215D01*
X144748189Y-106960213D01*
X144747420Y-106955356D01*
X144745186Y-106950971D01*
X144693510Y-106849550D01*
X144693509Y-106849549D01*
X144691277Y-106845168D01*
X144603832Y-106757723D01*
X144599451Y-106755491D01*
X144599450Y-106755490D01*
X144498029Y-106703814D01*
X144498028Y-106703814D01*
X144493644Y-106701580D01*
X144488787Y-106700811D01*
X144488785Y-106700810D01*
X144404649Y-106687484D01*
X144404644Y-106687484D01*
X144402222Y-106687100D01*
X143840778Y-106687100D01*
X143838356Y-106687484D01*
X143838351Y-106687484D01*
X143754215Y-106700810D01*
X143754213Y-106700811D01*
X143749356Y-106701580D01*
X143744972Y-106703814D01*
X143744971Y-106703814D01*
X143643550Y-106755490D01*
X143643549Y-106755491D01*
X143639168Y-106757723D01*
X143551723Y-106845168D01*
X143549491Y-106849549D01*
X143549490Y-106849550D01*
X143497814Y-106950971D01*
X143495580Y-106955356D01*
X143495575Y-106955353D01*
X143465822Y-106990189D01*
X143437449Y-106997000D01*
X142886864Y-106997000D01*
X142858490Y-106990188D01*
X142832626Y-106977010D01*
X142801559Y-106940636D01*
X142798500Y-106921322D01*
X142798500Y-106467399D01*
X142816806Y-106423205D01*
X142861000Y-106404899D01*
X143009056Y-106404899D01*
X143012065Y-106404300D01*
X143012070Y-106404300D01*
X143047620Y-106397229D01*
X143053658Y-106396028D01*
X143104234Y-106362234D01*
X143138028Y-106311658D01*
X143146900Y-106267057D01*
X143146899Y-105436944D01*
X143142665Y-105415653D01*
X143139229Y-105398380D01*
X143138028Y-105392342D01*
X143104234Y-105341766D01*
X143053658Y-105307972D01*
X143009057Y-105299100D01*
X142991079Y-105299100D01*
X142258383Y-105299101D01*
X142214189Y-105280795D01*
X142195883Y-105236601D01*
X142214189Y-105192407D01*
X142231790Y-105174806D01*
X142275984Y-105156500D01*
X143378694Y-105156500D01*
X143422888Y-105174806D01*
X143467095Y-105219013D01*
X143485401Y-105263207D01*
X143478589Y-105291581D01*
X143474758Y-105299101D01*
X143472080Y-105304356D01*
X143471311Y-105309213D01*
X143471310Y-105309215D01*
X143458955Y-105387224D01*
X143457600Y-105395778D01*
X143457600Y-105932222D01*
X143457984Y-105934644D01*
X143457984Y-105934649D01*
X143471310Y-106018785D01*
X143472080Y-106023644D01*
X143474314Y-106028028D01*
X143474314Y-106028029D01*
X143525990Y-106129449D01*
X143528223Y-106133832D01*
X143615668Y-106221277D01*
X143620049Y-106223509D01*
X143620050Y-106223510D01*
X143715389Y-106272087D01*
X143725856Y-106277420D01*
X143730713Y-106278189D01*
X143730715Y-106278190D01*
X143814851Y-106291516D01*
X143814856Y-106291516D01*
X143817278Y-106291900D01*
X144378722Y-106291900D01*
X144381144Y-106291516D01*
X144381149Y-106291516D01*
X144465285Y-106278190D01*
X144465287Y-106278189D01*
X144470144Y-106277420D01*
X144480611Y-106272087D01*
X144575950Y-106223510D01*
X144575951Y-106223509D01*
X144580332Y-106221277D01*
X144667777Y-106133832D01*
X144670011Y-106129449D01*
X144721686Y-106028029D01*
X144721686Y-106028028D01*
X144723920Y-106023644D01*
X144724690Y-106018785D01*
X144738016Y-105934649D01*
X144738016Y-105934644D01*
X144738400Y-105932222D01*
X144738400Y-105395778D01*
X144737046Y-105387224D01*
X144724690Y-105309215D01*
X144724689Y-105309213D01*
X144723920Y-105304356D01*
X144721547Y-105299699D01*
X144670010Y-105198550D01*
X144670009Y-105198549D01*
X144667777Y-105194168D01*
X144580332Y-105106723D01*
X144575951Y-105104491D01*
X144575950Y-105104490D01*
X144474529Y-105052814D01*
X144474528Y-105052814D01*
X144470144Y-105050580D01*
X144465287Y-105049811D01*
X144465285Y-105049810D01*
X144381149Y-105036484D01*
X144381144Y-105036484D01*
X144378722Y-105036100D01*
X144029905Y-105036100D01*
X143985711Y-105017794D01*
X143842512Y-104874594D01*
X143824206Y-104830400D01*
X143842512Y-104786206D01*
X143886706Y-104767900D01*
X144402222Y-104767900D01*
X144404644Y-104767516D01*
X144404649Y-104767516D01*
X144488785Y-104754190D01*
X144488787Y-104754189D01*
X144493644Y-104753420D01*
X144509263Y-104745462D01*
X144599450Y-104699510D01*
X144599451Y-104699509D01*
X144603832Y-104697277D01*
X144691277Y-104609832D01*
X144728387Y-104537000D01*
X144745186Y-104504029D01*
X144745186Y-104504028D01*
X144747420Y-104499644D01*
X144748190Y-104494785D01*
X144761516Y-104410649D01*
X144761516Y-104410644D01*
X144761900Y-104408222D01*
X144761900Y-103975569D01*
X145155000Y-103975569D01*
X145158641Y-103984359D01*
X145167431Y-103988000D01*
X145782069Y-103988000D01*
X145790859Y-103984359D01*
X145794500Y-103975569D01*
X145794500Y-103373432D01*
X145790859Y-103364642D01*
X145782069Y-103361001D01*
X145656323Y-103361001D01*
X145652551Y-103361229D01*
X145570107Y-103371205D01*
X145562386Y-103373165D01*
X145432141Y-103424732D01*
X145424781Y-103428879D01*
X145313393Y-103513428D01*
X145307428Y-103519393D01*
X145222879Y-103630781D01*
X145218732Y-103638141D01*
X145167166Y-103768385D01*
X145165204Y-103776108D01*
X145155227Y-103858551D01*
X145155000Y-103862322D01*
X145155000Y-103975569D01*
X144761900Y-103975569D01*
X144761900Y-103871778D01*
X144760403Y-103862322D01*
X144748190Y-103785215D01*
X144748189Y-103785213D01*
X144747420Y-103780356D01*
X144705203Y-103697500D01*
X144693510Y-103674550D01*
X144693509Y-103674549D01*
X144691277Y-103670168D01*
X144603832Y-103582723D01*
X144599451Y-103580491D01*
X144599450Y-103580490D01*
X144560626Y-103560709D01*
X144529559Y-103524335D01*
X144526500Y-103505021D01*
X144526500Y-103028222D01*
X144527701Y-103016029D01*
X144530285Y-103003038D01*
X144531486Y-102997000D01*
X144511734Y-102897699D01*
X144482972Y-102854653D01*
X144469684Y-102834767D01*
X144469682Y-102834765D01*
X144458903Y-102818633D01*
X144455484Y-102813516D01*
X144450366Y-102810096D01*
X144439350Y-102802735D01*
X144429880Y-102794963D01*
X144144333Y-102509416D01*
X144126027Y-102465222D01*
X144130537Y-102441910D01*
X144132257Y-102437633D01*
X144140568Y-102416959D01*
X144143881Y-102408718D01*
X144143882Y-102408714D01*
X144145285Y-102405224D01*
X144167551Y-102248774D01*
X144167695Y-102235000D01*
X144148710Y-102078118D01*
X144141951Y-102060229D01*
X144094184Y-101933818D01*
X144092852Y-101930293D01*
X144003344Y-101800058D01*
X143885355Y-101694934D01*
X143764314Y-101630846D01*
X144588263Y-101630846D01*
X144590178Y-101635469D01*
X144666283Y-101685270D01*
X144672471Y-101688396D01*
X144834993Y-101748837D01*
X144841723Y-101750516D01*
X145013595Y-101773448D01*
X145020532Y-101773594D01*
X145193213Y-101757878D01*
X145200011Y-101756483D01*
X145364913Y-101702902D01*
X145371239Y-101700032D01*
X145475111Y-101638113D01*
X145480796Y-101630485D01*
X145480159Y-101626119D01*
X145042790Y-101188750D01*
X145034000Y-101185109D01*
X145025210Y-101188750D01*
X144591904Y-101622056D01*
X144588263Y-101630846D01*
X143764314Y-101630846D01*
X143745697Y-101620989D01*
X143592431Y-101582491D01*
X143588666Y-101582471D01*
X143588664Y-101582471D01*
X143510562Y-101582063D01*
X143434406Y-101581664D01*
X143430742Y-101582544D01*
X143430739Y-101582544D01*
X143377407Y-101595348D01*
X143280746Y-101618554D01*
X143277404Y-101620279D01*
X143277401Y-101620280D01*
X143242851Y-101638113D01*
X143140321Y-101691033D01*
X143021237Y-101794916D01*
X143019071Y-101797998D01*
X143019070Y-101797999D01*
X142982738Y-101849695D01*
X142930371Y-101924206D01*
X142898455Y-102006067D01*
X142875631Y-102064608D01*
X142872968Y-102071438D01*
X142872476Y-102075175D01*
X142854262Y-102213525D01*
X142852341Y-102228113D01*
X142869682Y-102385185D01*
X142870976Y-102388722D01*
X142870977Y-102388725D01*
X142888875Y-102437633D01*
X142923989Y-102533587D01*
X142938315Y-102554906D01*
X142992156Y-102635029D01*
X143012128Y-102664751D01*
X143129010Y-102771105D01*
X143132319Y-102772902D01*
X143132321Y-102772903D01*
X143187265Y-102802735D01*
X143267886Y-102846509D01*
X143271533Y-102847466D01*
X143271536Y-102847467D01*
X143417093Y-102885653D01*
X143420741Y-102886610D01*
X143505123Y-102887935D01*
X143574979Y-102889033D01*
X143574981Y-102889033D01*
X143578748Y-102889092D01*
X143728467Y-102854802D01*
X143775632Y-102862780D01*
X143786614Y-102871531D01*
X143999194Y-103084111D01*
X144017500Y-103128305D01*
X144017500Y-103449600D01*
X143999194Y-103493794D01*
X143955000Y-103512100D01*
X143840778Y-103512100D01*
X143838356Y-103512484D01*
X143838351Y-103512484D01*
X143754215Y-103525810D01*
X143754213Y-103525811D01*
X143749356Y-103526580D01*
X143744972Y-103528814D01*
X143744971Y-103528814D01*
X143643550Y-103580490D01*
X143643549Y-103580491D01*
X143639168Y-103582723D01*
X143551723Y-103670168D01*
X143550646Y-103672281D01*
X143510747Y-103696731D01*
X143500971Y-103697500D01*
X143209399Y-103697500D01*
X143165205Y-103679194D01*
X143146899Y-103635000D01*
X143146899Y-103536944D01*
X143144685Y-103525809D01*
X143139229Y-103498380D01*
X143139228Y-103498377D01*
X143138028Y-103492342D01*
X143104234Y-103441766D01*
X143053658Y-103407972D01*
X143009057Y-103399100D01*
X142544076Y-103399100D01*
X142078944Y-103399101D01*
X142075935Y-103399700D01*
X142075930Y-103399700D01*
X142042165Y-103406416D01*
X142034342Y-103407972D01*
X141983766Y-103441766D01*
X141949972Y-103492342D01*
X141941100Y-103536943D01*
X141941101Y-104367056D01*
X141941700Y-104370065D01*
X141941700Y-104370070D01*
X141943253Y-104377878D01*
X141949972Y-104411658D01*
X141983766Y-104462234D01*
X142034342Y-104496028D01*
X142078943Y-104504900D01*
X142543924Y-104504900D01*
X143009056Y-104504899D01*
X143012065Y-104504300D01*
X143012070Y-104504300D01*
X143047620Y-104497229D01*
X143053658Y-104496028D01*
X143104234Y-104462234D01*
X143138028Y-104411658D01*
X143146900Y-104367057D01*
X143146900Y-104269000D01*
X143165206Y-104224806D01*
X143209400Y-104206500D01*
X143418600Y-104206500D01*
X143462794Y-104224806D01*
X143481100Y-104269000D01*
X143481100Y-104408222D01*
X143481484Y-104410644D01*
X143481484Y-104410649D01*
X143494810Y-104494785D01*
X143495580Y-104499644D01*
X143497814Y-104504028D01*
X143497814Y-104504029D01*
X143524613Y-104556626D01*
X143528366Y-104604314D01*
X143497299Y-104640688D01*
X143468925Y-104647500D01*
X142175900Y-104647500D01*
X142163707Y-104646299D01*
X142150716Y-104643715D01*
X142144678Y-104642514D01*
X142119611Y-104647500D01*
X142064848Y-104658393D01*
X142045377Y-104662266D01*
X141982444Y-104704316D01*
X141982442Y-104704318D01*
X141982439Y-104704320D01*
X141970559Y-104712258D01*
X141961194Y-104718516D01*
X141957775Y-104723633D01*
X141957774Y-104723634D01*
X141950415Y-104734647D01*
X141942643Y-104744117D01*
X141632595Y-105054165D01*
X141588401Y-105072471D01*
X141544207Y-105054165D01*
X141525901Y-105009971D01*
X141525901Y-103964623D01*
X141527102Y-103952430D01*
X141529686Y-103939439D01*
X141530887Y-103933401D01*
X141511135Y-103834100D01*
X141469085Y-103771168D01*
X141469084Y-103771167D01*
X141454885Y-103749917D01*
X141449767Y-103746497D01*
X141438751Y-103739136D01*
X141429281Y-103731364D01*
X140814806Y-103116888D01*
X140796500Y-103072694D01*
X140796500Y-101650434D01*
X140814806Y-101606240D01*
X140849222Y-101588704D01*
X140909280Y-101579191D01*
X140909284Y-101579190D01*
X140914144Y-101578420D01*
X140918529Y-101576186D01*
X141019950Y-101524510D01*
X141019951Y-101524509D01*
X141024332Y-101522277D01*
X141111777Y-101434832D01*
X141123868Y-101411103D01*
X141165686Y-101329029D01*
X141165686Y-101329028D01*
X141167920Y-101324644D01*
X141170657Y-101307365D01*
X141182016Y-101235649D01*
X141182016Y-101235644D01*
X141182400Y-101233222D01*
X141726600Y-101233222D01*
X141726984Y-101235644D01*
X141726984Y-101235649D01*
X141738343Y-101307365D01*
X141741080Y-101324644D01*
X141743314Y-101329028D01*
X141743314Y-101329029D01*
X141785133Y-101411103D01*
X141797223Y-101434832D01*
X141884668Y-101522277D01*
X141889049Y-101524509D01*
X141889050Y-101524510D01*
X141990471Y-101576186D01*
X141994856Y-101578420D01*
X141999713Y-101579189D01*
X141999715Y-101579190D01*
X142083851Y-101592516D01*
X142083856Y-101592516D01*
X142086278Y-101592900D01*
X142647722Y-101592900D01*
X142650144Y-101592516D01*
X142650149Y-101592516D01*
X142734285Y-101579190D01*
X142734287Y-101579189D01*
X142739144Y-101578420D01*
X142743529Y-101576186D01*
X142844950Y-101524510D01*
X142844951Y-101524509D01*
X142849332Y-101522277D01*
X142936777Y-101434832D01*
X142948868Y-101411103D01*
X142990686Y-101329029D01*
X142990686Y-101329028D01*
X142992920Y-101324644D01*
X142995657Y-101307365D01*
X143007016Y-101235649D01*
X143007016Y-101235644D01*
X143007400Y-101233222D01*
X143007400Y-100957180D01*
X144225333Y-100957180D01*
X144242252Y-101129745D01*
X144243695Y-101136531D01*
X144298425Y-101301055D01*
X144301341Y-101307365D01*
X144361034Y-101405930D01*
X144368704Y-101411564D01*
X144373158Y-101410882D01*
X144810250Y-100973790D01*
X144813891Y-100965000D01*
X144810250Y-100956210D01*
X144376865Y-100522825D01*
X144368075Y-100519184D01*
X144363548Y-100521059D01*
X144311182Y-100602317D01*
X144308097Y-100608531D01*
X144248794Y-100771466D01*
X144247161Y-100778219D01*
X144225430Y-100950235D01*
X144225333Y-100957180D01*
X143007400Y-100957180D01*
X143007400Y-100696778D01*
X142992920Y-100605356D01*
X142984901Y-100589617D01*
X142939010Y-100499550D01*
X142939009Y-100499549D01*
X142936777Y-100495168D01*
X142849332Y-100407723D01*
X142844951Y-100405491D01*
X142844950Y-100405490D01*
X142743529Y-100353814D01*
X142743528Y-100353814D01*
X142739144Y-100351580D01*
X142734287Y-100350811D01*
X142734285Y-100350810D01*
X142721478Y-100348782D01*
X142680691Y-100323788D01*
X142669524Y-100277274D01*
X142687061Y-100242857D01*
X142875242Y-100054675D01*
X142919436Y-100036369D01*
X142963630Y-100054675D01*
X142971312Y-100064010D01*
X143009335Y-100120594D01*
X143012128Y-100124751D01*
X143129010Y-100231105D01*
X143132319Y-100232902D01*
X143132321Y-100232903D01*
X143180078Y-100258833D01*
X143267886Y-100306509D01*
X143271533Y-100307466D01*
X143271536Y-100307467D01*
X143375160Y-100334652D01*
X143420741Y-100346610D01*
X143505123Y-100347935D01*
X143574979Y-100349033D01*
X143574981Y-100349033D01*
X143578748Y-100349092D01*
X143732786Y-100313813D01*
X143760522Y-100299863D01*
X144587638Y-100299863D01*
X144588366Y-100304406D01*
X145025210Y-100741250D01*
X145034000Y-100744891D01*
X145042790Y-100741250D01*
X145476281Y-100307759D01*
X145479922Y-100298969D01*
X145478085Y-100294536D01*
X145391634Y-100239672D01*
X145385388Y-100236625D01*
X145222049Y-100178463D01*
X145215281Y-100176876D01*
X145043115Y-100156346D01*
X145036179Y-100156298D01*
X144863730Y-100174422D01*
X144856958Y-100175911D01*
X144692814Y-100231791D01*
X144686532Y-100234747D01*
X144593218Y-100292155D01*
X144587638Y-100299863D01*
X143760522Y-100299863D01*
X143873963Y-100242808D01*
X143881203Y-100236625D01*
X143991262Y-100142625D01*
X143994127Y-100140178D01*
X144060194Y-100048237D01*
X144084145Y-100014906D01*
X144084145Y-100014905D01*
X144086343Y-100011847D01*
X144087748Y-100008353D01*
X144143881Y-99868718D01*
X144143882Y-99868714D01*
X144145285Y-99865224D01*
X144167551Y-99708774D01*
X144167695Y-99695000D01*
X144148710Y-99538118D01*
X144147030Y-99533670D01*
X144094184Y-99393818D01*
X144094183Y-99393816D01*
X144092852Y-99390293D01*
X144003344Y-99260058D01*
X143885355Y-99154934D01*
X143745697Y-99080989D01*
X143592431Y-99042491D01*
X143588666Y-99042471D01*
X143588664Y-99042471D01*
X143510562Y-99042063D01*
X143434406Y-99041664D01*
X143430742Y-99042544D01*
X143430739Y-99042544D01*
X143377407Y-99055348D01*
X143280746Y-99078554D01*
X143277404Y-99080279D01*
X143277401Y-99080280D01*
X143272614Y-99082751D01*
X143140321Y-99151033D01*
X143106013Y-99180962D01*
X143026358Y-99250449D01*
X143021237Y-99254916D01*
X143019071Y-99257998D01*
X143019070Y-99257999D01*
X142999179Y-99286301D01*
X142930371Y-99384206D01*
X142929002Y-99387717D01*
X142929000Y-99387721D01*
X142925413Y-99396921D01*
X142892303Y-99431446D01*
X142874916Y-99435094D01*
X142875000Y-99435515D01*
X142849942Y-99440499D01*
X142849934Y-99440500D01*
X142849931Y-99440500D01*
X142849926Y-99440501D01*
X142781735Y-99454065D01*
X142781733Y-99454066D01*
X142775699Y-99455266D01*
X142770585Y-99458683D01*
X142770583Y-99458684D01*
X142712768Y-99497316D01*
X142696633Y-99508097D01*
X142691516Y-99511516D01*
X142688097Y-99516633D01*
X142688096Y-99516634D01*
X142680735Y-99527650D01*
X142672963Y-99537120D01*
X142209117Y-100000965D01*
X142199647Y-100008737D01*
X142188634Y-100016096D01*
X142183516Y-100019516D01*
X142169319Y-100040763D01*
X142169316Y-100040766D01*
X142127266Y-100103699D01*
X142107514Y-100203000D01*
X142108715Y-100209038D01*
X142111299Y-100222029D01*
X142112500Y-100234222D01*
X142112500Y-100279566D01*
X142094194Y-100323760D01*
X142059778Y-100341296D01*
X141999720Y-100350809D01*
X141999716Y-100350810D01*
X141994856Y-100351580D01*
X141990472Y-100353814D01*
X141990471Y-100353814D01*
X141889050Y-100405490D01*
X141889049Y-100405491D01*
X141884668Y-100407723D01*
X141797223Y-100495168D01*
X141794991Y-100499549D01*
X141794990Y-100499550D01*
X141749099Y-100589617D01*
X141741080Y-100605356D01*
X141726600Y-100696778D01*
X141726600Y-101233222D01*
X141182400Y-101233222D01*
X141182400Y-100696778D01*
X141167920Y-100605356D01*
X141159901Y-100589617D01*
X141114010Y-100499550D01*
X141114009Y-100499549D01*
X141111777Y-100495168D01*
X141024332Y-100407723D01*
X141019951Y-100405491D01*
X141019950Y-100405490D01*
X140918529Y-100353814D01*
X140918528Y-100353814D01*
X140914144Y-100351580D01*
X140909284Y-100350810D01*
X140909280Y-100350809D01*
X140849222Y-100341296D01*
X140808436Y-100316302D01*
X140796500Y-100279566D01*
X140796500Y-99110434D01*
X140814806Y-99066240D01*
X140849222Y-99048704D01*
X140909280Y-99039191D01*
X140909284Y-99039190D01*
X140914144Y-99038420D01*
X140918529Y-99036186D01*
X141019950Y-98984510D01*
X141019951Y-98984509D01*
X141024332Y-98982277D01*
X141111777Y-98894832D01*
X141125898Y-98867119D01*
X141165686Y-98789029D01*
X141165686Y-98789028D01*
X141167920Y-98784644D01*
X141168690Y-98779785D01*
X141182016Y-98695649D01*
X141182016Y-98695644D01*
X141182400Y-98693222D01*
X141182400Y-98156778D01*
X141178174Y-98130092D01*
X141168690Y-98070215D01*
X141168689Y-98070213D01*
X141167920Y-98065356D01*
X141165686Y-98060971D01*
X141114010Y-97959550D01*
X141114009Y-97959549D01*
X141111777Y-97955168D01*
X141024332Y-97867723D01*
X141019951Y-97865491D01*
X141019950Y-97865490D01*
X140918529Y-97813814D01*
X140918528Y-97813814D01*
X140914144Y-97811580D01*
X140909284Y-97810810D01*
X140909280Y-97810809D01*
X140849222Y-97801296D01*
X140808436Y-97776302D01*
X140796500Y-97739566D01*
X140796500Y-96570434D01*
X140814806Y-96526240D01*
X140849222Y-96508704D01*
X140909280Y-96499191D01*
X140909284Y-96499190D01*
X140914144Y-96498420D01*
X140918529Y-96496186D01*
X141019950Y-96444510D01*
X141019951Y-96444509D01*
X141024332Y-96442277D01*
X141111777Y-96354832D01*
X141125898Y-96327119D01*
X141165686Y-96249029D01*
X141165686Y-96249028D01*
X141167920Y-96244644D01*
X141170413Y-96228907D01*
X141182016Y-96155649D01*
X141182016Y-96155644D01*
X141182400Y-96153222D01*
X141726600Y-96153222D01*
X141726984Y-96155644D01*
X141726984Y-96155649D01*
X141738587Y-96228907D01*
X141741080Y-96244644D01*
X141743314Y-96249028D01*
X141743314Y-96249029D01*
X141783103Y-96327119D01*
X141797223Y-96354832D01*
X141884668Y-96442277D01*
X141889049Y-96444509D01*
X141889050Y-96444510D01*
X141990471Y-96496186D01*
X141994856Y-96498420D01*
X141999716Y-96499190D01*
X141999720Y-96499191D01*
X142059778Y-96508704D01*
X142100564Y-96533698D01*
X142112500Y-96570434D01*
X142112500Y-96615778D01*
X142111299Y-96627971D01*
X142107514Y-96647000D01*
X142127266Y-96746301D01*
X142169316Y-96809234D01*
X142169319Y-96809237D01*
X142183516Y-96830484D01*
X142188633Y-96833903D01*
X142188634Y-96833904D01*
X142199647Y-96841263D01*
X142209117Y-96849035D01*
X142672963Y-97312880D01*
X142680735Y-97322350D01*
X142684990Y-97328718D01*
X142691516Y-97338484D01*
X142696633Y-97341903D01*
X142712766Y-97352683D01*
X142742126Y-97372301D01*
X142770580Y-97391314D01*
X142770582Y-97391315D01*
X142775699Y-97394734D01*
X142806718Y-97400904D01*
X142849926Y-97409499D01*
X142849931Y-97409500D01*
X142849934Y-97409500D01*
X142849942Y-97409501D01*
X142875000Y-97414485D01*
X142874510Y-97416949D01*
X142909855Y-97431590D01*
X142921348Y-97447408D01*
X142922696Y-97450053D01*
X142923989Y-97453587D01*
X143012128Y-97584751D01*
X143129010Y-97691105D01*
X143132319Y-97692902D01*
X143132321Y-97692903D01*
X143218263Y-97739566D01*
X143267886Y-97766509D01*
X143271533Y-97767466D01*
X143271536Y-97767467D01*
X143400485Y-97801296D01*
X143420741Y-97806610D01*
X143505123Y-97807935D01*
X143574979Y-97809033D01*
X143574981Y-97809033D01*
X143578748Y-97809092D01*
X143732786Y-97773813D01*
X143873963Y-97702808D01*
X143887666Y-97691105D01*
X143991262Y-97602625D01*
X143994127Y-97600178D01*
X144086343Y-97471847D01*
X144092426Y-97456716D01*
X144143881Y-97328718D01*
X144143882Y-97328714D01*
X144145285Y-97325224D01*
X144167551Y-97168774D01*
X144167695Y-97155000D01*
X144148710Y-96998118D01*
X144092852Y-96850293D01*
X144003344Y-96720058D01*
X143885355Y-96614934D01*
X143745697Y-96540989D01*
X143592431Y-96502491D01*
X143588666Y-96502471D01*
X143588664Y-96502471D01*
X143510562Y-96502063D01*
X143434406Y-96501664D01*
X143430742Y-96502544D01*
X143430739Y-96502544D01*
X143377407Y-96515348D01*
X143280746Y-96538554D01*
X143277404Y-96540279D01*
X143277401Y-96540280D01*
X143218980Y-96570434D01*
X143140321Y-96611033D01*
X143106013Y-96640962D01*
X143045214Y-96694000D01*
X143021237Y-96714916D01*
X143019071Y-96717998D01*
X143019070Y-96717999D01*
X142970545Y-96787044D01*
X142930157Y-96812675D01*
X142883473Y-96802240D01*
X142875217Y-96795300D01*
X142687061Y-96607143D01*
X142668755Y-96562949D01*
X142687061Y-96518755D01*
X142721478Y-96501218D01*
X142734285Y-96499190D01*
X142734287Y-96499189D01*
X142739144Y-96498420D01*
X142743529Y-96496186D01*
X142844950Y-96444510D01*
X142844951Y-96444509D01*
X142849332Y-96442277D01*
X142936777Y-96354832D01*
X142950898Y-96327119D01*
X142990686Y-96249029D01*
X142990686Y-96249028D01*
X142992920Y-96244644D01*
X142995413Y-96228907D01*
X143007016Y-96155649D01*
X143007016Y-96155644D01*
X143007400Y-96153222D01*
X143007400Y-95616778D01*
X143001622Y-95580293D01*
X142993690Y-95530215D01*
X142993689Y-95530213D01*
X142992920Y-95525356D01*
X142990686Y-95520971D01*
X142939010Y-95419550D01*
X142939009Y-95419549D01*
X142936777Y-95415168D01*
X142849332Y-95327723D01*
X142844951Y-95325491D01*
X142844950Y-95325490D01*
X142743529Y-95273814D01*
X142743528Y-95273814D01*
X142739144Y-95271580D01*
X142734287Y-95270811D01*
X142734285Y-95270810D01*
X142650149Y-95257484D01*
X142650144Y-95257484D01*
X142647722Y-95257100D01*
X142086278Y-95257100D01*
X142083856Y-95257484D01*
X142083851Y-95257484D01*
X141999715Y-95270810D01*
X141999713Y-95270811D01*
X141994856Y-95271580D01*
X141990472Y-95273814D01*
X141990471Y-95273814D01*
X141889050Y-95325490D01*
X141889049Y-95325491D01*
X141884668Y-95327723D01*
X141797223Y-95415168D01*
X141794991Y-95419549D01*
X141794990Y-95419550D01*
X141743314Y-95520971D01*
X141741080Y-95525356D01*
X141740311Y-95530213D01*
X141740310Y-95530215D01*
X141732379Y-95580293D01*
X141726600Y-95616778D01*
X141726600Y-96153222D01*
X141182400Y-96153222D01*
X141182400Y-95616778D01*
X141176622Y-95580293D01*
X141168690Y-95530215D01*
X141168689Y-95530213D01*
X141167920Y-95525356D01*
X141165686Y-95520971D01*
X141114010Y-95419550D01*
X141114009Y-95419549D01*
X141111777Y-95415168D01*
X141024332Y-95327723D01*
X141019951Y-95325491D01*
X141019950Y-95325490D01*
X140918529Y-95273814D01*
X140918528Y-95273814D01*
X140914144Y-95271580D01*
X140909287Y-95270811D01*
X140909285Y-95270810D01*
X140825149Y-95257484D01*
X140825144Y-95257484D01*
X140822722Y-95257100D01*
X140261278Y-95257100D01*
X140258856Y-95257484D01*
X140258851Y-95257484D01*
X140174715Y-95270810D01*
X140174713Y-95270811D01*
X140169856Y-95271580D01*
X140165472Y-95273814D01*
X140165471Y-95273814D01*
X140093784Y-95310340D01*
X140046096Y-95314093D01*
X140009722Y-95283026D01*
X140002910Y-95254652D01*
X140002910Y-95127306D01*
X140021216Y-95083112D01*
X140216521Y-94887806D01*
X140260715Y-94869500D01*
X142864173Y-94869500D01*
X142908367Y-94887806D01*
X142920560Y-94906906D01*
X142920983Y-94906690D01*
X142922694Y-94910049D01*
X142923989Y-94913587D01*
X142926089Y-94916712D01*
X142926091Y-94916716D01*
X143008724Y-95039686D01*
X143012128Y-95044751D01*
X143129010Y-95151105D01*
X143132319Y-95152902D01*
X143132321Y-95152903D01*
X143230687Y-95206312D01*
X143267886Y-95226509D01*
X143271533Y-95227466D01*
X143271536Y-95227467D01*
X143409645Y-95263699D01*
X143420741Y-95266610D01*
X143505123Y-95267935D01*
X143574979Y-95269033D01*
X143574981Y-95269033D01*
X143578748Y-95269092D01*
X143732786Y-95233813D01*
X143873963Y-95162808D01*
X143881059Y-95156748D01*
X143991262Y-95062625D01*
X143994127Y-95060178D01*
X144086343Y-94931847D01*
X144092426Y-94916716D01*
X144143881Y-94788718D01*
X144143882Y-94788714D01*
X144145285Y-94785224D01*
X144167551Y-94628774D01*
X144167695Y-94615000D01*
X144148710Y-94458118D01*
X144118696Y-94378686D01*
X144094184Y-94313818D01*
X144092852Y-94310293D01*
X144003344Y-94180058D01*
X143885355Y-94074934D01*
X143882023Y-94073170D01*
X143881298Y-94072666D01*
X143855452Y-94032414D01*
X143865640Y-93985676D01*
X143872770Y-93977148D01*
X143874612Y-93975306D01*
X143918806Y-93957000D01*
X146507566Y-93957000D01*
X146551760Y-93975306D01*
G37*
%TD.AperFunction*%
%TA.AperFunction,Conductor*%
G36*
X148756888Y-95014806D02*
G01*
X148989236Y-95247154D01*
X149007542Y-95291348D01*
X148989236Y-95335542D01*
X148983059Y-95340652D01*
X148982321Y-95341033D01*
X148979485Y-95343507D01*
X148979482Y-95343509D01*
X148866075Y-95442440D01*
X148863237Y-95444916D01*
X148861071Y-95447998D01*
X148861070Y-95447999D01*
X148830778Y-95491101D01*
X148772371Y-95574206D01*
X148714968Y-95721438D01*
X148694341Y-95878113D01*
X148711682Y-96035185D01*
X148712976Y-96038721D01*
X148712977Y-96038725D01*
X148732858Y-96093051D01*
X148730855Y-96140845D01*
X148718359Y-96158724D01*
X148432117Y-96444965D01*
X148422647Y-96452737D01*
X148411634Y-96460096D01*
X148406516Y-96463516D01*
X148392319Y-96484763D01*
X148392316Y-96484766D01*
X148350266Y-96547699D01*
X148330514Y-96647000D01*
X148331715Y-96653038D01*
X148334299Y-96666029D01*
X148335500Y-96678222D01*
X148335500Y-99155778D01*
X148334299Y-99167971D01*
X148330514Y-99187000D01*
X148350266Y-99286301D01*
X148392316Y-99349234D01*
X148392319Y-99349237D01*
X148406516Y-99370484D01*
X148411633Y-99373903D01*
X148411634Y-99373904D01*
X148422647Y-99381263D01*
X148432117Y-99389035D01*
X148974367Y-99931284D01*
X148982139Y-99940754D01*
X148992920Y-99956888D01*
X148998037Y-99960307D01*
X149071984Y-100009718D01*
X149071986Y-100009719D01*
X149077103Y-100013138D01*
X149108122Y-100019308D01*
X149151330Y-100027903D01*
X149151335Y-100027904D01*
X149151338Y-100027904D01*
X149151346Y-100027905D01*
X149176404Y-100032889D01*
X149182442Y-100031688D01*
X149195429Y-100029105D01*
X149207621Y-100027904D01*
X149275053Y-100027904D01*
X149319247Y-100046210D01*
X149337553Y-100090404D01*
X149319247Y-100134598D01*
X149281586Y-100152562D01*
X149194430Y-100161722D01*
X149187658Y-100163211D01*
X149023514Y-100219091D01*
X149017232Y-100222047D01*
X148923918Y-100279455D01*
X148918338Y-100287163D01*
X148919066Y-100291706D01*
X149535466Y-100908106D01*
X149553772Y-100952300D01*
X149535466Y-100996494D01*
X148922604Y-101609356D01*
X148918963Y-101618146D01*
X148920878Y-101622769D01*
X148996983Y-101672570D01*
X149003171Y-101675696D01*
X149165693Y-101736137D01*
X149172423Y-101737816D01*
X149344295Y-101760748D01*
X149351233Y-101760894D01*
X149478354Y-101749325D01*
X149524025Y-101763550D01*
X149546261Y-101805904D01*
X149532036Y-101851575D01*
X149528212Y-101855762D01*
X149194117Y-102189857D01*
X149184647Y-102197629D01*
X149173634Y-102204988D01*
X149168516Y-102208408D01*
X149154319Y-102229655D01*
X149154316Y-102229658D01*
X149112266Y-102292591D01*
X149092514Y-102391892D01*
X149093715Y-102397930D01*
X149096299Y-102410921D01*
X149097500Y-102423114D01*
X149097500Y-103406416D01*
X149079194Y-103450610D01*
X149035000Y-103468916D01*
X148997213Y-103456199D01*
X148961223Y-103428881D01*
X148953859Y-103424732D01*
X148823615Y-103373166D01*
X148815892Y-103371204D01*
X148733449Y-103361227D01*
X148729678Y-103361000D01*
X148603931Y-103361000D01*
X148595141Y-103364641D01*
X148591500Y-103373431D01*
X148591500Y-104229500D01*
X148573194Y-104273694D01*
X148529000Y-104292000D01*
X147660432Y-104292000D01*
X147651642Y-104295641D01*
X147648001Y-104304431D01*
X147648001Y-104417677D01*
X147648229Y-104421449D01*
X147658205Y-104503893D01*
X147660165Y-104511614D01*
X147711732Y-104641859D01*
X147715879Y-104649219D01*
X147800428Y-104760607D01*
X147806393Y-104766572D01*
X147917781Y-104851121D01*
X147925141Y-104855268D01*
X148055385Y-104906834D01*
X148063109Y-104908796D01*
X148128676Y-104916730D01*
X148170351Y-104940212D01*
X148183215Y-104986285D01*
X148159733Y-105027960D01*
X148130946Y-105040507D01*
X148072220Y-105049809D01*
X148072216Y-105049810D01*
X148067356Y-105050580D01*
X148062972Y-105052814D01*
X148062971Y-105052814D01*
X147961550Y-105104490D01*
X147961549Y-105104491D01*
X147957168Y-105106723D01*
X147869723Y-105194168D01*
X147867491Y-105198549D01*
X147867490Y-105198550D01*
X147815953Y-105299699D01*
X147813580Y-105304356D01*
X147812811Y-105309213D01*
X147812810Y-105309215D01*
X147800455Y-105387224D01*
X147799100Y-105395778D01*
X147799100Y-105932222D01*
X147799484Y-105934644D01*
X147799484Y-105934649D01*
X147812810Y-106018785D01*
X147813580Y-106023644D01*
X147815814Y-106028028D01*
X147815814Y-106028029D01*
X147867490Y-106129449D01*
X147869723Y-106133832D01*
X147957168Y-106221277D01*
X147961549Y-106223509D01*
X147961550Y-106223510D01*
X148056889Y-106272087D01*
X148067356Y-106277420D01*
X148072213Y-106278189D01*
X148072215Y-106278190D01*
X148156351Y-106291516D01*
X148156356Y-106291516D01*
X148158778Y-106291900D01*
X148720222Y-106291900D01*
X148722644Y-106291516D01*
X148722649Y-106291516D01*
X148806785Y-106278190D01*
X148806787Y-106278189D01*
X148811644Y-106277420D01*
X148822111Y-106272087D01*
X148917450Y-106223510D01*
X148917451Y-106223509D01*
X148921832Y-106221277D01*
X149009277Y-106133832D01*
X149011511Y-106129449D01*
X149063186Y-106028029D01*
X149063186Y-106028028D01*
X149065420Y-106023644D01*
X149066190Y-106018785D01*
X149079516Y-105934649D01*
X149079516Y-105934644D01*
X149079900Y-105932222D01*
X149079900Y-105409406D01*
X149098206Y-105365212D01*
X149509883Y-104953535D01*
X149519353Y-104945763D01*
X149530366Y-104938404D01*
X149530367Y-104938403D01*
X149535484Y-104934984D01*
X149547681Y-104916730D01*
X149549680Y-104913739D01*
X149549682Y-104913736D01*
X149549684Y-104913734D01*
X149591734Y-104850801D01*
X149611486Y-104751500D01*
X149607701Y-104732471D01*
X149606500Y-104720278D01*
X149606500Y-104672497D01*
X149624806Y-104628303D01*
X149669000Y-104609997D01*
X149713194Y-104628303D01*
X149782168Y-104697277D01*
X149786549Y-104699509D01*
X149786550Y-104699510D01*
X149876737Y-104745462D01*
X149892356Y-104753420D01*
X149897213Y-104754189D01*
X149897215Y-104754190D01*
X149981351Y-104767516D01*
X149981356Y-104767516D01*
X149983778Y-104767900D01*
X150506594Y-104767900D01*
X150550788Y-104786206D01*
X150721584Y-104957002D01*
X150739890Y-105001196D01*
X150721584Y-105045390D01*
X150677390Y-105063696D01*
X150649018Y-105056885D01*
X150636644Y-105050580D01*
X150631787Y-105049811D01*
X150631785Y-105049810D01*
X150547649Y-105036484D01*
X150547644Y-105036484D01*
X150545222Y-105036100D01*
X149983778Y-105036100D01*
X149981356Y-105036484D01*
X149981351Y-105036484D01*
X149897215Y-105049810D01*
X149897213Y-105049811D01*
X149892356Y-105050580D01*
X149887972Y-105052814D01*
X149887971Y-105052814D01*
X149786550Y-105104490D01*
X149786549Y-105104491D01*
X149782168Y-105106723D01*
X149694723Y-105194168D01*
X149692491Y-105198549D01*
X149692490Y-105198550D01*
X149640953Y-105299699D01*
X149638580Y-105304356D01*
X149637811Y-105309213D01*
X149637810Y-105309215D01*
X149625455Y-105387224D01*
X149624100Y-105395778D01*
X149624100Y-105932222D01*
X149624484Y-105934644D01*
X149624484Y-105934649D01*
X149637810Y-106018785D01*
X149638580Y-106023644D01*
X149640814Y-106028028D01*
X149640814Y-106028029D01*
X149666339Y-106078125D01*
X149694723Y-106133832D01*
X149698201Y-106137310D01*
X149699460Y-106139043D01*
X149710626Y-106185557D01*
X149693090Y-106219973D01*
X149662317Y-106250746D01*
X149652846Y-106258519D01*
X149648675Y-106261306D01*
X149648674Y-106261307D01*
X149627424Y-106275506D01*
X149624005Y-106280623D01*
X149624004Y-106280624D01*
X149616643Y-106291640D01*
X149608871Y-106301110D01*
X149365107Y-106544873D01*
X149355637Y-106552645D01*
X149344624Y-106560004D01*
X149339506Y-106563424D01*
X149336087Y-106568541D01*
X149325312Y-106584666D01*
X149325306Y-106584674D01*
X149322514Y-106588852D01*
X149314743Y-106598320D01*
X149194117Y-106718946D01*
X149184645Y-106726720D01*
X149179474Y-106730175D01*
X149132558Y-106739506D01*
X149094969Y-106715995D01*
X149078572Y-106694393D01*
X149072607Y-106688428D01*
X148961219Y-106603879D01*
X148953859Y-106599732D01*
X148823615Y-106548166D01*
X148815892Y-106546204D01*
X148733449Y-106536227D01*
X148729678Y-106536000D01*
X148603931Y-106536000D01*
X148595141Y-106539641D01*
X148591500Y-106548431D01*
X148591500Y-108081568D01*
X148595141Y-108090358D01*
X148603931Y-108093999D01*
X148729677Y-108093999D01*
X148733449Y-108093771D01*
X148815893Y-108083795D01*
X148823614Y-108081835D01*
X148953859Y-108030268D01*
X148961219Y-108026121D01*
X149072607Y-107941572D01*
X149078572Y-107935607D01*
X149097471Y-107910709D01*
X149138772Y-107886575D01*
X149181972Y-107896527D01*
X149184641Y-107898310D01*
X149194117Y-107906086D01*
X149649912Y-108361880D01*
X149657684Y-108371350D01*
X149668465Y-108387484D01*
X149673582Y-108390903D01*
X149689715Y-108401683D01*
X149689722Y-108401688D01*
X149693333Y-108404101D01*
X149693338Y-108404104D01*
X149747529Y-108440314D01*
X149747531Y-108440315D01*
X149752648Y-108443734D01*
X149783421Y-108449855D01*
X149824369Y-108458000D01*
X149832921Y-108459701D01*
X149851949Y-108463486D01*
X149870978Y-108459701D01*
X149883171Y-108458500D01*
X150490694Y-108458500D01*
X150534886Y-108476804D01*
X150592237Y-108534155D01*
X150610542Y-108578346D01*
X150592237Y-108622541D01*
X150548043Y-108640847D01*
X150540820Y-108640428D01*
X150538004Y-108640100D01*
X148797996Y-108640100D01*
X148796167Y-108640318D01*
X148796160Y-108640318D01*
X148786170Y-108641507D01*
X148771588Y-108643242D01*
X148767304Y-108645145D01*
X148767300Y-108645146D01*
X148706063Y-108672347D01*
X148668464Y-108689048D01*
X148664388Y-108693131D01*
X148592819Y-108764824D01*
X148592817Y-108764827D01*
X148588744Y-108768907D01*
X148586411Y-108774184D01*
X148574435Y-108801272D01*
X148539822Y-108834290D01*
X148517272Y-108838500D01*
X148240217Y-108838500D01*
X148228025Y-108837299D01*
X148215038Y-108834716D01*
X148209000Y-108833515D01*
X148202962Y-108834716D01*
X148183942Y-108838499D01*
X148183934Y-108838500D01*
X148183931Y-108838500D01*
X148183926Y-108838501D01*
X148140833Y-108847073D01*
X148109699Y-108853266D01*
X148104582Y-108856685D01*
X148104580Y-108856686D01*
X148075304Y-108876248D01*
X148025516Y-108909516D01*
X148022097Y-108914633D01*
X148022096Y-108914634D01*
X148014735Y-108925650D01*
X148006963Y-108935120D01*
X147670117Y-109271965D01*
X147660647Y-109279737D01*
X147660399Y-109279903D01*
X147644516Y-109290516D01*
X147630319Y-109311763D01*
X147630316Y-109311766D01*
X147616306Y-109332734D01*
X147588266Y-109374699D01*
X147587065Y-109380738D01*
X147576883Y-109431927D01*
X147571897Y-109456995D01*
X147568514Y-109474000D01*
X147569715Y-109480038D01*
X147572299Y-109493029D01*
X147573500Y-109505222D01*
X147573500Y-111982778D01*
X147572299Y-111994971D01*
X147568514Y-112014000D01*
X147588266Y-112113301D01*
X147630316Y-112176234D01*
X147630319Y-112176237D01*
X147644516Y-112197484D01*
X147649633Y-112200903D01*
X147649634Y-112200904D01*
X147660647Y-112208263D01*
X147670117Y-112216035D01*
X147879965Y-112425883D01*
X147887735Y-112435350D01*
X147898516Y-112451484D01*
X147903633Y-112454903D01*
X147919761Y-112465680D01*
X147919764Y-112465682D01*
X147919766Y-112465684D01*
X147982699Y-112507734D01*
X148013718Y-112513904D01*
X148056926Y-112522499D01*
X148056931Y-112522500D01*
X148056934Y-112522500D01*
X148056942Y-112522501D01*
X148068003Y-112524701D01*
X148080444Y-112533014D01*
X148095997Y-112524701D01*
X148101025Y-112523701D01*
X148113217Y-112522500D01*
X148517715Y-112522500D01*
X148561909Y-112540806D01*
X148580215Y-112585000D01*
X148574859Y-112610315D01*
X148574416Y-112611315D01*
X148539779Y-112644307D01*
X148517272Y-112648500D01*
X148108189Y-112648500D01*
X148086046Y-112639328D01*
X148055811Y-112648500D01*
X147705305Y-112648500D01*
X147661111Y-112630194D01*
X147338806Y-112307888D01*
X147320500Y-112263694D01*
X147320500Y-111918217D01*
X147321701Y-111906025D01*
X147324284Y-111893038D01*
X147325485Y-111887000D01*
X147321701Y-111867975D01*
X147320500Y-111855783D01*
X147320500Y-111791217D01*
X147321701Y-111779025D01*
X147324284Y-111766038D01*
X147325485Y-111760000D01*
X147321701Y-111740975D01*
X147320500Y-111728783D01*
X147320500Y-111537217D01*
X147321701Y-111525025D01*
X147324284Y-111512038D01*
X147325485Y-111506000D01*
X147321701Y-111486975D01*
X147320500Y-111474783D01*
X147320500Y-111410217D01*
X147321701Y-111398025D01*
X147324284Y-111385038D01*
X147325485Y-111379000D01*
X147321701Y-111359975D01*
X147320500Y-111347783D01*
X147320500Y-107592677D01*
X147648001Y-107592677D01*
X147648229Y-107596449D01*
X147658205Y-107678893D01*
X147660165Y-107686614D01*
X147711732Y-107816859D01*
X147715879Y-107824219D01*
X147800428Y-107935607D01*
X147806393Y-107941572D01*
X147917781Y-108026121D01*
X147925141Y-108030268D01*
X148055385Y-108081834D01*
X148063108Y-108083796D01*
X148145551Y-108093773D01*
X148149322Y-108094000D01*
X148275069Y-108094000D01*
X148283859Y-108090359D01*
X148287500Y-108081569D01*
X148287500Y-107479431D01*
X148283859Y-107470641D01*
X148275069Y-107467000D01*
X147660432Y-107467000D01*
X147651642Y-107470641D01*
X147648001Y-107479431D01*
X147648001Y-107592677D01*
X147320500Y-107592677D01*
X147320500Y-107150569D01*
X147648000Y-107150569D01*
X147651641Y-107159359D01*
X147660431Y-107163000D01*
X148275069Y-107163000D01*
X148283859Y-107159359D01*
X148287500Y-107150569D01*
X148287500Y-106548432D01*
X148283859Y-106539642D01*
X148275069Y-106536001D01*
X148149323Y-106536001D01*
X148145551Y-106536229D01*
X148063107Y-106546205D01*
X148055386Y-106548165D01*
X147925141Y-106599732D01*
X147917781Y-106603879D01*
X147806393Y-106688428D01*
X147800428Y-106694393D01*
X147715879Y-106805781D01*
X147711732Y-106813141D01*
X147660166Y-106943385D01*
X147658204Y-106951108D01*
X147648227Y-107033551D01*
X147648000Y-107037322D01*
X147648000Y-107150569D01*
X147320500Y-107150569D01*
X147320500Y-103415399D01*
X147338806Y-103371205D01*
X147383000Y-103352899D01*
X147801708Y-103352899D01*
X147804131Y-103352515D01*
X147804134Y-103352515D01*
X147812505Y-103351189D01*
X147829123Y-103348557D01*
X147875636Y-103359725D01*
X147900630Y-103400511D01*
X147889462Y-103447025D01*
X147876687Y-103460071D01*
X147806393Y-103513428D01*
X147800428Y-103519393D01*
X147715879Y-103630781D01*
X147711732Y-103638141D01*
X147660166Y-103768385D01*
X147658204Y-103776108D01*
X147648227Y-103858551D01*
X147648000Y-103862322D01*
X147648000Y-103975569D01*
X147651641Y-103984359D01*
X147660431Y-103988000D01*
X148275069Y-103988000D01*
X148283859Y-103984359D01*
X148287500Y-103975569D01*
X148287500Y-103373432D01*
X148283859Y-103364642D01*
X148275069Y-103361001D01*
X148149323Y-103361001D01*
X148145551Y-103361229D01*
X148078373Y-103369357D01*
X148032300Y-103356493D01*
X148008818Y-103314818D01*
X148021682Y-103268745D01*
X148026671Y-103263116D01*
X148100016Y-103189771D01*
X148157957Y-103076056D01*
X148170478Y-102997000D01*
X148172516Y-102984136D01*
X148172516Y-102984131D01*
X148172900Y-102981709D01*
X148172899Y-102268292D01*
X148157957Y-102173944D01*
X148100016Y-102060229D01*
X148009771Y-101969984D01*
X147896056Y-101912043D01*
X147848690Y-101904541D01*
X147804136Y-101897484D01*
X147804131Y-101897484D01*
X147801709Y-101897100D01*
X147799249Y-101897100D01*
X147320001Y-101897101D01*
X146838292Y-101897101D01*
X146743944Y-101912043D01*
X146649374Y-101960229D01*
X146601687Y-101963982D01*
X146565312Y-101932916D01*
X146558500Y-101904541D01*
X146558500Y-101464514D01*
X146576806Y-101420320D01*
X146621000Y-101402014D01*
X146644008Y-101406403D01*
X146732877Y-101441588D01*
X146740595Y-101443548D01*
X146825083Y-101453773D01*
X146828854Y-101454000D01*
X147155569Y-101454000D01*
X147164359Y-101450359D01*
X147168000Y-101441569D01*
X147168000Y-101441568D01*
X147472000Y-101441568D01*
X147475641Y-101450358D01*
X147484431Y-101453999D01*
X147811145Y-101453999D01*
X147814917Y-101453771D01*
X147899406Y-101443548D01*
X147907122Y-101441589D01*
X148040558Y-101388758D01*
X148047910Y-101384615D01*
X148162029Y-101297994D01*
X148167994Y-101292029D01*
X148254615Y-101177910D01*
X148258758Y-101170558D01*
X148311588Y-101037123D01*
X148313548Y-101029405D01*
X148323773Y-100944917D01*
X148323799Y-100944480D01*
X148556033Y-100944480D01*
X148572952Y-101117045D01*
X148574395Y-101123831D01*
X148629125Y-101288355D01*
X148632041Y-101294665D01*
X148691734Y-101393230D01*
X148699404Y-101398864D01*
X148703858Y-101398182D01*
X149140950Y-100961090D01*
X149144591Y-100952300D01*
X149140950Y-100943510D01*
X148707565Y-100510125D01*
X148698775Y-100506484D01*
X148694248Y-100508359D01*
X148641882Y-100589617D01*
X148638797Y-100595831D01*
X148579494Y-100758766D01*
X148577861Y-100765519D01*
X148556130Y-100937535D01*
X148556033Y-100944480D01*
X148323799Y-100944480D01*
X148324000Y-100941146D01*
X148324000Y-100739431D01*
X148320359Y-100730641D01*
X148311569Y-100727000D01*
X147484431Y-100727000D01*
X147475641Y-100730641D01*
X147472000Y-100739431D01*
X147472000Y-101441568D01*
X147168000Y-101441568D01*
X147168000Y-99800431D01*
X147164359Y-99791641D01*
X147155569Y-99788000D01*
X147103500Y-99788000D01*
X147059306Y-99769694D01*
X147041000Y-99725500D01*
X147041000Y-99643569D01*
X147345000Y-99643569D01*
X147348641Y-99652359D01*
X147357431Y-99656000D01*
X147409500Y-99656000D01*
X147453694Y-99674306D01*
X147472000Y-99718500D01*
X147472000Y-100410569D01*
X147475641Y-100419359D01*
X147484431Y-100423000D01*
X148311568Y-100423000D01*
X148320358Y-100419359D01*
X148323999Y-100410569D01*
X148323999Y-100208855D01*
X148323771Y-100205083D01*
X148313548Y-100120594D01*
X148311589Y-100112878D01*
X148258758Y-99979442D01*
X148254615Y-99972090D01*
X148167994Y-99857971D01*
X148162029Y-99852006D01*
X148047910Y-99765385D01*
X148040558Y-99761242D01*
X147907123Y-99708412D01*
X147899405Y-99706452D01*
X147851456Y-99700649D01*
X147809781Y-99677167D01*
X147796918Y-99631093D01*
X147814771Y-99594408D01*
X147819572Y-99589607D01*
X147904121Y-99478219D01*
X147908268Y-99470859D01*
X147959834Y-99340615D01*
X147961796Y-99332892D01*
X147971773Y-99250449D01*
X147972000Y-99246678D01*
X147972000Y-99120931D01*
X147968359Y-99112141D01*
X147959569Y-99108500D01*
X147357431Y-99108500D01*
X147348641Y-99112141D01*
X147345000Y-99120931D01*
X147345000Y-99643569D01*
X147041000Y-99643569D01*
X147041000Y-98792069D01*
X147345000Y-98792069D01*
X147348641Y-98800859D01*
X147357431Y-98804500D01*
X147959568Y-98804500D01*
X147968358Y-98800859D01*
X147971999Y-98792069D01*
X147971999Y-98666323D01*
X147971771Y-98662551D01*
X147961795Y-98580107D01*
X147959835Y-98572386D01*
X147908268Y-98442141D01*
X147904121Y-98434781D01*
X147819572Y-98323393D01*
X147813607Y-98317428D01*
X147702219Y-98232879D01*
X147694859Y-98228732D01*
X147564615Y-98177166D01*
X147556892Y-98175204D01*
X147474449Y-98165227D01*
X147470678Y-98165000D01*
X147357431Y-98165000D01*
X147348641Y-98168641D01*
X147345000Y-98177431D01*
X147345000Y-98792069D01*
X147041000Y-98792069D01*
X147041000Y-98177432D01*
X147037359Y-98168642D01*
X147028569Y-98165001D01*
X146915323Y-98165001D01*
X146911551Y-98165229D01*
X146829107Y-98175205D01*
X146821386Y-98177165D01*
X146691141Y-98228732D01*
X146683781Y-98232879D01*
X146658788Y-98251850D01*
X146612518Y-98263989D01*
X146571217Y-98239855D01*
X146558500Y-98202067D01*
X146558500Y-97687497D01*
X146576806Y-97643303D01*
X146621000Y-97624997D01*
X146665194Y-97643303D01*
X146723168Y-97701277D01*
X146727549Y-97703509D01*
X146727550Y-97703510D01*
X146798315Y-97739566D01*
X146833356Y-97757420D01*
X146838213Y-97758189D01*
X146838215Y-97758190D01*
X146922351Y-97771516D01*
X146922356Y-97771516D01*
X146924778Y-97771900D01*
X147113515Y-97771900D01*
X147125708Y-97773101D01*
X147193000Y-97786486D01*
X147260292Y-97773101D01*
X147272485Y-97771900D01*
X147461222Y-97771900D01*
X147463644Y-97771516D01*
X147463649Y-97771516D01*
X147547785Y-97758190D01*
X147547787Y-97758189D01*
X147552644Y-97757420D01*
X147587685Y-97739566D01*
X147658450Y-97703510D01*
X147658451Y-97703509D01*
X147662832Y-97701277D01*
X147750277Y-97613832D01*
X147765095Y-97584751D01*
X147804186Y-97508029D01*
X147804186Y-97508028D01*
X147806420Y-97503644D01*
X147807190Y-97498785D01*
X147820516Y-97414649D01*
X147820516Y-97414644D01*
X147820900Y-97412222D01*
X147820900Y-96850778D01*
X147820416Y-96847719D01*
X147807190Y-96764215D01*
X147807189Y-96764213D01*
X147806420Y-96759356D01*
X147802885Y-96752418D01*
X147752510Y-96653550D01*
X147752509Y-96653549D01*
X147750277Y-96649168D01*
X147662832Y-96561723D01*
X147658451Y-96559491D01*
X147658450Y-96559490D01*
X147557029Y-96507814D01*
X147557028Y-96507814D01*
X147552644Y-96505580D01*
X147547784Y-96504810D01*
X147547780Y-96504809D01*
X147500222Y-96497276D01*
X147459436Y-96472282D01*
X147447500Y-96435546D01*
X147447500Y-96223454D01*
X147465806Y-96179260D01*
X147500222Y-96161724D01*
X147547780Y-96154191D01*
X147547784Y-96154190D01*
X147552644Y-96153420D01*
X147557861Y-96150762D01*
X147658450Y-96099510D01*
X147658451Y-96099509D01*
X147662832Y-96097277D01*
X147750277Y-96009832D01*
X147806420Y-95899644D01*
X147807190Y-95894785D01*
X147820516Y-95810649D01*
X147820516Y-95810644D01*
X147820900Y-95808222D01*
X147820900Y-95246778D01*
X147818638Y-95232491D01*
X147807190Y-95160215D01*
X147807189Y-95160213D01*
X147806420Y-95155356D01*
X147804053Y-95150709D01*
X147771782Y-95087374D01*
X147768029Y-95039686D01*
X147799096Y-95003312D01*
X147827470Y-94996500D01*
X148712694Y-94996500D01*
X148756888Y-95014806D01*
G37*
%TD.AperFunction*%
%TD*%
M02*
