%TF.GenerationSoftware,KiCad,Pcbnew,(6.0.0)*%
%TF.CreationDate,2022-01-02T16:00:34+01:00*%
%TF.ProjectId,S-Mix-Replacement,532d4d69-782d-4526-9570-6c6163656d65,rev?*%
%TF.SameCoordinates,Original*%
%TF.FileFunction,Legend,Top*%
%TF.FilePolarity,Positive*%
%FSLAX46Y46*%
G04 Gerber Fmt 4.6, Leading zero omitted, Abs format (unit mm)*
G04 Created by KiCad (PCBNEW (6.0.0)) date 2022-01-02 16:00:34*
%MOMM*%
%LPD*%
G01*
G04 APERTURE LIST*
%ADD10C,0.080000*%
%ADD11C,0.063500*%
%ADD12C,0.127000*%
%ADD13C,0.075000*%
%ADD14C,0.120000*%
G04 APERTURE END LIST*
D10*
X151033333Y-112749428D02*
X151090476Y-112768476D01*
X151109523Y-112787523D01*
X151128571Y-112825619D01*
X151128571Y-112882761D01*
X151109523Y-112920857D01*
X151090476Y-112939904D01*
X151052380Y-112958952D01*
X150900000Y-112958952D01*
X150900000Y-112558952D01*
X151033333Y-112558952D01*
X151071428Y-112578000D01*
X151090476Y-112597047D01*
X151109523Y-112635142D01*
X151109523Y-112673238D01*
X151090476Y-112711333D01*
X151071428Y-112730380D01*
X151033333Y-112749428D01*
X150900000Y-112749428D01*
X151261904Y-112692285D02*
X151357142Y-112958952D01*
X151452380Y-112692285D02*
X151357142Y-112958952D01*
X151319047Y-113054190D01*
X151300000Y-113073238D01*
X151261904Y-113092285D01*
X151909523Y-112958952D02*
X151909523Y-112558952D01*
X152042857Y-112844666D01*
X152176190Y-112558952D01*
X152176190Y-112958952D01*
X152538095Y-112958952D02*
X152538095Y-112749428D01*
X152519047Y-112711333D01*
X152480952Y-112692285D01*
X152404761Y-112692285D01*
X152366666Y-112711333D01*
X152538095Y-112939904D02*
X152500000Y-112958952D01*
X152404761Y-112958952D01*
X152366666Y-112939904D01*
X152347619Y-112901809D01*
X152347619Y-112863714D01*
X152366666Y-112825619D01*
X152404761Y-112806571D01*
X152500000Y-112806571D01*
X152538095Y-112787523D01*
X152728571Y-112692285D02*
X152728571Y-112958952D01*
X152728571Y-112730380D02*
X152747619Y-112711333D01*
X152785714Y-112692285D01*
X152842857Y-112692285D01*
X152880952Y-112711333D01*
X152900000Y-112749428D01*
X152900000Y-112958952D01*
X153319047Y-112920857D02*
X153300000Y-112939904D01*
X153242857Y-112958952D01*
X153204761Y-112958952D01*
X153147619Y-112939904D01*
X153109523Y-112901809D01*
X153090476Y-112863714D01*
X153071428Y-112787523D01*
X153071428Y-112730380D01*
X153090476Y-112654190D01*
X153109523Y-112616095D01*
X153147619Y-112578000D01*
X153204761Y-112558952D01*
X153242857Y-112558952D01*
X153300000Y-112578000D01*
X153319047Y-112597047D01*
X153547619Y-112958952D02*
X153509523Y-112939904D01*
X153490476Y-112901809D01*
X153490476Y-112558952D01*
X153757142Y-112958952D02*
X153719047Y-112939904D01*
X153700000Y-112920857D01*
X153680952Y-112882761D01*
X153680952Y-112768476D01*
X153700000Y-112730380D01*
X153719047Y-112711333D01*
X153757142Y-112692285D01*
X153814285Y-112692285D01*
X153852380Y-112711333D01*
X153871428Y-112730380D01*
X153890476Y-112768476D01*
X153890476Y-112882761D01*
X153871428Y-112920857D01*
X153852380Y-112939904D01*
X153814285Y-112958952D01*
X153757142Y-112958952D01*
X154233333Y-112692285D02*
X154233333Y-112958952D01*
X154061904Y-112692285D02*
X154061904Y-112901809D01*
X154080952Y-112939904D01*
X154119047Y-112958952D01*
X154176190Y-112958952D01*
X154214285Y-112939904D01*
X154233333Y-112920857D01*
X154595238Y-112958952D02*
X154595238Y-112558952D01*
X154595238Y-112939904D02*
X154557142Y-112958952D01*
X154480952Y-112958952D01*
X154442857Y-112939904D01*
X154423809Y-112920857D01*
X154404761Y-112882761D01*
X154404761Y-112768476D01*
X154423809Y-112730380D01*
X154442857Y-112711333D01*
X154480952Y-112692285D01*
X154557142Y-112692285D01*
X154595238Y-112711333D01*
X151014285Y-113602952D02*
X151014285Y-113393428D01*
X150995238Y-113355333D01*
X150957142Y-113336285D01*
X150880952Y-113336285D01*
X150842857Y-113355333D01*
X151014285Y-113583904D02*
X150976190Y-113602952D01*
X150880952Y-113602952D01*
X150842857Y-113583904D01*
X150823809Y-113545809D01*
X150823809Y-113507714D01*
X150842857Y-113469619D01*
X150880952Y-113450571D01*
X150976190Y-113450571D01*
X151014285Y-113431523D01*
X151204761Y-113336285D02*
X151204761Y-113602952D01*
X151204761Y-113374380D02*
X151223809Y-113355333D01*
X151261904Y-113336285D01*
X151319047Y-113336285D01*
X151357142Y-113355333D01*
X151376190Y-113393428D01*
X151376190Y-113602952D01*
X151738095Y-113602952D02*
X151738095Y-113202952D01*
X151738095Y-113583904D02*
X151700000Y-113602952D01*
X151623809Y-113602952D01*
X151585714Y-113583904D01*
X151566666Y-113564857D01*
X151547619Y-113526761D01*
X151547619Y-113412476D01*
X151566666Y-113374380D01*
X151585714Y-113355333D01*
X151623809Y-113336285D01*
X151700000Y-113336285D01*
X151738095Y-113355333D01*
X152233333Y-113602952D02*
X152233333Y-113202952D01*
X152233333Y-113355333D02*
X152271428Y-113336285D01*
X152347619Y-113336285D01*
X152385714Y-113355333D01*
X152404761Y-113374380D01*
X152423809Y-113412476D01*
X152423809Y-113526761D01*
X152404761Y-113564857D01*
X152385714Y-113583904D01*
X152347619Y-113602952D01*
X152271428Y-113602952D01*
X152233333Y-113583904D01*
X152652380Y-113602952D02*
X152614285Y-113583904D01*
X152595238Y-113564857D01*
X152576190Y-113526761D01*
X152576190Y-113412476D01*
X152595238Y-113374380D01*
X152614285Y-113355333D01*
X152652380Y-113336285D01*
X152709523Y-113336285D01*
X152747619Y-113355333D01*
X152766666Y-113374380D01*
X152785714Y-113412476D01*
X152785714Y-113526761D01*
X152766666Y-113564857D01*
X152747619Y-113583904D01*
X152709523Y-113602952D01*
X152652380Y-113602952D01*
X152957142Y-113602952D02*
X152957142Y-113336285D01*
X152957142Y-113412476D02*
X152976190Y-113374380D01*
X152995238Y-113355333D01*
X153033333Y-113336285D01*
X153071428Y-113336285D01*
X153147619Y-113336285D02*
X153300000Y-113336285D01*
X153204761Y-113202952D02*
X153204761Y-113545809D01*
X153223809Y-113583904D01*
X153261904Y-113602952D01*
X153300000Y-113602952D01*
X153433333Y-113602952D02*
X153433333Y-113336285D01*
X153433333Y-113202952D02*
X153414285Y-113222000D01*
X153433333Y-113241047D01*
X153452380Y-113222000D01*
X153433333Y-113202952D01*
X153433333Y-113241047D01*
X153795238Y-113336285D02*
X153795238Y-113602952D01*
X153700000Y-113183904D02*
X153604761Y-113469619D01*
X153852380Y-113469619D01*
X154023809Y-113602952D02*
X154100000Y-113602952D01*
X154138095Y-113583904D01*
X154157142Y-113564857D01*
X154195238Y-113507714D01*
X154214285Y-113431523D01*
X154214285Y-113279142D01*
X154195238Y-113241047D01*
X154176190Y-113222000D01*
X154138095Y-113202952D01*
X154061904Y-113202952D01*
X154023809Y-113222000D01*
X154004761Y-113241047D01*
X153985714Y-113279142D01*
X153985714Y-113374380D01*
X154004761Y-113412476D01*
X154023809Y-113431523D01*
X154061904Y-113450571D01*
X154138095Y-113450571D01*
X154176190Y-113431523D01*
X154195238Y-113412476D01*
X154214285Y-113374380D01*
X154347619Y-113202952D02*
X154595238Y-113202952D01*
X154461904Y-113355333D01*
X154519047Y-113355333D01*
X154557142Y-113374380D01*
X154576190Y-113393428D01*
X154595238Y-113431523D01*
X154595238Y-113526761D01*
X154576190Y-113564857D01*
X154557142Y-113583904D01*
X154519047Y-113602952D01*
X154404761Y-113602952D01*
X154366666Y-113583904D01*
X154347619Y-113564857D01*
X154823809Y-113374380D02*
X154785714Y-113355333D01*
X154766666Y-113336285D01*
X154747619Y-113298190D01*
X154747619Y-113279142D01*
X154766666Y-113241047D01*
X154785714Y-113222000D01*
X154823809Y-113202952D01*
X154900000Y-113202952D01*
X154938095Y-113222000D01*
X154957142Y-113241047D01*
X154976190Y-113279142D01*
X154976190Y-113298190D01*
X154957142Y-113336285D01*
X154938095Y-113355333D01*
X154900000Y-113374380D01*
X154823809Y-113374380D01*
X154785714Y-113393428D01*
X154766666Y-113412476D01*
X154747619Y-113450571D01*
X154747619Y-113526761D01*
X154766666Y-113564857D01*
X154785714Y-113583904D01*
X154823809Y-113602952D01*
X154900000Y-113602952D01*
X154938095Y-113583904D01*
X154957142Y-113564857D01*
X154976190Y-113526761D01*
X154976190Y-113450571D01*
X154957142Y-113412476D01*
X154938095Y-113393428D01*
X154900000Y-113374380D01*
D11*
X139804170Y-93593841D02*
X139851341Y-93609565D01*
X139929960Y-93609565D01*
X139961408Y-93593841D01*
X139977132Y-93578117D01*
X139992855Y-93546669D01*
X139992855Y-93515222D01*
X139977132Y-93483774D01*
X139961408Y-93468050D01*
X139929960Y-93452327D01*
X139867065Y-93436603D01*
X139835617Y-93420879D01*
X139819894Y-93405155D01*
X139804170Y-93373708D01*
X139804170Y-93342260D01*
X139819894Y-93310812D01*
X139835617Y-93295089D01*
X139867065Y-93279365D01*
X139945684Y-93279365D01*
X139992855Y-93295089D01*
X140134370Y-93483774D02*
X140385951Y-93483774D01*
X140543189Y-93609565D02*
X140543189Y-93279365D01*
X140653255Y-93515222D01*
X140763322Y-93279365D01*
X140763322Y-93609565D01*
X140920560Y-93609565D02*
X140920560Y-93279365D01*
X141046351Y-93279365D02*
X141266484Y-93609565D01*
X141266484Y-93279365D02*
X141046351Y-93609565D01*
X140008579Y-94141187D02*
X139898513Y-93983949D01*
X139819894Y-94141187D02*
X139819894Y-93810987D01*
X139945684Y-93810987D01*
X139977132Y-93826711D01*
X139992855Y-93842434D01*
X140008579Y-93873882D01*
X140008579Y-93921053D01*
X139992855Y-93952501D01*
X139977132Y-93968225D01*
X139945684Y-93983949D01*
X139819894Y-93983949D01*
X140275884Y-94125463D02*
X140244436Y-94141187D01*
X140181541Y-94141187D01*
X140150094Y-94125463D01*
X140134370Y-94094015D01*
X140134370Y-93968225D01*
X140150094Y-93936777D01*
X140181541Y-93921053D01*
X140244436Y-93921053D01*
X140275884Y-93936777D01*
X140291608Y-93968225D01*
X140291608Y-93999672D01*
X140134370Y-94031120D01*
X140433122Y-93921053D02*
X140433122Y-94251253D01*
X140433122Y-93936777D02*
X140464570Y-93921053D01*
X140527465Y-93921053D01*
X140558913Y-93936777D01*
X140574636Y-93952501D01*
X140590360Y-93983949D01*
X140590360Y-94078291D01*
X140574636Y-94109739D01*
X140558913Y-94125463D01*
X140527465Y-94141187D01*
X140464570Y-94141187D01*
X140433122Y-94125463D01*
X140779046Y-94141187D02*
X140747598Y-94125463D01*
X140731875Y-94094015D01*
X140731875Y-93810987D01*
X141046351Y-94141187D02*
X141046351Y-93968225D01*
X141030627Y-93936777D01*
X140999179Y-93921053D01*
X140936284Y-93921053D01*
X140904836Y-93936777D01*
X141046351Y-94125463D02*
X141014903Y-94141187D01*
X140936284Y-94141187D01*
X140904836Y-94125463D01*
X140889113Y-94094015D01*
X140889113Y-94062568D01*
X140904836Y-94031120D01*
X140936284Y-94015396D01*
X141014903Y-94015396D01*
X141046351Y-93999672D01*
X141345103Y-94125463D02*
X141313655Y-94141187D01*
X141250760Y-94141187D01*
X141219313Y-94125463D01*
X141203589Y-94109739D01*
X141187865Y-94078291D01*
X141187865Y-93983949D01*
X141203589Y-93952501D01*
X141219313Y-93936777D01*
X141250760Y-93921053D01*
X141313655Y-93921053D01*
X141345103Y-93936777D01*
X141612408Y-94125463D02*
X141580960Y-94141187D01*
X141518065Y-94141187D01*
X141486617Y-94125463D01*
X141470894Y-94094015D01*
X141470894Y-93968225D01*
X141486617Y-93936777D01*
X141518065Y-93921053D01*
X141580960Y-93921053D01*
X141612408Y-93936777D01*
X141628132Y-93968225D01*
X141628132Y-93999672D01*
X141470894Y-94031120D01*
X141769646Y-94141187D02*
X141769646Y-93921053D01*
X141769646Y-93952501D02*
X141785370Y-93936777D01*
X141816817Y-93921053D01*
X141863989Y-93921053D01*
X141895436Y-93936777D01*
X141911160Y-93968225D01*
X141911160Y-94141187D01*
X141911160Y-93968225D02*
X141926884Y-93936777D01*
X141958332Y-93921053D01*
X142005503Y-93921053D01*
X142036951Y-93936777D01*
X142052675Y-93968225D01*
X142052675Y-94141187D01*
X142335703Y-94125463D02*
X142304255Y-94141187D01*
X142241360Y-94141187D01*
X142209913Y-94125463D01*
X142194189Y-94094015D01*
X142194189Y-93968225D01*
X142209913Y-93936777D01*
X142241360Y-93921053D01*
X142304255Y-93921053D01*
X142335703Y-93936777D01*
X142351427Y-93968225D01*
X142351427Y-93999672D01*
X142194189Y-94031120D01*
X142492941Y-93921053D02*
X142492941Y-94141187D01*
X142492941Y-93952501D02*
X142508665Y-93936777D01*
X142540113Y-93921053D01*
X142587284Y-93921053D01*
X142618732Y-93936777D01*
X142634455Y-93968225D01*
X142634455Y-94141187D01*
X142744522Y-93921053D02*
X142870313Y-93921053D01*
X142791694Y-93810987D02*
X142791694Y-94094015D01*
X142807417Y-94125463D01*
X142838865Y-94141187D01*
X142870313Y-94141187D01*
D10*
X151680952Y-93414285D02*
X151776190Y-93680952D01*
X151871428Y-93414285D01*
X152004761Y-93319047D02*
X152023809Y-93300000D01*
X152061904Y-93280952D01*
X152157142Y-93280952D01*
X152195238Y-93300000D01*
X152214285Y-93319047D01*
X152233333Y-93357142D01*
X152233333Y-93395238D01*
X152214285Y-93452380D01*
X151985714Y-93680952D01*
X152233333Y-93680952D01*
X152480952Y-93280952D02*
X152519047Y-93280952D01*
X152557142Y-93300000D01*
X152576190Y-93319047D01*
X152595238Y-93357142D01*
X152614285Y-93433333D01*
X152614285Y-93528571D01*
X152595238Y-93604761D01*
X152576190Y-93642857D01*
X152557142Y-93661904D01*
X152519047Y-93680952D01*
X152480952Y-93680952D01*
X152442857Y-93661904D01*
X152423809Y-93642857D01*
X152404761Y-93604761D01*
X152385714Y-93528571D01*
X152385714Y-93433333D01*
X152404761Y-93357142D01*
X152423809Y-93319047D01*
X152442857Y-93300000D01*
X152480952Y-93280952D01*
X152766666Y-93319047D02*
X152785714Y-93300000D01*
X152823809Y-93280952D01*
X152919047Y-93280952D01*
X152957142Y-93300000D01*
X152976190Y-93319047D01*
X152995238Y-93357142D01*
X152995238Y-93395238D01*
X152976190Y-93452380D01*
X152747619Y-93680952D01*
X152995238Y-93680952D01*
X153376190Y-93680952D02*
X153147619Y-93680952D01*
X153261904Y-93680952D02*
X153261904Y-93280952D01*
X153223809Y-93338095D01*
X153185714Y-93376190D01*
X153147619Y-93395238D01*
X153623809Y-93280952D02*
X153661904Y-93280952D01*
X153700000Y-93300000D01*
X153719047Y-93319047D01*
X153738095Y-93357142D01*
X153757142Y-93433333D01*
X153757142Y-93528571D01*
X153738095Y-93604761D01*
X153719047Y-93642857D01*
X153700000Y-93661904D01*
X153661904Y-93680952D01*
X153623809Y-93680952D01*
X153585714Y-93661904D01*
X153566666Y-93642857D01*
X153547619Y-93604761D01*
X153528571Y-93528571D01*
X153528571Y-93433333D01*
X153547619Y-93357142D01*
X153566666Y-93319047D01*
X153585714Y-93300000D01*
X153623809Y-93280952D01*
X154119047Y-93280952D02*
X153928571Y-93280952D01*
X153909523Y-93471428D01*
X153928571Y-93452380D01*
X153966666Y-93433333D01*
X154061904Y-93433333D01*
X154100000Y-93452380D01*
X154119047Y-93471428D01*
X154138095Y-93509523D01*
X154138095Y-93604761D01*
X154119047Y-93642857D01*
X154100000Y-93661904D01*
X154061904Y-93680952D01*
X153966666Y-93680952D01*
X153928571Y-93661904D01*
X153909523Y-93642857D01*
X154290476Y-93319047D02*
X154309523Y-93300000D01*
X154347619Y-93280952D01*
X154442857Y-93280952D01*
X154480952Y-93300000D01*
X154500000Y-93319047D01*
X154519047Y-93357142D01*
X154519047Y-93395238D01*
X154500000Y-93452380D01*
X154271428Y-93680952D01*
X154519047Y-93680952D01*
X154861904Y-93280952D02*
X154785714Y-93280952D01*
X154747619Y-93300000D01*
X154728571Y-93319047D01*
X154690476Y-93376190D01*
X154671428Y-93452380D01*
X154671428Y-93604761D01*
X154690476Y-93642857D01*
X154709523Y-93661904D01*
X154747619Y-93680952D01*
X154823809Y-93680952D01*
X154861904Y-93661904D01*
X154880952Y-93642857D01*
X154900000Y-93604761D01*
X154900000Y-93509523D01*
X154880952Y-93471428D01*
X154861904Y-93452380D01*
X154823809Y-93433333D01*
X154747619Y-93433333D01*
X154709523Y-93452380D01*
X154690476Y-93471428D01*
X154671428Y-93509523D01*
D12*
%TO.C,C1*%
X145711333Y-99876428D02*
X145687142Y-99900619D01*
X145614571Y-99924809D01*
X145566190Y-99924809D01*
X145493619Y-99900619D01*
X145445238Y-99852238D01*
X145421047Y-99803857D01*
X145396857Y-99707095D01*
X145396857Y-99634523D01*
X145421047Y-99537761D01*
X145445238Y-99489380D01*
X145493619Y-99441000D01*
X145566190Y-99416809D01*
X145614571Y-99416809D01*
X145687142Y-99441000D01*
X145711333Y-99465190D01*
X146195142Y-99924809D02*
X145904857Y-99924809D01*
X146050000Y-99924809D02*
X146050000Y-99416809D01*
X146001619Y-99489380D01*
X145953238Y-99537761D01*
X145904857Y-99561952D01*
%TO.C,IC1*%
X142252095Y-113386809D02*
X142252095Y-112878809D01*
X142784285Y-113338428D02*
X142760095Y-113362619D01*
X142687523Y-113386809D01*
X142639142Y-113386809D01*
X142566571Y-113362619D01*
X142518190Y-113314238D01*
X142494000Y-113265857D01*
X142469809Y-113169095D01*
X142469809Y-113096523D01*
X142494000Y-112999761D01*
X142518190Y-112951380D01*
X142566571Y-112903000D01*
X142639142Y-112878809D01*
X142687523Y-112878809D01*
X142760095Y-112903000D01*
X142784285Y-112927190D01*
X143268095Y-113386809D02*
X142977809Y-113386809D01*
X143122952Y-113386809D02*
X143122952Y-112878809D01*
X143074571Y-112951380D01*
X143026190Y-112999761D01*
X142977809Y-113023952D01*
%TO.C,R6*%
X152823333Y-100051809D02*
X152654000Y-99809904D01*
X152533047Y-100051809D02*
X152533047Y-99543809D01*
X152726571Y-99543809D01*
X152774952Y-99568000D01*
X152799142Y-99592190D01*
X152823333Y-99640571D01*
X152823333Y-99713142D01*
X152799142Y-99761523D01*
X152774952Y-99785714D01*
X152726571Y-99809904D01*
X152533047Y-99809904D01*
X153258761Y-99543809D02*
X153162000Y-99543809D01*
X153113619Y-99568000D01*
X153089428Y-99592190D01*
X153041047Y-99664761D01*
X153016857Y-99761523D01*
X153016857Y-99955047D01*
X153041047Y-100003428D01*
X153065238Y-100027619D01*
X153113619Y-100051809D01*
X153210380Y-100051809D01*
X153258761Y-100027619D01*
X153282952Y-100003428D01*
X153307142Y-99955047D01*
X153307142Y-99834095D01*
X153282952Y-99785714D01*
X153258761Y-99761523D01*
X153210380Y-99737333D01*
X153113619Y-99737333D01*
X153065238Y-99761523D01*
X153041047Y-99785714D01*
X153016857Y-99834095D01*
D13*
%TO.C,R13*%
X146935714Y-107500276D02*
X146792857Y-107600276D01*
X146935714Y-107671704D02*
X146635714Y-107671704D01*
X146635714Y-107557419D01*
X146650000Y-107528847D01*
X146664285Y-107514561D01*
X146692857Y-107500276D01*
X146735714Y-107500276D01*
X146764285Y-107514561D01*
X146778571Y-107528847D01*
X146792857Y-107557419D01*
X146792857Y-107671704D01*
X146935714Y-107214561D02*
X146935714Y-107385990D01*
X146935714Y-107300276D02*
X146635714Y-107300276D01*
X146678571Y-107328847D01*
X146707142Y-107357419D01*
X146721428Y-107385990D01*
X146635714Y-107114561D02*
X146635714Y-106928847D01*
X146750000Y-107028847D01*
X146750000Y-106985990D01*
X146764285Y-106957419D01*
X146778571Y-106943133D01*
X146807142Y-106928847D01*
X146878571Y-106928847D01*
X146907142Y-106943133D01*
X146921428Y-106957419D01*
X146935714Y-106985990D01*
X146935714Y-107071704D01*
X146921428Y-107100276D01*
X146907142Y-107114561D01*
D12*
%TO.C,R4*%
X141393333Y-97511809D02*
X141224000Y-97269904D01*
X141103047Y-97511809D02*
X141103047Y-97003809D01*
X141296571Y-97003809D01*
X141344952Y-97028000D01*
X141369142Y-97052190D01*
X141393333Y-97100571D01*
X141393333Y-97173142D01*
X141369142Y-97221523D01*
X141344952Y-97245714D01*
X141296571Y-97269904D01*
X141103047Y-97269904D01*
X141828761Y-97173142D02*
X141828761Y-97511809D01*
X141707809Y-96979619D02*
X141586857Y-97342476D01*
X141901333Y-97342476D01*
%TO.C,T1*%
X139812952Y-108721809D02*
X140103238Y-108721809D01*
X139958095Y-109229809D02*
X139958095Y-108721809D01*
X140538666Y-109229809D02*
X140248380Y-109229809D01*
X140393523Y-109229809D02*
X140393523Y-108721809D01*
X140345142Y-108794380D01*
X140296761Y-108842761D01*
X140248380Y-108866952D01*
%TO.C,R16*%
X149031661Y-103261644D02*
X148862328Y-103019739D01*
X148741375Y-103261644D02*
X148741375Y-102753644D01*
X148934899Y-102753644D01*
X148983280Y-102777835D01*
X149007471Y-102802025D01*
X149031661Y-102850406D01*
X149031661Y-102922977D01*
X149007471Y-102971358D01*
X148983280Y-102995549D01*
X148934899Y-103019739D01*
X148741375Y-103019739D01*
X149515471Y-103261644D02*
X149225185Y-103261644D01*
X149370328Y-103261644D02*
X149370328Y-102753644D01*
X149321947Y-102826215D01*
X149273566Y-102874596D01*
X149225185Y-102898787D01*
X149950899Y-102753644D02*
X149854137Y-102753644D01*
X149805756Y-102777835D01*
X149781566Y-102802025D01*
X149733185Y-102874596D01*
X149708994Y-102971358D01*
X149708994Y-103164882D01*
X149733185Y-103213263D01*
X149757375Y-103237454D01*
X149805756Y-103261644D01*
X149902518Y-103261644D01*
X149950899Y-103237454D01*
X149975090Y-103213263D01*
X149999280Y-103164882D01*
X149999280Y-103043930D01*
X149975090Y-102995549D01*
X149950899Y-102971358D01*
X149902518Y-102947168D01*
X149805756Y-102947168D01*
X149757375Y-102971358D01*
X149733185Y-102995549D01*
X149708994Y-103043930D01*
%TO.C,T2*%
X153663952Y-108687809D02*
X153954238Y-108687809D01*
X153809095Y-109195809D02*
X153809095Y-108687809D01*
X154099380Y-108736190D02*
X154123571Y-108712000D01*
X154171952Y-108687809D01*
X154292904Y-108687809D01*
X154341285Y-108712000D01*
X154365476Y-108736190D01*
X154389666Y-108784571D01*
X154389666Y-108832952D01*
X154365476Y-108905523D01*
X154075190Y-109195809D01*
X154389666Y-109195809D01*
%TO.C,R12*%
X151311428Y-108814809D02*
X151142095Y-108572904D01*
X151021142Y-108814809D02*
X151021142Y-108306809D01*
X151214666Y-108306809D01*
X151263047Y-108331000D01*
X151287238Y-108355190D01*
X151311428Y-108403571D01*
X151311428Y-108476142D01*
X151287238Y-108524523D01*
X151263047Y-108548714D01*
X151214666Y-108572904D01*
X151021142Y-108572904D01*
X151795238Y-108814809D02*
X151504952Y-108814809D01*
X151650095Y-108814809D02*
X151650095Y-108306809D01*
X151601714Y-108379380D01*
X151553333Y-108427761D01*
X151504952Y-108451952D01*
X151988761Y-108355190D02*
X152012952Y-108331000D01*
X152061333Y-108306809D01*
X152182285Y-108306809D01*
X152230666Y-108331000D01*
X152254857Y-108355190D01*
X152279047Y-108403571D01*
X152279047Y-108451952D01*
X152254857Y-108524523D01*
X151964571Y-108814809D01*
X152279047Y-108814809D01*
%TO.C,R7*%
X152823333Y-97511809D02*
X152654000Y-97269904D01*
X152533047Y-97511809D02*
X152533047Y-97003809D01*
X152726571Y-97003809D01*
X152774952Y-97028000D01*
X152799142Y-97052190D01*
X152823333Y-97100571D01*
X152823333Y-97173142D01*
X152799142Y-97221523D01*
X152774952Y-97245714D01*
X152726571Y-97269904D01*
X152533047Y-97269904D01*
X152992666Y-97003809D02*
X153331333Y-97003809D01*
X153113619Y-97511809D01*
%TO.C,R8*%
X152696333Y-94971809D02*
X152527000Y-94729904D01*
X152406047Y-94971809D02*
X152406047Y-94463809D01*
X152599571Y-94463809D01*
X152647952Y-94488000D01*
X152672142Y-94512190D01*
X152696333Y-94560571D01*
X152696333Y-94633142D01*
X152672142Y-94681523D01*
X152647952Y-94705714D01*
X152599571Y-94729904D01*
X152406047Y-94729904D01*
X152986619Y-94681523D02*
X152938238Y-94657333D01*
X152914047Y-94633142D01*
X152889857Y-94584761D01*
X152889857Y-94560571D01*
X152914047Y-94512190D01*
X152938238Y-94488000D01*
X152986619Y-94463809D01*
X153083380Y-94463809D01*
X153131761Y-94488000D01*
X153155952Y-94512190D01*
X153180142Y-94560571D01*
X153180142Y-94584761D01*
X153155952Y-94633142D01*
X153131761Y-94657333D01*
X153083380Y-94681523D01*
X152986619Y-94681523D01*
X152938238Y-94705714D01*
X152914047Y-94729904D01*
X152889857Y-94778285D01*
X152889857Y-94875047D01*
X152914047Y-94923428D01*
X152938238Y-94947619D01*
X152986619Y-94971809D01*
X153083380Y-94971809D01*
X153131761Y-94947619D01*
X153155952Y-94923428D01*
X153180142Y-94875047D01*
X153180142Y-94778285D01*
X153155952Y-94729904D01*
X153131761Y-94705714D01*
X153083380Y-94681523D01*
%TO.C,R1*%
X145838333Y-93701809D02*
X145669000Y-93459904D01*
X145548047Y-93701809D02*
X145548047Y-93193809D01*
X145741571Y-93193809D01*
X145789952Y-93218000D01*
X145814142Y-93242190D01*
X145838333Y-93290571D01*
X145838333Y-93363142D01*
X145814142Y-93411523D01*
X145789952Y-93435714D01*
X145741571Y-93459904D01*
X145548047Y-93459904D01*
X146322142Y-93701809D02*
X146031857Y-93701809D01*
X146177000Y-93701809D02*
X146177000Y-93193809D01*
X146128619Y-93266380D01*
X146080238Y-93314761D01*
X146031857Y-93338952D01*
%TO.C,R3*%
X141393333Y-100051809D02*
X141224000Y-99809904D01*
X141103047Y-100051809D02*
X141103047Y-99543809D01*
X141296571Y-99543809D01*
X141344952Y-99568000D01*
X141369142Y-99592190D01*
X141393333Y-99640571D01*
X141393333Y-99713142D01*
X141369142Y-99761523D01*
X141344952Y-99785714D01*
X141296571Y-99809904D01*
X141103047Y-99809904D01*
X141562666Y-99543809D02*
X141877142Y-99543809D01*
X141707809Y-99737333D01*
X141780380Y-99737333D01*
X141828761Y-99761523D01*
X141852952Y-99785714D01*
X141877142Y-99834095D01*
X141877142Y-99955047D01*
X141852952Y-100003428D01*
X141828761Y-100027619D01*
X141780380Y-100051809D01*
X141635238Y-100051809D01*
X141586857Y-100027619D01*
X141562666Y-100003428D01*
%TO.C,R15*%
X144709086Y-103261644D02*
X144539753Y-103019739D01*
X144418800Y-103261644D02*
X144418800Y-102753644D01*
X144612324Y-102753644D01*
X144660705Y-102777835D01*
X144684896Y-102802025D01*
X144709086Y-102850406D01*
X144709086Y-102922977D01*
X144684896Y-102971358D01*
X144660705Y-102995549D01*
X144612324Y-103019739D01*
X144418800Y-103019739D01*
X145192896Y-103261644D02*
X144902610Y-103261644D01*
X145047753Y-103261644D02*
X145047753Y-102753644D01*
X144999372Y-102826215D01*
X144950991Y-102874596D01*
X144902610Y-102898787D01*
X145652515Y-102753644D02*
X145410610Y-102753644D01*
X145386419Y-102995549D01*
X145410610Y-102971358D01*
X145458991Y-102947168D01*
X145579943Y-102947168D01*
X145628324Y-102971358D01*
X145652515Y-102995549D01*
X145676705Y-103043930D01*
X145676705Y-103164882D01*
X145652515Y-103213263D01*
X145628324Y-103237454D01*
X145579943Y-103261644D01*
X145458991Y-103261644D01*
X145410610Y-103237454D01*
X145386419Y-103213263D01*
D13*
%TO.C,R10*%
X147735714Y-105860351D02*
X147592857Y-105960351D01*
X147735714Y-106031779D02*
X147435714Y-106031779D01*
X147435714Y-105917494D01*
X147450000Y-105888922D01*
X147464285Y-105874636D01*
X147492857Y-105860351D01*
X147535714Y-105860351D01*
X147564285Y-105874636D01*
X147578571Y-105888922D01*
X147592857Y-105917494D01*
X147592857Y-106031779D01*
X147735714Y-105574636D02*
X147735714Y-105746065D01*
X147735714Y-105660351D02*
X147435714Y-105660351D01*
X147478571Y-105688922D01*
X147507142Y-105717494D01*
X147521428Y-105746065D01*
X147435714Y-105388922D02*
X147435714Y-105360351D01*
X147450000Y-105331779D01*
X147464285Y-105317494D01*
X147492857Y-105303208D01*
X147550000Y-105288922D01*
X147621428Y-105288922D01*
X147678571Y-105303208D01*
X147707142Y-105317494D01*
X147721428Y-105331779D01*
X147735714Y-105360351D01*
X147735714Y-105388922D01*
X147721428Y-105417494D01*
X147707142Y-105431779D01*
X147678571Y-105446065D01*
X147621428Y-105460351D01*
X147550000Y-105460351D01*
X147492857Y-105446065D01*
X147464285Y-105431779D01*
X147450000Y-105417494D01*
X147435714Y-105388922D01*
%TO.C,R9*%
X146935714Y-105717494D02*
X146792857Y-105817494D01*
X146935714Y-105888922D02*
X146635714Y-105888922D01*
X146635714Y-105774636D01*
X146650000Y-105746065D01*
X146664285Y-105731779D01*
X146692857Y-105717494D01*
X146735714Y-105717494D01*
X146764285Y-105731779D01*
X146778571Y-105746065D01*
X146792857Y-105774636D01*
X146792857Y-105888922D01*
X146935714Y-105574636D02*
X146935714Y-105517494D01*
X146921428Y-105488922D01*
X146907142Y-105474636D01*
X146864285Y-105446065D01*
X146807142Y-105431779D01*
X146692857Y-105431779D01*
X146664285Y-105446065D01*
X146650000Y-105460351D01*
X146635714Y-105488922D01*
X146635714Y-105546065D01*
X146650000Y-105574636D01*
X146664285Y-105588922D01*
X146692857Y-105603208D01*
X146764285Y-105603208D01*
X146792857Y-105588922D01*
X146807142Y-105574636D01*
X146821428Y-105546065D01*
X146821428Y-105488922D01*
X146807142Y-105460351D01*
X146792857Y-105446065D01*
X146764285Y-105431779D01*
D12*
%TO.C,R5*%
X141393333Y-94971809D02*
X141224000Y-94729904D01*
X141103047Y-94971809D02*
X141103047Y-94463809D01*
X141296571Y-94463809D01*
X141344952Y-94488000D01*
X141369142Y-94512190D01*
X141393333Y-94560571D01*
X141393333Y-94633142D01*
X141369142Y-94681523D01*
X141344952Y-94705714D01*
X141296571Y-94729904D01*
X141103047Y-94729904D01*
X141852952Y-94463809D02*
X141611047Y-94463809D01*
X141586857Y-94705714D01*
X141611047Y-94681523D01*
X141659428Y-94657333D01*
X141780380Y-94657333D01*
X141828761Y-94681523D01*
X141852952Y-94705714D01*
X141877142Y-94754095D01*
X141877142Y-94875047D01*
X141852952Y-94923428D01*
X141828761Y-94947619D01*
X141780380Y-94971809D01*
X141659428Y-94971809D01*
X141611047Y-94947619D01*
X141586857Y-94923428D01*
%TO.C,T3*%
X139775570Y-103321809D02*
X140065856Y-103321809D01*
X139920713Y-103829809D02*
X139920713Y-103321809D01*
X140186808Y-103321809D02*
X140501284Y-103321809D01*
X140331951Y-103515333D01*
X140404522Y-103515333D01*
X140452903Y-103539523D01*
X140477094Y-103563714D01*
X140501284Y-103612095D01*
X140501284Y-103733047D01*
X140477094Y-103781428D01*
X140452903Y-103805619D01*
X140404522Y-103829809D01*
X140259379Y-103829809D01*
X140210998Y-103805619D01*
X140186808Y-103781428D01*
D13*
%TO.C,R14*%
X147735714Y-107506239D02*
X147592857Y-107606239D01*
X147735714Y-107677667D02*
X147435714Y-107677667D01*
X147435714Y-107563382D01*
X147450000Y-107534810D01*
X147464285Y-107520524D01*
X147492857Y-107506239D01*
X147535714Y-107506239D01*
X147564285Y-107520524D01*
X147578571Y-107534810D01*
X147592857Y-107563382D01*
X147592857Y-107677667D01*
X147735714Y-107220524D02*
X147735714Y-107391953D01*
X147735714Y-107306239D02*
X147435714Y-107306239D01*
X147478571Y-107334810D01*
X147507142Y-107363382D01*
X147521428Y-107391953D01*
X147535714Y-106963382D02*
X147735714Y-106963382D01*
X147421428Y-107034810D02*
X147635714Y-107106239D01*
X147635714Y-106920524D01*
D12*
%TO.C,T4*%
X153861454Y-103321809D02*
X154151740Y-103321809D01*
X154006597Y-103829809D02*
X154006597Y-103321809D01*
X154538787Y-103491142D02*
X154538787Y-103829809D01*
X154417835Y-103297619D02*
X154296882Y-103660476D01*
X154611359Y-103660476D01*
%TO.C,R2*%
X145838333Y-97384809D02*
X145669000Y-97142904D01*
X145548047Y-97384809D02*
X145548047Y-96876809D01*
X145741571Y-96876809D01*
X145789952Y-96901000D01*
X145814142Y-96925190D01*
X145838333Y-96973571D01*
X145838333Y-97046142D01*
X145814142Y-97094523D01*
X145789952Y-97118714D01*
X145741571Y-97142904D01*
X145548047Y-97142904D01*
X146031857Y-96925190D02*
X146056047Y-96901000D01*
X146104428Y-96876809D01*
X146225380Y-96876809D01*
X146273761Y-96901000D01*
X146297952Y-96925190D01*
X146322142Y-96973571D01*
X146322142Y-97021952D01*
X146297952Y-97094523D01*
X146007666Y-97384809D01*
X146322142Y-97384809D01*
%TO.C,R11*%
X142473428Y-108814809D02*
X142304095Y-108572904D01*
X142183142Y-108814809D02*
X142183142Y-108306809D01*
X142376666Y-108306809D01*
X142425047Y-108331000D01*
X142449238Y-108355190D01*
X142473428Y-108403571D01*
X142473428Y-108476142D01*
X142449238Y-108524523D01*
X142425047Y-108548714D01*
X142376666Y-108572904D01*
X142183142Y-108572904D01*
X142957238Y-108814809D02*
X142666952Y-108814809D01*
X142812095Y-108814809D02*
X142812095Y-108306809D01*
X142763714Y-108379380D01*
X142715333Y-108427761D01*
X142666952Y-108451952D01*
X143441047Y-108814809D02*
X143150761Y-108814809D01*
X143295904Y-108814809D02*
X143295904Y-108306809D01*
X143247523Y-108379380D01*
X143199142Y-108427761D01*
X143150761Y-108451952D01*
D14*
%TO.C,C1*%
X148030000Y-101861252D02*
X148030000Y-101338748D01*
X146610000Y-101861252D02*
X146610000Y-101338748D01*
%TO.C,IC1*%
X147193000Y-113558000D02*
X145243000Y-113558000D01*
X147193000Y-108438000D02*
X143743000Y-108438000D01*
X147193000Y-108438000D02*
X149143000Y-108438000D01*
X147193000Y-113558000D02*
X149143000Y-113558000D01*
%TO.C,R6*%
X152629776Y-101487500D02*
X153139224Y-101487500D01*
X152629776Y-100442500D02*
X153139224Y-100442500D01*
%TO.C,R13*%
X145288724Y-106792500D02*
X144779276Y-106792500D01*
X145288724Y-107837500D02*
X144779276Y-107837500D01*
%TO.C,R4*%
X141709224Y-98947500D02*
X141199776Y-98947500D01*
X141709224Y-97902500D02*
X141199776Y-97902500D01*
%TO.C,T1*%
X139898000Y-109476000D02*
X140828000Y-109476000D01*
X143058000Y-109476000D02*
X142128000Y-109476000D01*
X139898000Y-109476000D02*
X139898000Y-111636000D01*
X143058000Y-109476000D02*
X143058000Y-110936000D01*
%TO.C,R16*%
X149097276Y-104662500D02*
X149606724Y-104662500D01*
X149097276Y-103617500D02*
X149606724Y-103617500D01*
%TO.C,T2*%
X154488000Y-109476000D02*
X154488000Y-110936000D01*
X151328000Y-109476000D02*
X152258000Y-109476000D01*
X151328000Y-109476000D02*
X151328000Y-111636000D01*
X154488000Y-109476000D02*
X153558000Y-109476000D01*
%TO.C,R12*%
X153162724Y-106919500D02*
X152653276Y-106919500D01*
X153162724Y-107964500D02*
X152653276Y-107964500D01*
%TO.C,R7*%
X152629776Y-98947500D02*
X153139224Y-98947500D01*
X152629776Y-97902500D02*
X153139224Y-97902500D01*
%TO.C,R8*%
X152629776Y-96407500D02*
X153139224Y-96407500D01*
X152629776Y-95362500D02*
X153139224Y-95362500D01*
%TO.C,R1*%
X147715500Y-94869724D02*
X147715500Y-94360276D01*
X146670500Y-94869724D02*
X146670500Y-94360276D01*
%TO.C,J4*%
X144210000Y-99695000D02*
G75*
G03*
X144210000Y-99695000I-700000J0D01*
G01*
%TO.C,J2*%
X145734000Y-100965000D02*
G75*
G03*
X145734000Y-100965000I-700000J0D01*
G01*
%TO.C,J3*%
X145734000Y-95885000D02*
G75*
G03*
X145734000Y-95885000I-700000J0D01*
G01*
%TO.C,J5*%
X151576000Y-94615000D02*
G75*
G03*
X151576000Y-94615000I-700000J0D01*
G01*
%TO.C,J7*%
X145734000Y-98425000D02*
G75*
G03*
X145734000Y-98425000I-700000J0D01*
G01*
%TO.C,J8*%
X144210000Y-97155000D02*
G75*
G03*
X144210000Y-97155000I-700000J0D01*
G01*
%TO.C,J9*%
X151576000Y-99695000D02*
G75*
G03*
X151576000Y-99695000I-700000J0D01*
G01*
%TO.C,J10*%
X150052000Y-98425000D02*
G75*
G03*
X150052000Y-98425000I-700000J0D01*
G01*
%TO.C,J11*%
X151576000Y-97155000D02*
G75*
G03*
X151576000Y-97155000I-700000J0D01*
G01*
%TO.C,J12*%
X150052000Y-95885000D02*
G75*
G03*
X150052000Y-95885000I-700000J0D01*
G01*
%TO.C,J15*%
X150064700Y-100952300D02*
G75*
G03*
X150064700Y-100952300I-700000J0D01*
G01*
%TO.C,J14*%
X151576000Y-102235000D02*
G75*
G03*
X151576000Y-102235000I-700000J0D01*
G01*
%TO.C,J1*%
X144210000Y-94615000D02*
G75*
G03*
X144210000Y-94615000I-700000J0D01*
G01*
%TO.C,R3*%
X141709224Y-101487500D02*
X141199776Y-101487500D01*
X141709224Y-100442500D02*
X141199776Y-100442500D01*
%TO.C,R15*%
X145288724Y-103617500D02*
X144779276Y-103617500D01*
X145288724Y-104662500D02*
X144779276Y-104662500D01*
%TO.C,R10*%
X149606724Y-105141500D02*
X149097276Y-105141500D01*
X149606724Y-106186500D02*
X149097276Y-106186500D01*
%TO.C,R9*%
X144755776Y-106186500D02*
X145265224Y-106186500D01*
X144755776Y-105141500D02*
X145265224Y-105141500D01*
%TO.C,R5*%
X141709224Y-96407500D02*
X141199776Y-96407500D01*
X141709224Y-95362500D02*
X141199776Y-95362500D01*
%TO.C,T3*%
X140784000Y-103322000D02*
X140784000Y-104252000D01*
X140784000Y-106482000D02*
X142944000Y-106482000D01*
X140784000Y-103322000D02*
X142244000Y-103322000D01*
X140784000Y-106482000D02*
X140784000Y-105552000D01*
%TO.C,J13*%
X144210000Y-102235000D02*
G75*
G03*
X144210000Y-102235000I-700000J0D01*
G01*
%TO.C,R14*%
X149097276Y-106792500D02*
X149606724Y-106792500D01*
X149097276Y-107837500D02*
X149606724Y-107837500D01*
%TO.C,T4*%
X153668000Y-106411498D02*
X152208000Y-106411498D01*
X153668000Y-106411498D02*
X153668000Y-105481498D01*
X153668000Y-103251498D02*
X153668000Y-104181498D01*
X153668000Y-103251498D02*
X151508000Y-103251498D01*
%TO.C,R2*%
X146670500Y-97789276D02*
X146670500Y-98298724D01*
X147715500Y-97789276D02*
X147715500Y-98298724D01*
%TO.C,R11*%
X141223276Y-107032273D02*
X141732724Y-107032273D01*
X141223276Y-108077273D02*
X141732724Y-108077273D01*
%TD*%
M02*
